<?xml version="1.0" encoding="iso-8859-1"?>
<!-- Uploaded to: SVG Repo, www.svgrepo.com, Generator: SVG Repo Mixer Tools -->
<svg height="800px" width="800px" version="1.1" id="Layer_1" xmlns="http://www.w3.org/2000/svg" xmlns:xlink="http://www.w3.org/1999/xlink" 
	 viewBox="0 0 480 480" xml:space="preserve">
<g transform="matrix(1 -0.0065 0.0065 1 -0.084 0.207)">
	
		<ellipse transform="matrix(2.535316e-006 1 -1 2.535316e-006 328.8527 -150.1698)" style="fill:#F5BA46;" cx="239.511" cy="89.342" rx="79.36" ry="80"/>
	
		<ellipse transform="matrix(2.535316e-006 1 -1 2.535316e-006 328.8527 -150.1698)" style="fill:#F5BA46;" cx="239.511" cy="89.342" rx="79.36" ry="80"/>
</g>
<path id="SVGCleanerId_0" d="M239.992,175.36c-48.264,0-87.68-38.824-87.992-86.8c-0.152-23.352,8.872-45.352,25.4-61.96
	c16.512-16.592,38.544-25.816,62.04-25.96c0.184,0,0.384,0,0.576,0c48.264,0,87.68,38.824,87.992,86.8
	c0.152,23.352-8.864,45.352-25.4,61.96c-16.512,16.592-38.536,25.816-62.032,25.96C240.376,175.36,240.184,175.36,239.992,175.36z
	 M240.008,16.64c-0.16,0-0.312,0-0.472,0c-19.24,0.128-37.288,7.672-50.8,21.248C175.24,51.44,167.88,69.4,168,88.448
	c0.256,39.352,32.624,70.848,72.464,70.904c19.248-0.128,37.288-7.664,50.792-21.248c13.504-13.552,20.864-31.512,20.744-50.56
	C311.752,48.352,279.504,16.64,240.008,16.64z"/>
<g>
	<path id="SVGCleanerId_0_1_" d="M239.992,175.36c-48.264,0-87.68-38.824-87.992-86.8c-0.152-23.352,8.872-45.352,25.4-61.96
		c16.512-16.592,38.544-25.816,62.04-25.96c0.184,0,0.384,0,0.576,0c48.264,0,87.68,38.824,87.992,86.8
		c0.152,23.352-8.864,45.352-25.4,61.96c-16.512,16.592-38.536,25.816-62.032,25.96C240.376,175.36,240.184,175.36,239.992,175.36z
		 M240.008,16.64c-0.16,0-0.312,0-0.472,0c-19.24,0.128-37.288,7.672-50.8,21.248C175.24,51.44,167.88,69.4,168,88.448
		c0.256,39.352,32.624,70.848,72.464,70.904c19.248-0.128,37.288-7.664,50.792-21.248c13.504-13.552,20.864-31.512,20.744-50.56
		C311.752,48.352,279.504,16.64,240.008,16.64z"/>
</g>
<path d="M247.944,79.256l-7.792,0.104c-0.016,0-0.032,0-0.048,0c-4.384,0-7.976-3.608-8-8c-0.024-4.328,3.424-7.88,7.72-8.032
	c0.096,0,0.168,0.024,0.264,0.024c0.016,0,0.032,0,0.048,0c0.176,0,0.328-0.096,0.504-0.104l23.216-0.152
	c4.416-0.032,7.976-3.504,7.944-7.928c-0.032-4.4-3.6-7.816-8-7.816c-0.016,0-0.032,0-0.056,0l-15.712-0.024L248,40.968
	c-0.024-4.392-3.608-9.608-8-9.608c-0.016,0-0.032,0-0.048,0c-4.424,0-7.976,5.232-7.952,9.656l0.04,6.944
	c-9.312,3.352-16,12.656-15.936,23.104c0.08,13.184,10.84,24.296,24.008,24.296c0.048,0,0.104,0,0.152,0h7.792
	c0.024,0,0.04,0,0.056,0c2.12,0,4.112,0.744,5.624,2.224c1.512,1.504,2.36,3.472,2.376,5.6c0.032,4.416-3.536,8.008-7.952,8.032
	l-23.792,0.144c-4.424,0.032-7.976,3.624-7.952,8.048c0.024,4.4,3.608,7.944,8,7.944c0.016,0,0.032,0,0.048,0l7.592-0.048
	l0.032,6.504c0.024,4.4,3.608,9.544,8,9.544c0.016,0,0.032,0,0.048,0c4.416,0,7.976-5.16,7.944-9.576l-0.032-6.416h0.2
	c13.232,0,23.928-10.968,23.848-24.2S261.576,79.16,247.944,79.256z"/>
<path d="M25.376,220.56C11.384,220.56,0,208.632,0,193.96s11.384-26.6,25.376-26.6c14,0,25.384,11.928,25.384,26.6
	S39.376,220.56,25.376,220.56z M25.376,183.36c-5.168,0-9.376,4.76-9.376,10.6s4.208,10.6,9.376,10.6s9.384-4.76,9.384-10.6
	S30.552,183.36,25.376,183.36z"/>
<g>
	<path style="fill:#E98F98;" d="M163.272,471.36h-23.976c-10.408,0-18.048-9.784-15.52-19.88l11.024-44.12l56,16l-12.352,37.056
		C176.272,466.952,170.152,471.36,163.272,471.36z"/>
	<path style="fill:#E98F98;" d="M325.928,405.464l-56,16l12.352,36.112c2.184,6.528,8.296,13.784,15.184,13.784h23.976
		c10.408,0,18.048-12.632,15.52-22.728L325.928,405.464z"/>
	<path style="fill:#E98F98;" d="M225.416,209.048c-20.52,0-40.056,1.872-58.048,5.736l0.304-0.144l-35.144-29.656
		c-6.352-5.36-15.752-4.968-21.632,0.912l-8.776,8.776c-3,3-4.688,7.072-4.688,11.312l6.16,41.376c0,0-21.168,14.496-30.632,40
		h-7.528c-8.84,0-16,7.16-16,16v34.952c0,5.064,2.4,9.824,6.456,12.848l40.04,22.2c24,34.28,71.168,56,130.992,56
		c87.784,0,158.192-40.016,158.192-110.16S313.2,209.048,225.416,209.048z"/>
</g>
<path d="M432,279.36c-4.424,0-8,3.576-8,8v16c0,13.232-10.768,24-24,24h-7.376c0.208-2.704,0.488-5.376,0.488-8.16
	c0-69.568-68.96-118.16-167.696-118.16c-19.696,0-38.336,1.696-55.48,5.04l-32.256-27.208c-9.608-8.128-23.56-7.528-32.448,1.368
	l-8.776,8.776c-4.528,4.528-7.024,10.552-7.024,16.968c0,0.4,0.024,0.792,0.088,1.176l5.472,36.736
	c-6.528,5.384-19.336,17.536-27.392,35.464h-2.168c-13.24,0-25.432,10.768-25.432,24v34.952c0,7.56,4.336,14.768,10.4,19.264
	c0.288,0.208,0.936,0.408,1.248,0.576l38.632,21.32c9.152,12.608,21.128,23.32,35.152,32.024l-9.464,38.032
	c-1.808,7.224-0.192,14.736,4.384,20.592c4.576,5.872,11.496,9.24,18.944,9.24h23.976c10.344,0,19.496-6.592,22.768-16.408
	l9.224-27.672c10.16,1.36,20.728,2.072,31.656,2.072c13.696,0,26.696-0.984,39.064-2.72l8.712,25.456
	c3.184,9.584,12.024,19.272,22.768,19.272h23.976c6.792,0,13.336-3.392,17.944-9.296c5.224-6.688,7.272-15.648,5.328-23.416
	l-8.832-34.576c28.488-16.368,47.568-39.992,54.392-68.712H400c22.056,0,40-17.944,40-40v-16C440,282.936,436.424,279.36,432,279.36
	z M170.856,457.888c-1.088,3.28-4.136,5.472-7.584,5.472h-23.976c-2.48,0-4.776-1.128-6.304-3.08
	c-1.528-1.952-2.056-4.456-1.456-6.864l8.496-34c11.952,5.68,25.128,10.064,39.296,13.08L170.856,457.888z M329.2,450.568
	c0.736,2.96-0.232,6.832-2.432,9.648c-0.912,1.176-2.824,3.144-5.328,3.144h-23.976c-2.176,0-6.048-3.712-7.6-8.384l-7.912-23.12
	c14.256-3,27.408-7.176,39.288-12.456L329.2,450.568z M226.912,421.36c-55.68,0-101.04-19.168-124.432-52.584
	c-0.696-1-1.616-1.824-2.672-2.416L59.6,344.464c-1.816-1.512-3.6-3.776-3.6-6.152V303.36c0-4.416,5.016-8,9.432-8h7.528
	c3.344,0,6.336-2.08,7.504-5.216c8.416-22.664,27.48-36.064,27.656-36.176c2.52-1.736,3.84-4.752,3.392-7.784l-6.064-40.688
	c0.12-1.952,0.936-3.776,2.328-5.168l8.784-8.776c2.96-2.968,7.616-3.168,10.816-0.456l33.36,28.152
	c1.784,2.656,5.056,4.072,8.312,3.352c17.192-3.688,36.16-5.552,56.376-5.552c104.792,0,151.696,51.304,151.696,102.16
	C377.112,389.776,301.672,421.36,226.912,421.36z"/>
<path d="M249.432,247.36h-40c-4.416,0-8-3.576-8-8s3.584-8,8-8h40c4.424,0,8,3.576,8,8
	C257.432,243.784,253.848,247.36,249.432,247.36z"/>
<circle style="fill:#F5BA46;" cx="355.84" cy="238.36" r="52.128"/>
<path d="M355.816,298.488c-33.16,0-60.128-26.968-60.128-60.128s26.968-60.128,60.128-60.128s60.136,26.968,60.136,60.128
	S388.968,298.488,355.816,298.488z M355.816,194.232c-24.328,0-44.128,19.8-44.128,44.128s19.8,44.128,44.128,44.128
	c24.336,0,44.136-19.8,44.136-44.128S380.152,194.232,355.816,194.232z"/>
<path d="M355.816,264.36c-2,0-3.944-0.752-5.44-2.128l-18.368-17c-3.24-3.008-3.44-8.072-0.44-11.312
	c3-3.248,8.064-3.44,11.312-0.44l11.176,10.352l14.968-24.632c2.296-3.776,7.216-4.976,10.992-2.68s4.976,7.216,2.68,10.992
	l-20.056,33c-1.248,2.048-3.352,3.44-5.728,3.768C356.552,264.336,356.176,264.36,355.816,264.36z"/>
<path d="M424,74.56c-4.424,0-8-3.576-8-8v-19.2c0-4.424,3.576-8,8-8s8,3.576,8,8v19.2C432,70.984,428.424,74.56,424,74.56z"/>
<path d="M424,151.36c-4.424,0-8-3.576-8-8v-19.2c0-4.424,3.576-8,8-8s8,3.576,8,8v19.2C432,147.784,428.424,151.36,424,151.36z"/>
<path d="M472,103.36h-19.2c-4.424,0-8-3.576-8-8s3.576-8,8-8H472c4.424,0,8,3.576,8,8S476.424,103.36,472,103.36z"/>
<path d="M395.2,103.36H376c-4.424,0-8-3.576-8-8s3.576-8,8-8h19.2c4.424,0,8,3.576,8,8S399.624,103.36,395.2,103.36z"/>
<path d="M457.936,137.296c-2.048,0-4.096-0.784-5.656-2.344l-13.568-13.568c-3.128-3.128-3.128-8.184,0-11.312s8.184-3.128,11.312,0
	l13.568,13.568c3.128,3.128,3.128,8.184,0,11.312C462.032,136.52,459.984,137.296,457.936,137.296z"/>
<path d="M403.632,82.992c-2.048,0-4.096-0.784-5.656-2.344L384.408,67.08c-3.128-3.128-3.128-8.184,0-11.312s8.184-3.128,11.312,0
	l13.568,13.568c3.128,3.128,3.128,8.184,0,11.312C407.728,82.208,405.68,82.992,403.632,82.992z"/>
<path d="M390.064,137.296c-2.048,0-4.096-0.784-5.656-2.344c-3.128-3.128-3.128-8.184,0-11.312l13.568-13.568
	c3.128-3.128,8.184-3.128,11.312,0s3.128,8.184,0,11.312l-13.568,13.568C394.16,136.52,392.112,137.296,390.064,137.296z"/>
<path d="M444.368,82.992c-2.048,0-4.096-0.784-5.656-2.344c-3.128-3.128-3.128-8.184,0-11.312l13.568-13.568
	c3.128-3.128,8.184-3.128,11.312,0s3.128,8.184,0,11.312l-13.568,13.568C448.464,82.208,446.416,82.992,444.368,82.992z"/>
<circle cx="132" cy="283.36" r="12"/>
<circle cx="200" cy="87.36" r="8"/>
<circle cx="288" cy="87.36" r="8"/>
</svg>