<svg xmlns="http://www.w3.org/2000/svg" width="200" height="200" viewBox="0 0 128 128"><path fill="#C62828" d="M12.53 53.05c-4.57.01-8.28 3.72-8.28 8.29v38.38a8.297 8.297 0 0 0 8.28 8.28h5.55V53l-5.55.05zm103.19 0c4.57.01 8.28 3.72 8.28 8.29v38.38c-.01 4.57-3.71 8.28-8.28 8.29h-5.55v-55l5.55.04z"></path><path fill="#90A4AE" d="m113.17 54.41l-.12-10c-.03-4.3-3.53-7.77-7.83-7.75H67.05V23.25c5.11-1.69 7.89-7.2 6.2-12.31c-1.69-5.11-7.2-7.89-12.31-6.2s-7.89 7.2-6.2 12.31a9.743 9.743 0 0 0 6.2 6.2v13.46H22.78c-4.28.01-7.75 3.47-7.78 7.75v71.78c.03 4.28 3.5 7.74 7.78 7.76h82.44c4.3.01 7.8-3.46 7.83-7.76v-7.37h.12V54.41z"></path><path fill="#C62828" d="M64 18c-2.21 0-4-1.79-4-4s1.79-4 4-4s4 1.79 4 4s-1.79 4-4 4z"></path><linearGradient id="notoRobot0" x1="64.005" x2="64.005" y1="22.44" y2="35.55" gradientTransform="matrix(1 0 0 -1 0 130)" gradientUnits="userSpaceOnUse"><stop offset=".12" stop-color="#E0E0E0"></stop><stop offset=".52" stop-color="#FFF"></stop><stop offset="1" stop-color="#EAEAEA"></stop></linearGradient><path fill="url(#notoRobot0)" d="M44.15 94.45h39.71c3.46 0 6.27 2.81 6.27 6.27v.57c0 3.46-2.81 6.27-6.27 6.27H44.15c-3.46 0-6.27-2.81-6.27-6.27v-.57c0-3.46 2.81-6.27 6.27-6.27z"></path><linearGradient id="notoRobot1" x1="54.85" x2="54.85" y1="22.44" y2="35.53" gradientTransform="matrix(1 0 0 -1 0 130)" gradientUnits="userSpaceOnUse"><stop offset="0" stop-color="#333"></stop><stop offset=".55" stop-color="#666"></stop><stop offset="1" stop-color="#333"></stop></linearGradient><path fill="url(#notoRobot1)" d="M53.67 94.47h2.36v13.09h-2.36z"></path><linearGradient id="notoRobot2" x1="64.06" x2="64.06" y1="22.44" y2="35.53" gradientTransform="matrix(1 0 0 -1 0 130)" gradientUnits="userSpaceOnUse"><stop offset="0" stop-color="#333"></stop><stop offset=".55" stop-color="#666"></stop><stop offset="1" stop-color="#333"></stop></linearGradient><path fill="url(#notoRobot2)" d="M62.88 94.47h2.36v13.09h-2.36z"></path><linearGradient id="notoRobot3" x1="73.15" x2="73.15" y1="22.44" y2="35.53" gradientTransform="matrix(1 0 0 -1 0 130)" gradientUnits="userSpaceOnUse"><stop offset="0" stop-color="#333"></stop><stop offset=".55" stop-color="#666"></stop><stop offset="1" stop-color="#333"></stop></linearGradient><path fill="url(#notoRobot3)" d="M71.97 94.47h2.36v13.09h-2.36z"></path><linearGradient id="notoRobot4" x1="82.8" x2="82.8" y1="22.44" y2="35.53" gradientTransform="matrix(1 0 0 -1 0 130)" gradientUnits="userSpaceOnUse"><stop offset="0" stop-color="#333"></stop><stop offset=".55" stop-color="#666"></stop><stop offset="1" stop-color="#333"></stop></linearGradient><path fill="url(#notoRobot4)" d="M81.62 94.47h2.36v13.09h-2.36z"></path><linearGradient id="notoRobot5" x1="45.2" x2="45.2" y1="22.46" y2="35.55" gradientTransform="matrix(1 0 0 -1 0 130)" gradientUnits="userSpaceOnUse"><stop offset="0" stop-color="#333"></stop><stop offset=".55" stop-color="#666"></stop><stop offset="1" stop-color="#333"></stop></linearGradient><path fill="url(#notoRobot5)" d="M44.02 94.45h2.36v13.09h-2.36z"></path><path fill="#C62828" d="M64 85.33h-5.33c-.55 0-1-.45-1-1c0-.16.04-.31.11-.45l2.74-5.41l2.59-4.78a.996.996 0 0 1 1.76 0l2.61 5l2.71 5.19c.25.49.06 1.09-.43 1.35c-.14.07-.29.11-.45.11L64 85.33z"></path><radialGradient id="notoRobot6" cx="42.64" cy="63.19" r="11.5" gradientTransform="matrix(1 0 0 -1 0 130)" gradientUnits="userSpaceOnUse"><stop offset=".48" stop-color="#FFF"></stop><stop offset=".77" stop-color="#FDFDFD"></stop><stop offset=".88" stop-color="#F6F6F6"></stop><stop offset=".96" stop-color="#EBEBEB"></stop><stop offset="1" stop-color="#E0E0E0"></stop></radialGradient><circle cx="42.64" cy="66.81" r="11.5" fill="url(#notoRobot6)"></circle><linearGradient id="notoRobot7" x1="30.14" x2="55.14" y1="63.19" y2="63.19" gradientTransform="matrix(1 0 0 -1 0 130)" gradientUnits="userSpaceOnUse"><stop offset="0" stop-color="#333"></stop><stop offset=".55" stop-color="#666"></stop><stop offset="1" stop-color="#333"></stop></linearGradient><circle cx="42.64" cy="66.81" r="11.5" fill="none" stroke="url(#notoRobot7)" stroke-miterlimit="10" stroke-width="2"></circle><radialGradient id="notoRobot8" cx="84.95" cy="63.22" r="11.5" gradientTransform="matrix(1 0 0 -1 0 130)" gradientUnits="userSpaceOnUse"><stop offset=".48" stop-color="#FFF"></stop><stop offset=".77" stop-color="#FDFDFD"></stop><stop offset=".88" stop-color="#F6F6F6"></stop><stop offset=".96" stop-color="#EBEBEB"></stop><stop offset="1" stop-color="#E0E0E0"></stop></radialGradient><path fill="url(#notoRobot8)" d="M85 55.28c-6.35 0-11.5 5.15-11.5 11.5s5.15 11.5 11.5 11.5s11.5-5.15 11.5-11.5c-.01-6.35-5.15-11.49-11.5-11.5z"></path><linearGradient id="notoRobot9" x1="72.45" x2="97.45" y1="63.22" y2="63.22" gradientTransform="matrix(1 0 0 -1 0 130)" gradientUnits="userSpaceOnUse"><stop offset="0" stop-color="#333"></stop><stop offset=".55" stop-color="#666"></stop><stop offset="1" stop-color="#333"></stop></linearGradient><path fill="none" stroke="url(#notoRobot9)" stroke-miterlimit="10" stroke-width="2" d="M85 55.28c-6.35 0-11.5 5.15-11.5 11.5s5.15 11.5 11.5 11.5s11.5-5.15 11.5-11.5c-.01-6.35-5.15-11.49-11.5-11.5z"></path></svg>
