<?xml version="1.0" encoding="iso-8859-1"?>
<!-- Uploaded to: SVG Repo, www.svgrepo.com, Generator: SVG Repo Mixer Tools -->
<svg height="800px" width="800px" version="1.1" id="Layer_1" xmlns="http://www.w3.org/2000/svg" xmlns:xlink="http://www.w3.org/1999/xlink" 
	 viewBox="0 0 480 480" xml:space="preserve">
<path style="fill:#F5BA46;" d="M473.432,376c0,17.672-14.328,32-32,32h-192c-17.672,0-32-14.328-32-32v-16c0-17.672,14.328-32,32-32
	h192c17.672,0,32,14.328,32,32V376z"/>
<path d="M480,360c0-22.088-17.912-40-40-40H248c-22.088,0-40,17.912-40,40v16c0,22.088,17.912,40,40,40h192
	c22.088,0,40-17.912,40-40V360z M464,376c0,10.416-8,19.216-16,22.528V376c0-4.416-3.584-8-8-8s-8,3.584-8,8v24h-16v-24
	c0-4.416-3.584-8-8-8s-8,3.584-8,8v24h-16v-24c0-4.416-3.584-8-8-8s-8,3.584-8,8v24h-16v-24c0-4.416-3.584-8-8-8s-8,3.584-8,8v24
	h-16v-24c0-4.416-3.584-8-8-8s-8,3.584-8,8v24h-16v-24c0-4.416-3.584-8-8-8s-8,3.584-8,8v24h-16v-24c0-4.416-3.584-8-8-8
	s-8,3.584-8,8v22.528c-8-3.312-16-12.112-16-22.528v-16c0-13.232,12.192-24,25.432-24h192C454.664,336,464,346.768,464,360V376z"/>
<path style="fill:#F5BA46;" d="M472,56c0,17.672-14.328,32-32,32H248c-17.672,0-32-14.328-32-32V40c0-17.672,14.328-32,32-32h192
	c17.672,0,32,14.328,32,32V56z"/>
<path d="M440,0H248c-22.056,0-40,17.944-40,40v16c0,22.056,17.944,40,40,40h192c22.056,0,40-17.944,40-40V40
	C480,17.944,462.056,0,440,0z M464,56c0,10.416-6.712,19.216-16,22.528V56c0-4.416-3.584-8-8-8s-8,3.584-8,8v24h-16V56
	c0-4.416-3.584-8-8-8s-8,3.584-8,8v24h-16V56c0-4.416-3.584-8-8-8s-8,3.584-8,8v24h-16V56c0-4.416-3.584-8-8-8s-8,3.584-8,8v24h-16
	V56c0-4.416-3.584-8-8-8s-8,3.584-8,8v24h-16V56c0-4.416-3.584-8-8-8s-8,3.584-8,8v24h-16V56c0-4.416-3.584-8-8-8s-8,3.584-8,8
	v22.528c-9.288-3.312-16-12.112-16-22.528V40c0-13.232,10.768-24,24-24h192c13.232,0,24,10.768,24,24V56z"/>
<path style="fill:#F5BA46;" d="M472,216c0,17.672-14.328,32-32,32H248c-17.672,0-32-14.328-32-32v-16c0-17.672,14.328-32,32-32h192
	c17.672,0,32,14.328,32,32V216z"/>
<path d="M440,160H248c-22.056,0-40,17.944-40,40v16c0,22.056,17.944,40,40,40h192c22.056,0,40-17.944,40-40v-16
	C480,177.944,462.056,160,440,160z M464,216c0,10.416-6.712,19.216-16,22.528V216c0-4.416-3.584-8-8-8s-8,3.584-8,8v24h-16v-24
	c0-4.416-3.584-8-8-8s-8,3.584-8,8v24h-16v-24c0-4.416-3.584-8-8-8s-8,3.584-8,8v24h-16v-24c0-4.416-3.584-8-8-8s-8,3.584-8,8v24
	h-16v-24c0-4.416-3.584-8-8-8s-8,3.584-8,8v24h-16v-24c0-4.416-3.584-8-8-8s-8,3.584-8,8v24h-16v-24c0-4.416-3.584-8-8-8
	s-8,3.584-8,8v22.528c-9.288-3.312-16-12.112-16-22.528v-16c0-13.232,10.768-24,24-24h192c13.232,0,24,10.768,24,24V216z"/>
<path style="fill:#F5BA46;" d="M424,136c0,17.672-14.328,32-32,32H200c-17.672,0-32-14.328-32-32v-16c0-17.672,14.328-32,32-32h192
	c17.672,0,32,14.328,32,32V136z"/>
<path d="M392,80H200c-22.056,0-40,17.944-40,40v16c0,22.056,17.944,40,40,40h192c22.056,0,40-17.944,40-40v-16
	C432,97.944,414.056,80,392,80z M416,136c0,10.416-6.712,19.216-16,22.528V136c0-4.416-3.584-8-8-8s-8,3.584-8,8v24h-16v-24
	c0-4.416-3.584-8-8-8s-8,3.584-8,8v24h-16v-24c0-4.416-3.584-8-8-8s-8,3.584-8,8v24h-16v-24c0-4.416-3.584-8-8-8s-8,3.584-8,8v24
	h-16v-24c0-4.416-3.584-8-8-8s-8,3.584-8,8v24h-16v-24c0-4.416-3.584-8-8-8s-8,3.584-8,8v24h-16v-24c0-4.416-3.584-8-8-8
	s-8,3.584-8,8v22.528c-9.288-3.312-16-12.112-16-22.528v-16c0-13.232,10.768-24,24-24h192c13.232,0,24,10.768,24,24V136z"/>
<path style="fill:#F5BA46;" d="M425.432,296c0,17.672-14.328,32-32,32h-192c-17.672,0-32-14.328-32-32v-16c0-17.672,14.328-32,32-32
	h192c17.672,0,32,14.328,32,32V296z"/>
<path d="M432,280c0-22.088-17.912-40-40-40H200c-22.088,0-40,17.912-40,40v16c0,22.088,17.912,40,40,40h192
	c22.088,0,40-17.912,40-40V280z M416,296c0,10.416-8,19.216-16,22.528V296c0-4.416-3.584-8-8-8s-8,3.584-8,8v24h-16v-24
	c0-4.416-3.584-8-8-8s-8,3.584-8,8v24h-16v-24c0-4.416-3.584-8-8-8s-8,3.584-8,8v24h-16v-24c0-4.416-3.584-8-8-8s-8,3.584-8,8v24
	h-16v-24c0-4.416-3.584-8-8-8s-8,3.584-8,8v24h-16v-24c0-4.416-3.584-8-8-8s-8,3.584-8,8v24h-16v-24c0-4.416-3.584-8-8-8
	s-8,3.584-8,8v22.528c-8-3.312-16-12.112-16-22.528v-16c0-13.232,12.192-24,25.432-24h192C406.664,256,416,266.768,416,280V296z"/>
<ellipse style="fill:#F5BA46;" cx="171.712" cy="309.016" rx="163.712" ry="162.984"/>
<path d="M171.712,480C77.032,480,0,403.296,0,309.008c0-94.28,77.032-170.984,171.712-170.984s171.712,76.704,171.712,170.984
	C343.432,403.296,266.4,480,171.712,480z M171.712,154.024C85.848,154.024,16,223.552,16,309.008C16,394.472,85.848,464,171.712,464
	s155.712-69.528,155.712-154.992C327.432,223.552,257.576,154.024,171.712,154.024z"/>
<circle style="fill:#F9D690;" cx="170.16" cy="311.296" r="104.72"/>
<path d="M170.16,424c-62.152,0-112.704-50.56-112.704-112.704s50.56-112.704,112.704-112.704s112.704,50.56,112.704,112.704
	S232.312,424,170.16,424z M170.16,214.584c-53.328,0-96.704,43.384-96.704,96.704S116.832,408,170.16,408
	s96.704-43.384,96.704-96.704S223.488,214.584,170.16,214.584z"/>
<path d="M177.432,368c-4.416,0-8-3.584-8-8v-79.464L158.6,292.328c-2.992,3.248-8.04,3.48-11.304,0.48
	c-3.256-2.992-3.464-8.048-0.48-11.304l24.72-26.904c2.232-2.424,5.728-3.232,8.8-2.04s5.096,4.16,5.096,7.456V360
	C185.432,364.416,181.848,368,177.432,368z"/>
<circle cx="120" cy="312" r="8"/>
<circle cx="216" cy="312" r="8"/>
<path d="M176,16h-8V8c0-4.416-3.584-8-8-8s-8,3.584-8,8v8h-8c-4.416,0-8,3.584-8,8s3.584,8,8,8h8v8c0,4.416,3.584,8,8,8s8-3.584,8-8
	v-8h8c4.416,0,8-3.584,8-8S180.416,16,176,16z"/>
<path d="M56,59.2c-4.416,0-8-3.584-8-8V32c0-4.416,3.584-8,8-8s8,3.584,8,8v19.2C64,55.616,60.416,59.2,56,59.2z"/>
<path d="M56,131.2c-4.416,0-8-3.584-8-8V104c0-4.416,3.584-8,8-8s8,3.584,8,8v19.2C64,127.616,60.416,131.2,56,131.2z"/>
<path d="M105.6,88H88c-4.416,0-8-3.584-8-8s3.584-8,8-8h17.6c4.416,0,8,3.584,8,8S110.016,88,105.6,88z"/>
<path d="M25.6,88H8c-4.416,0-8-3.584-8-8s3.584-8,8-8h17.6c4.416,0,8,3.584,8,8S30.016,88,25.6,88z"/>
<path d="M91.12,120c-2.168,0-4.328-0.872-5.904-2.592l-12.448-13.576c-2.984-3.256-2.768-8.32,0.496-11.304
	c3.256-2.984,8.32-2.76,11.304,0.496L97.016,106.6c2.984,3.256,2.768,8.32-0.496,11.304C94.984,119.304,93.048,120,91.12,120z"/>
<path d="M32,65.696c-2.168,0-4.328-0.872-5.904-2.592L13.656,49.52c-2.984-3.256-2.768-8.32,0.496-11.304
	c3.256-2.992,8.32-2.752,11.304,0.496l12.448,13.576c2.984,3.256,2.768,8.32-0.496,11.304C35.872,65,33.936,65.696,32,65.696z"/>
<path d="M19.552,120c-1.928,0-3.864-0.696-5.4-2.104c-3.256-2.992-3.48-8.048-0.496-11.304l12.448-13.576
	c2.992-3.256,8.04-3.48,11.304-0.496c3.256,2.992,3.48,8.048,0.496,11.304L25.456,117.4C23.872,119.128,21.712,120,19.552,120z"/>
<path d="M78.664,65.696c-1.928,0-3.864-0.696-5.4-2.104c-3.256-2.984-3.48-8.048-0.496-11.304l12.448-13.576
	c2.984-3.24,8.048-3.48,11.304-0.496c3.256,2.984,3.48,8.048,0.488,11.304L84.56,63.096C82.992,64.824,80.832,65.696,78.664,65.696z
	"/>
</svg>