<?xml version="1.0" encoding="iso-8859-1"?>
<!-- Uploaded to: SVG Repo, www.svgrepo.com, Generator: SVG Repo Mixer Tools -->
<svg height="800px" width="800px" version="1.1" id="Layer_1" xmlns="http://www.w3.org/2000/svg" xmlns:xlink="http://www.w3.org/1999/xlink" 
	 viewBox="0 0 480 480" xml:space="preserve">
<g>
	<path style="fill:#808080;" d="M346.248,252.904c0-63.24-50.864-114.736-113.808-115.96c-0.384-0.016-0.752-0.112-1.144-0.112
		c-0.128,0-0.248,0.04-0.376,0.04c-0.248,0-0.488-0.04-0.744-0.04c-64,0-116.072,52.072-116.072,116.072
		s52.072,116.064,116.072,116.064c0.248,0,0.496-0.04,0.744-0.04c0.128,0,0.248,0.04,0.376,0.04c0.384,0,0.76-0.096,1.144-0.112
		C295.392,367.632,346.248,316.136,346.248,252.904z M231.944,352.88c-0.32,0.008-0.624,0.048-0.944,0.048
		c-14.296-0.352-29.752-25.688-35.752-64.928h72.104C261.392,326.92,246.144,352.136,231.944,352.88z M193.392,272
		c-0.48-6.136-0.776-12.48-0.776-19.096c0-7.256,0.312-14.232,0.888-20.904h75.568c0.576,6.672,0.888,13.648,0.888,20.904
		c0,6.616-0.288,12.968-0.776,19.096H193.392z M130.112,252.904c0-7.168,0.792-14.152,2.232-20.904h45.144
		c-0.536,6.76-0.864,13.712-0.864,20.904c0,6.552,0.296,12.896,0.736,19.096h-45.376
		C130.784,265.808,130.112,259.44,130.112,252.904z M231,152.872c0.32,0,0.632,0.04,0.944,0.048
		c13.976,0.736,28.976,25.184,35.12,63.08H195.52C201.72,177.792,216.92,153.216,231,152.872z M285.112,232h42.904
		c1.44,6.744,2.232,13.728,2.232,20.904c0,6.536-0.672,12.912-1.88,19.096h-43.136c0.448-6.2,0.736-12.544,0.736-19.096
		C285.976,245.712,285.648,238.76,285.112,232z M323.112,216h-39.784c-3.472-23.496-10.248-43.224-19.28-57.144
		C290.976,168.584,312.544,189.488,323.112,216z M199.224,157.792c-9.376,13.96-16.4,34.12-19.96,58.208h-42.016
		C148.2,188.528,170.936,167.016,199.224,157.792z M136.584,288h42.384c3.472,24.896,10.64,45.696,20.256,60.016
		C170.328,338.584,147.248,316.328,136.584,288z M264.048,346.944c9.264-14.28,16.184-34.64,19.568-58.944h40.152
		C313.472,315.36,291.576,336.992,264.048,346.944z"/>
	<path style="fill:#808080;" d="M236.56,426.016c-0.144-4.248,3.008-7.864,7.04-8.064c4.048-0.056,7.704,2.456,8.296,6.792
		c0.568,4.088-2.504,8.456-6.992,8.552C240.44,433.536,236.696,430.272,236.56,426.016z"/>
	<path style="fill:#808080;" d="M205.352,424.568c0.616-4.28,4.32-6.968,8.344-6.672c4.032,0.192,7.16,3.808,6.984,8.056
		c-0.176,4.248-3.936,7.52-8.4,7.28C207.816,432.896,204.744,428.704,205.352,424.568z"/>
	<path style="fill:#808080;" d="M174.872,417.64c1.344-3.984,5.512-6.128,9.456-5.256c3.904,1,6.32,5.184,5.392,9.336
		c-0.928,4.152-5.192,6.616-9.536,5.504C175.816,426.232,173.504,421.72,174.872,417.64z"/>
	<path style="fill:#808080;" d="M146.12,405.36c2.056-3.72,6.68-5.328,10.312-3.584c3.632,1.752,5.224,6.352,3.568,10.272
		s-6.28,5.528-10.312,3.584C145.656,413.68,144.056,409.08,146.12,405.36z"/>
	<path style="fill:#808080;" d="M120.136,387.952c2.688-3.296,7.496-4.016,10.728-1.6c3.224,2.424,3.944,7.28,1.664,10.744
		c-2.392,3.648-7.192,4.36-10.776,1.68C118.16,396.104,117.44,391.256,120.136,387.952z"/>
	<path style="fill:#808080;" d="M97.648,366.248c3.232-2.768,8.056-2.592,10.768,0.392c2.616,3.088,2.736,7.704-0.192,10.792
		c-2.928,3.088-8.064,3.224-10.984-0.184C94.232,373.944,94.416,369.008,97.648,366.248z"/>
	<path style="fill:#808080;" d="M79.36,340.904c3.672-2.144,8.352-1.096,10.44,2.36c2.056,3.472,1.504,7.952-2.016,10.52
		c-3.344,2.464-8.568,1.776-10.872-2.064C74.592,347.896,75.688,343.056,79.36,340.904z"/>
	<path style="fill:#808080;" d="M65.88,312.728c4.008-1.456,8.352,0.44,9.752,4.224c1.76,3.632,0.072,8.08-3.752,9.944
		S63.376,327,61.44,322.96C59.872,318.768,61.888,314.176,65.88,312.728z"/>
	<path style="fill:#808080;" d="M57.632,282.592c4.312-0.736,7.808,2,8.992,5.872c1.008,3.904-1.504,8-5.6,9.144
		s-8.328-1.44-9.44-5.776C50.312,287.52,53.552,283.28,57.632,282.592z"/>
	<path style="fill:#808080;" d="M54.8,251.456c4.16,0.048,7.856,3.352,8.04,7.376c0.208,4.032-3.072,7.616-7.312,8.008
		s-7.864-2.912-8.088-7.376C47.24,254.992,50.448,251.408,54.8,251.456z"/>
	<path style="fill:#808080;" d="M57.776,220.328c4.176,0.8,7.08,4.68,6.472,8.664c-0.664,3.984-4.512,6.928-8.648,6.576
		c-4.344-0.368-7.336-4.264-6.616-8.68C49.656,222.464,53.6,219.528,57.776,220.328z"/>
	<path style="fill:#808080;" d="M237.528,77.912c-0.232,4.248-3.688,7.528-7.72,7.312c-4.032,0.088-7.464-3.096-7.664-7.376
		c-0.208-4.224,3.256-7.936,7.72-8.032C234.328,70.032,237.76,73.664,237.528,77.912z"/>
	<path style="fill:#808080;" d="M268.488,82.088c-1.008,4.232-4.904,6.44-8.928,6c-3.984-0.6-6.768-4.52-6.224-8.736
		c0.552-4.216,4.584-7.096,9.008-6.416C266.808,73.456,269.456,78.04,268.488,82.088z"/>
	<path style="fill:#808080;" d="M298.224,91.728c-1.672,3.792-6.12,5.8-9.92,4.448c-3.784-1.384-5.8-5.8-4.504-9.848
		s5.76-6.096,9.968-4.552C297.992,83.288,299.984,87.736,298.224,91.728z"/>
	<path style="fill:#808080;" d="M325.712,106.648c-2.384,3.52-7.12,4.688-10.56,2.6c-3.448-2.096-4.608-6.84-2.608-10.6
		c2.008-3.752,6.736-4.92,10.56-2.6C326.936,98.376,328.096,103.128,325.712,106.648z"/>
	<path style="fill:#808080;" d="M350.04,126.28c-2.976,3.04-7.808,3.312-10.792,0.6c-2.92-2.792-3.328-7.544-0.736-10.808
		c2.696-3.4,7.672-3.84,10.92-0.752C352.744,118.328,353.016,123.24,350.04,126.28z"/>
	<path style="fill:#808080;" d="M370.512,149.896c-3.464,2.464-8.24,1.848-10.648-1.384c-2.288-3.336-2.152-7.824,1.112-10.696
		c3.12-2.752,8.4-2.552,10.968,1.12C374.616,142.52,373.976,147.432,370.512,149.896z"/>
	<path style="fill:#808080;" d="M386.464,176.76c-3.856,1.808-8.392,0.328-10.136-3.304c-1.912-3.544-0.792-8.048,2.888-10.272
		c3.6-2.176,8.576-0.936,10.696,3C391.864,170.216,390.312,174.952,386.464,176.76z"/>
	<path style="fill:#808080;" d="M397.368,206.032c-4.176,1.104-8.12-1.248-9.4-5.064c-1.392-3.784,0.712-8.08,4.688-9.584
		c3.976-1.512,8.448,0.672,9.984,4.88C404.056,200.512,401.416,204.968,397.368,206.032z"/>
	<path style="fill:#808080;" d="M402.912,236.792c-4.192,0.328-7.784-2.672-8.528-6.648c-0.616-3.984,2.296-7.84,6.48-8.616
		c4.184-0.768,8.128,2.192,8.8,6.616C410.456,232.56,407.2,236.456,402.912,236.792z"/>
</g>
<path d="M440,64h-16V48c0-4.416-3.584-8-8-8s-8,3.584-8,8v16h-16c-4.416,0-8,3.584-8,8s3.584,8,8,8h16v16c0,4.416,3.584,8,8,8
	s8-3.584,8-8V80h16c4.416,0,8-3.584,8-8S444.416,64,440,64z"/>
<path d="M72,416H56v-16c0-4.416-3.584-8-8-8s-8,3.584-8,8v16H24c-4.416,0-8,3.584-8,8s3.584,8,8,8h16v16c0,4.416,3.584,8,8,8
	s8-3.584,8-8v-16h16c4.416,0,8-3.584,8-8S76.416,416,72,416z"/>
<circle style="fill:#F5BA46;" cx="104" cy="104" r="96"/>
<path d="M104,208C46.656,208,0,161.344,0,104S46.656,0,104,0s104,46.656,104,104S161.344,208,104,208z M104,16
	c-48.52,0-88,39.48-88,88s39.48,88,88,88s88-39.48,88-88S152.52,16,104,16z"/>
<path d="M104,104h-8c-4.408,0-8-7.592-8-12v-4c0-4.408,3.592-8,8-8h24c4.416,0,8-3.584,8-8s-3.584-8-8-8h-16v-8c0-4.416-3.584-8-8-8
	s-8,3.584-8,8v9.472C78.712,68.784,72,77.584,72,88v4c0,13.232,10.768,28,24,28h8c4.408,0,8-0.408,8,4v4c0,4.408-3.592,8-8,8H78.576
	c-4.416,0-8,3.584-8,8s3.584,8,8,8H88v8c0,4.416,3.584,8,8,8s8-3.584,8-8v-8c13.232,0,24-10.768,24-24v-4
	C128,110.768,117.232,104,104,104z"/>
<circle cx="48" cy="104" r="8"/>
<circle cx="152" cy="104" r="8"/>
<circle style="fill:#34B095;" cx="376" cy="376" r="96"/>
<path d="M376,480c-57.344,0-104-46.656-104-104s46.656-104,104-104s104,46.656,104,104S433.344,480,376,480z M376,288
	c-48.52,0-88,39.48-88,88s39.48,88,88,88s88-39.48,88-88S424.52,288,376,288z"/>
<circle cx="320" cy="376" r="8"/>
<circle cx="432" cy="376" r="8"/>
<path d="M392,368c4.416,0,8-3.584,8-8s-3.584-8-8-8h-22.528c3.312-9.288,12.112-16,22.528-16c4.416,0,8-3.584,8-8s-3.584-8-8-8
	c-19.312,0-35.472,13.768-39.192,32H344c-4.416,0-8,3.584-8,8s3.584,8,8,8h8v16h-8c-4.416,0-8,3.584-8,8s3.584,8,8,8h8.808
	c3.72,18.232,19.872,32,39.192,32c4.416,0,8-3.584,8-8s-3.584-8-8-8c-10.416,0-19.216-6.712-22.528-16H392c4.416,0,8-3.584,8-8
	s-3.584-8-8-8h-24v-16H392z"/>
</svg>