<?xml version="1.0" ?>
<!DOCTYPE svg  PUBLIC '-//W3C//DTD SVG 1.1//EN'  'http://www.w3.org/Graphics/SVG/1.1/DTD/svg11.dtd'>
<!-- Uploaded to: SVG Repo, www.svgrepo.com, Generator: SVG Repo Mixer Tools -->
<svg width="800px" height="800px" viewBox="0 0 16666.66 16666.66" style="shape-rendering:geometricPrecision; text-rendering:geometricPrecision; image-rendering:optimizeQuality; fill-rule:evenodd; clip-rule:evenodd" version="1.1" xml:space="preserve" xmlns="http://www.w3.org/2000/svg" xmlns:xlink="http://www.w3.org/1999/xlink" xmlns:xodm="http://www.corel.com/coreldraw/odm/2003">
<defs>
<style type="text/css">
   <![CDATA[
    .fil0 {fill:none}
    .fil2 {fill:black;fill-rule:nonzero}
    .fil4 {fill:#ACD4F7;fill-rule:nonzero}
    .fil3 {fill:#DEDEDE;fill-rule:nonzero}
    .fil1 {fill:white;fill-rule:nonzero}
   ]]>
  </style>
</defs>
<g id="Layer_x0020_1">
<rect class="fil0" height="16666.66" width="16666.66" x="-0" y="-0"/>
<g id="_1316253524592">
<polygon class="fil1" points="1169.33,8970.82 2498.11,8970.82 2498.11,3491.03 1169.33,3491.03 "/>
<path class="fil2" d="M1264.22 8875.89l1138.96 0 0 -5289.93 -1138.96 0 0 5289.93zm1233.86 189.83l-1328.76 0c-52.35,0 -94.81,-42.55 -94.81,-94.9l0 -5479.75c0,-52.35 42.46,-94.9 94.81,-94.9l1328.76 0c52.35,0 94.81,42.55 94.81,94.9l0 5479.75c0,52.35 -42.46,94.9 -94.81,94.9z"/>
<polygon class="fil1" points="4016.55,7152.48 5344.72,7152.48 5344.72,1672.76 4016.55,1672.76 "/>
<path class="fil2" d="M4111.44 7057.46l1138.72 0 0 -5289.8 -1138.72 0 0 5289.8zm1233.3 189.83l-1328.32 0c-52.35,0 -94.9,-42.45 -94.9,-94.8l0 -5479.72c0,-52.38 42.55,-94.9 94.9,-94.9l1328.32 0c52.35,0 94.9,42.52 94.9,94.9l0 5479.72c0,52.35 -42.55,94.8 -94.9,94.8z"/>
<polygon class="fil1" points="6911.2,8184.86 8239.84,8184.86 8239.84,2705.2 6911.2,2705.2 "/>
<path class="fil2" d="M7006.1 8089.96l1138.84 0 0 -5289.83 -1138.84 0 0 5289.83zm1233.74 189.8l-1328.63 0c-52.38,0 -94.9,-42.55 -94.9,-94.9l0 -5479.63c0,-52.47 42.52,-94.9 94.9,-94.9l1328.63 0c52.35,0 94.9,42.43 94.9,94.9l0 5479.63c0,52.35 -42.55,94.9 -94.9,94.9z"/>
<path class="fil1" d="M3563.08 10460.03c2580.15,28.69 5159.99,57.36 7740.92,86.06 707.98,7.88 1424.65,14.84 2112.96,-150.53 688.35,-165.28 1357.02,-523.5 1754.09,-1109.83 397.06,-586.3 462.52,-1422.79 40.35,-1991.31 -339.24,-457.82 -941.37,-676.87 -1509.71,-639.8 -569.42,36.98 -787.6,176.41 -1233.74,531.91 101.45,-324.21 171.24,-499.72 143.97,-888.16 -27.28,-388.56 -221.43,-750.62 -475.61,-1045.05 -668.68,-771.31 -1798.79,-1107.3 -2779.47,-826.07 -980.65,281.2 -1761.69,1164.91 -1919.85,2173.04 -259.65,-999.97 -1517.38,-1562.83 -2473.5,-1172.54 -956.56,390.2 -1470.01,1573.44 -1195.67,2569.48 -225.14,-431.32 -771.86,-634.63 -1249.32,-540.6 -477.37,94 -877.92,439.49 -1131.76,854.55 -139.21,227.68 -242.61,491.53 -211.85,756.62 50.62,437.42 442.98,752.44 835.47,951.95 622.54,316.48 1324.83,437.79 1552.72,440.29z"/>
<path class="fil2" d="M3564.04 10365.1l7741.07 85.99c691.59,7.85 1408.26,15.8 2088.96,-147.83 749.39,-179.75 1352.63,-560.02 1698.43,-1070.75 398.14,-587.85 415.61,-1379.16 42.55,-1881.61 -303.25,-408.63 -849.79,-639.02 -1426.81,-601.61 -539.98,35.03 -741.78,160.91 -1181.39,511.41 -31.63,26.07 -78.54,27.7 -112.37,4.15 -34.91,-23.56 -49.07,-66.89 -37.07,-106.68l25.07 -78.54c86.18,-272.17 138.53,-436.58 114.54,-774.62 -29.44,-419.88 -262.9,-769.91 -452.69,-989.52 -640.32,-738.59 -1742.09,-1066.39 -2681.29,-796.97 -939.21,269.23 -1700.62,1131.2 -1852.26,2096.51 -6.52,44.41 -43.63,77.89 -88.34,80.06 -44.71,2.84 -86.18,-27.28 -97.09,-70.91 -110.17,-426.19 -428.7,-798.18 -872.67,-1020.69 -474.52,-238.03 -1025.39,-270.87 -1473.41,-87.94 -885.1,361.2 -1407.3,1486.06 -1139.92,2456.37 12.77,46.79 -11.66,95.76 -56.71,113.55 -45.06,18 -96.54,-1.3 -119.02,-44.41 -193.5,-370.87 -686.8,-582.28 -1146.69,-491.41 -414.31,81.57 -803.96,377.21 -1069.24,810.92 -155.78,254.82 -222.67,489.15 -198.54,696.17 48.64,421.3 453.34,710.26 784.32,878.48 587.07,298.45 1273.66,427.27 1510.58,429.87zm8189.4 279.19c-151.64,0 -301.08,-1.67 -450.52,-3.28l-7740.95 -86.09c-226.87,-2.5 -943.35,-119.54 -1594.59,-450.53 -372.3,-189.36 -828.48,-520.87 -886.86,-1025.82 -29,-250.25 46.81,-525.02 225.26,-816.92 292.89,-479 728.26,-806.37 1194.37,-898.21 405.78,-80.09 822.48,35 1107.08,282.53 -92.27,-967.38 447.68,-1950.1 1320.38,-2306.16 497.84,-203.34 1107.64,-168.21 1630.15,94.03 383.95,192.21 682.87,487.04 855.19,834.17 260.73,-913.05 998.15,-1668.55 1917.72,-1932.01 1023.19,-293.32 2179.5,50.31 2876.53,855.23 209.46,241.41 465.8,628.23 498.52,1100.43 19.63,276.44 -7.64,450.87 -58.91,637.51 324,-236.83 567.26,-337.94 1048.3,-369.27 642.52,-41.99 1251.21,218.06 1592.65,677.96 419.98,564.96 403.62,1448.55 -38.19,2101.11 -371.98,549.97 -1015.59,957.92 -1810.79,1148.83 -555.22,133.33 -1124.65,156.46 -1685.35,156.46z"/>
<path class="fil3" d="M7697.69 10605.21c-14.19,0 -27.28,-1.61 -39.27,-4.83l174.52 1.98c-43.63,1.02 -87.26,1.89 -130.89,2.85 -1.08,0 -2.17,0 -4.36,0z"/>
<path class="fil3" d="M11752.34 10454.47c-149.44,0 -298.89,-1.64 -447.22,-3.37l-3768.87 -41.81c0,-3.99 1.08,-7.85 2.16,-11.75 -109.06,1.73 -218.15,4.67 -326.16,8.16l-3038.41 -33.83c-95.46,-7.3 -190.91,-15.24 -286.46,-20.41 -228.98,-4.48 -458.94,-2.04 -685.72,-39.24 -129.16,-25.45 -258.75,-54.54 -388.87,-85.31 -243.04,-68.96 -510.2,-165.03 -759.34,-291.68 -96.66,-49.14 -199.54,-108.57 -298.02,-178.48 9.93,-62.8 44.71,-121.18 106.46,-154.98 34.35,-22.08 71.12,-29.78 108.66,-29.78 50.15,0 101.76,13.91 150.74,26.37 146.81,34.05 296.04,57.27 443.2,89.98 435.25,89.7 649.94,146.5 808.87,156.43 332.93,16.7 666.17,15.19 998.67,43.07 513.67,5.91 1027.24,0.46 1541.04,19.63 153.8,10.27 307.61,13.85 461.41,13.85 350.15,0 700.31,-18.86 1051.58,-22.02 161.44,-1.55 322.88,-2.2 485.41,-2.2 635.96,0 1271.92,10.52 1909,22.26 423.22,5.78 848.67,-7.85 1270.81,28.91 69.82,4.79 139.64,6.65 209.43,6.65 221.46,0 441.81,-18.65 663.24,-19.51 628.32,-15.06 1414.84,3.81 1866.45,-92.64 181.07,-41.65 367.59,-68.18 542.15,-133.49l9.8 -4.61c43.63,-30.86 91.65,-45.24 136.36,-45.24 50.19,0 97.09,18.18 128.73,51.58 -333.8,270.28 -761.41,474.33 -1253.37,592.21 -534.54,128.6 -1091.96,151.2 -1641.74,151.2z"/>
<path class="fil3" d="M14476.18 10065.04c46.91,-29.65 93.82,-60.42 139.64,-92.18 -38.19,33.8 -85.09,64.47 -139.64,92.18z"/>
<path class="fil2" d="M7832.94 10602.36l-174.52 -1.98c-86.18,-21.24 -132,-110.36 -122.17,-191.09l3768.87 41.81c148.33,1.73 297.78,3.37 447.22,3.37 549.78,0 1107.2,-22.6 1641.74,-151.2 491.96,-117.87 919.57,-321.93 1253.37,-592.21 37.07,37.72 55.63,94.9 41.43,167 -16.35,34.05 -41.43,65.68 -73.07,94.81 -45.82,31.76 -92.73,62.52 -139.64,92.18 -201.79,101.89 -500.68,164.69 -770.13,203.22 -29.47,54.54 -85.09,95.36 -149.44,108.72 -96.01,37.2 -195.27,66.7 -296.72,87.2 -356.68,71.68 -724.31,66.3 -1087.57,87.48 -239.98,18.31 -479.96,24.68 -719.95,24.68 -382.87,0 -765.77,-16.14 -1149.75,-25.51 -822.48,14.69 -1646.08,33.98 -2469.67,51.55zm-1461.72 -174c-578.14,-20.16 -1155.97,-38.03 -1734.42,-38.03 -25.67,0 -51.39,0 -76.93,0.06 -1.73,0 -3.37,0 -5.01,0 -127.39,0 -254.17,-8.81 -381.01,-18.52l3038.41 33.83c-280.33,8.81 -560.67,20.72 -841.04,22.67zm-3558.42 -201.45c-295.64,-69.91 -593.76,-148.24 -896.69,-210.33 -120.65,-29.01 -178.02,-150.96 -160.67,-259.83 98.49,69.91 201.36,129.34 298.02,178.48 249.13,126.65 516.3,222.72 759.34,291.68z"/>
<polygon class="fil4" points="8334.73,12696.15 10038.63,14993.9 11743.62,12696.15 10783.69,12696.15 10846.95,6325.86 9356.84,6325.86 9293.58,12696.15 "/>
<path class="fil2" d="M8523.45 12791.05l1515.18 2043.57 1516.27 -2043.57 -771.21 0c-25.11,0 -49.1,-10.17 -67.63,-28.04 -17.47,-18.12 -27.27,-42.39 -27.27,-67.72l62.15 -6274.53 -1299.17 0 -63.26 6276.36c0,52.04 -42.55,93.94 -94.93,93.94l-770.13 0zm1515.18 2297.75c-29.44,0 -57.82,-14.19 -76.34,-38.41l-1703.9 -2297.62c-21.83,-28.82 -25.11,-67.19 -8.72,-99.29 16.35,-31.94 49.07,-52.23 85.06,-52.23l865.03 0 62.18 -6276.38c1.11,-52.04 43.63,-93.94 94.9,-93.94l1490.11 0c25.07,0 50.19,10.14 67.62,28.05 17.47,18.12 27.28,42.43 27.28,67.75l-62.19 6274.53 863.95 0c35.99,0 68.74,20.28 84.01,52.23 16.36,32.09 13.08,70.47 -7.64,99.29l-1704.98 2297.62c-17.47,24.21 -45.83,38.41 -76.38,38.41z"/>
<path class="fil2" d="M5158.85 5023.6l-22.67 -9.59c-317.87,-328.35 -631.6,-669.7 -932.56,-1014.5 -11.47,-13.2 -10.14,-33.15 3.03,-44.71 13.11,-11.35 33.18,-10.14 44.62,3.06 300.22,344.03 613.17,684.6 930.28,1012.18 12.21,12.56 11.78,32.62 -0.74,44.71l-21.95 8.84z"/>
<path class="fil2" d="M5142.4 4505.79l-23.13 -9.93c-308.5,-327.8 -615.03,-665.99 -911.2,-1005.32 -11.44,-13.2 -10.02,-33.18 3.06,-44.74 13.08,-11.35 33.18,-10.14 44.74,3.06 295.61,338.81 601.58,676.53 909.53,1003.59 12,12.74 11.35,32.71 -1.42,44.71l-21.59 8.63z"/>
<path class="fil2" d="M5138.9 3930.8l-21.83 -8.85c-307.73,-295.17 -605.5,-607.82 -885.31,-929.28 -11.47,-13.2 -10.05,-33.27 3.06,-44.62 13.2,-11.57 33.15,-10.14 44.62,3.06 278.57,320.04 575.08,631.36 881.39,925.24 12.65,12 13.08,32.06 0.86,44.62l-22.79 9.83z"/>
<path class="fil2" d="M5121.99 3417.44l-23.78 -10.8c-280.77,-320.72 -576.19,-636.09 -877.8,-937.6 -12.43,-12.31 -12.43,-32.28 0,-44.71 12.34,-12.34 32.28,-12.34 44.71,0 302.72,302.5 598.89,618.95 880.65,940.63 11.47,13.2 10.14,33.18 -2.94,44.62l-20.84 7.85z"/>
<path class="fil2" d="M5107.27 2830.33l-23.04 -9.93c-269.76,-286.55 -553.93,-567.01 -844.84,-833.61 -12.86,-11.78 -13.85,-31.73 -1.98,-44.62 11.78,-12.99 31.85,-13.73 44.74,-1.95 292.02,267.57 577.37,549.14 848.12,836.77 12,12.77 11.35,32.84 -1.3,44.84l-21.71 8.5z"/>
<path class="fil2" d="M5080.22 2315.37l-23.47 -10.36c-107.11,-118.37 -220.44,-234.45 -336.83,-344.93 -12.68,-12.12 -13.2,-32.07 -1.11,-44.74 12,-12.74 32.09,-13.08 44.74,-1.08 117.47,111.59 231.91,228.76 340.23,348.21 11.66,12.98 10.7,33.06 -2.29,44.83l-21.28 8.07z"/>
<path class="fil2" d="M4771.62 5197.25l-23.25 -10.15c-171.03,-185.22 -340.76,-375.14 -504.39,-564.72 -11.44,-13.2 -10.05,-33.18 3.28,-44.62 13.2,-11.44 33.15,-9.93 44.5,3.28 163.3,188.93 332.5,378.42 503.09,563.2 11.91,12.74 11.04,32.71 -1.73,44.62l-21.49 8.38z"/>
<path class="fil2" d="M4480.25 5451.31l-24.21 -11.22 -233.98 -277.18c-11.22,-13.3 -9.49,-33.27 3.8,-44.5 13.33,-11.26 33.4,-9.62 44.62,3.8l233.89 277.09c11.35,13.42 9.58,33.27 -3.71,44.59l-20.41 7.42z"/>
<path class="fil3" d="M1264.22 8332.57l0 -513.91c33.92,-46.48 67.19,-90.63 92.73,-131.67 178.79,-260.61 447.78,-440.48 744.28,-542.15 50.83,-15.71 104.48,-33.37 158.07,-33.37 18.86,0 37.72,2.17 56.5,7.52 33.61,8.84 63.05,25.76 87.38,47.99l0 219.05c-429.25,115.61 -824.89,430.02 -1097.4,875.63 -14.5,23.78 -28.36,47.43 -41.56,70.9z"/>
<path class="fil2" d="M1253.43 8352.21c-43.97,-12.68 -85.53,-42.55 -118.15,-93.51 -73.62,-149.23 29.9,-304.11 128.94,-440.04l0 513.91c-3.59,6.53 -7.2,13.08 -10.79,19.64zm1149.75 -966.17l0 -219.05c54.85,50.41 83.12,128.17 71.21,201.83 -23.87,5.1 -47.65,10.88 -71.21,17.22z"/>
<path class="fil2" d="M1304.82 8359.38c-17.25,0 -34.48,-2.38 -51.39,-7.17 3.59,-6.56 7.2,-13.11 10.79,-19.64 13.2,-23.47 27.06,-47.12 41.56,-70.9 272.51,-445.61 668.15,-760.02 1097.4,-875.63 23.56,-6.34 47.34,-12.12 71.21,-17.22 -4.14,25.29 -12.96,50.06 -27.15,73.19 -28.69,48.86 -76.59,85.96 -131.44,101.02 -21.83,4.89 -49.85,14.5 -66.33,20.28 -214.01,97.96 -342.86,161.32 -431.2,254.7 -164.07,174.77 -182.28,186.21 -285.04,351.92 -29.47,112.24 -128.94,189.46 -228.42,189.46z"/>
<path class="fil3" d="M3921.52 5970.23c-29.13,-40.14 -43.75,-91.84 -33.48,-151.86 4.79,-33.49 17,-64.35 33.48,-93.48l0 245.33z"/>
<path class="fil3" d="M4111.44 5959.1l0 -477.46c67.29,-69.91 143.76,-129.68 225.26,-183.06l119.33 141.5 24.21 11.22 20.41 -7.42c13.3,-11.32 15.06,-31.17 3.71,-44.59l-113.67 -134.72c92.95,-56.52 190.79,-105.94 287.88,-153.5 23.22,25.42 46.44,50.74 69.79,76.04l23.25 10.15 21.49 -8.38c12.77,-11.91 13.64,-31.88 1.73,-44.62 -18.99,-20.63 -38.07,-41.34 -57.05,-62.09 0.87,-0.43 1.85,-0.87 2.85,-1.3 109.09,-37.85 219.48,-114.87 335.74,-128.73 19.88,20.75 39.83,41.34 59.8,61.87l22.67 9.59 21.95 -8.84c12.52,-12.09 12.96,-32.16 0.74,-44.71 -4.24,-4.48 -8.5,-8.84 -12.87,-13.33 32.93,10.17 60.11,27.06 81.48,48.33l0 238.9c-111.04,21.83 -219.26,53.68 -322.54,95.89 -322.57,131.54 -599.66,348.85 -816.17,619.26z"/>
<path class="fil2" d="M4040.98 6051.83c-47.46,-13.63 -90.54,-41.9 -119.45,-81.6l0 -245.33c38.28,-67.62 99.26,-126.44 141.69,-189.48 15.49,-18.65 31.54,-36.55 48.24,-53.78l0 477.46c-24.33,30.33 -47.68,61.19 -70.47,92.73zm1209.18 -807.89l0 -238.9c59.68,59.89 74.95,154.48 43.32,230.95 -14.19,2.5 -28.69,5.1 -43.32,7.94z"/>
<path class="fil2" d="M4105.88 6061.11c-21.92,0 -43.85,-3.19 -64.9,-9.28 22.79,-31.54 46.13,-62.4 70.47,-92.73 216.51,-270.41 493.6,-487.72 816.17,-619.26 103.28,-42.21 211.5,-74.06 322.54,-95.89 14.63,-2.84 29.13,-5.44 43.32,-7.94 -20.96,53 -64.38,97.4 -129.71,115.4 -437.85,197 -750.71,383 -877.24,604.64 -41.68,73.1 -111.17,105.07 -180.65,105.07z"/>
<path class="fil2" d="M5158.85 5023.6l-22.67 -9.59c-19.98,-20.53 -39.92,-41.12 -59.8,-61.87 11.78,-1.42 23.69,-2.16 35.59,-2.16 16.14,0 32.37,1.42 48.73,4.45 2.75,0.68 5.35,1.42 7.98,2.29 4.36,4.48 8.63,8.84 12.87,13.33 12.21,12.56 11.78,32.62 -0.74,44.71l-21.95 8.84z"/>
<path class="fil2" d="M4771.62 5197.25l-23.25 -10.15c-23.35,-25.29 -46.57,-50.62 -69.79,-76.04 19.72,-9.71 39.48,-19.3 59.21,-28.91 18.98,20.75 38.06,41.46 57.05,62.09 11.91,12.74 11.04,32.71 -1.73,44.62l-21.49 8.38z"/>
<path class="fil2" d="M4480.25 5451.31l-24.21 -11.22 -119.33 -141.5c17.78,-11.66 35.78,-22.88 53.99,-34.01l113.67 134.72c11.35,13.42 9.58,33.27 -3.71,44.59l-20.41 7.42z"/>
<path class="fil3" d="M8334.73 4866.3l0 -24.77c3.28,5.35 6.56,10.8 9.83,16.48 -3.28,2.72 -6.56,5.44 -9.83,8.29z"/>
<path class="fil3" d="M7412.96 6268.03c-97.06,-196.69 -235.62,-376.56 -406.86,-530.58l0 -333.37c7.64,-0.86 15.28,-1.3 23.99,-1.3 13.08,0 26.19,1.08 39.27,3.37 82.9,5.35 146.17,72.54 209.43,119.76 21.83,19.33 42.55,40.17 62.18,61.66 78.54,-153.15 163.64,-280.46 268.34,-394.12 146.2,-166.79 303.28,-348.86 513.79,-432.87 7.64,-2.29 14.19,-3.93 21.83,-5.23l0 283.4c-341.44,339.27 -598.89,763.82 -731.98,1229.28z"/>
<path class="fil2" d="M7006.1 5737.45c-57.82,-51.82 -118.89,-100.68 -184.35,-146.29 15.28,-92.06 83.98,-175.42 184.35,-187.08l0 333.37zm1138.84 -698.7l0 -283.4c8.72,-1.52 18.55,-2.29 28.35,-2.29 63.26,0 125.45,35.99 161.44,88.46l0 24.77c-66.54,54.64 -129.81,112.24 -189.8,172.45z"/>
<path class="fil2" d="M7352.98 6279.69c-53.43,0 -107.98,-19.73 -147.25,-61.72 -27.28,-20.53 -60.02,-101.79 -64.38,-118.8 -10.88,-22.48 -21.8,-44.96 -32.71,-67.63 -80.74,-149.01 -31.63,-76.04 -124.37,-174.33l-9.8 -8.84c-16.36,-10.57 -31.63,-20.59 -47.99,-30.65 -89.45,-51.05 -118.92,-142.45 -104.73,-226.56 65.46,45.61 126.53,94.46 184.35,146.29 171.24,154.02 309.8,333.89 406.86,530.58 133.09,-465.46 390.54,-890.02 731.98,-1229.28 59.99,-60.2 123.25,-117.81 189.8,-172.45 3.28,-2.85 6.56,-5.57 9.83,-8.29 18.52,33.92 26.16,73.19 18.52,113.45 -1.08,52.78 -37.07,96.63 -75.26,130.77 -121.09,98.08 -44.71,26.84 -148.36,119.45 -248.7,260.3 -347.96,350.19 -479.96,623.87l-9.8 22.91 -2.19 4.24c-41.44,98.17 -57.83,205.07 -105.81,300.52 -38.16,68.83 -113.45,106.46 -188.71,106.46z"/>
</g>
</g>
</svg>