<?xml version="1.0" ?>
<!DOCTYPE svg  PUBLIC '-//W3C//DTD SVG 1.1//EN'  'http://www.w3.org/Graphics/SVG/1.1/DTD/svg11.dtd'>
<!-- Uploaded to: SVG Repo, www.svgrepo.com, Generator: SVG Repo Mixer Tools -->
<svg width="800px" height="800px" viewBox="0 0 16666.66 16666.66" style="shape-rendering:geometricPrecision; text-rendering:geometricPrecision; image-rendering:optimizeQuality; fill-rule:evenodd; clip-rule:evenodd" version="1.1" xml:space="preserve" xmlns="http://www.w3.org/2000/svg" xmlns:xlink="http://www.w3.org/1999/xlink" xmlns:xodm="http://www.corel.com/coreldraw/odm/2003">
<defs>
<style type="text/css">
   <![CDATA[
    .fil0 {fill:none}
    .fil2 {fill:black;fill-rule:nonzero}
    .fil4 {fill:#ACD4F7;fill-rule:nonzero}
    .fil3 {fill:#DEDEDE;fill-rule:nonzero}
    .fil1 {fill:white;fill-rule:nonzero}
   ]]>
  </style>
</defs>
<g id="Layer_x0020_1">
<rect class="fil0" height="16666.66" width="16666.66" x="-0" y="-0"/>
<g id="_1316253505344">
<path class="fil1" d="M2729.05 12792.19c20.89,-3548.6 -12.14,-7097.59 -99.18,-10645.22 3349.86,-40.28 6740.39,-48.03 10139.73,-32.84 -28.89,2476.94 -25.94,4954.27 8.83,7431.13 20.67,1472.2 17.25,3062.8 -852.33,4250.89 -113.2,154.57 -240.69,300.56 -393.87,415.71 -456.99,343.34 -1082.05,368.15 -1694.28,241.41 -1271.4,-226.19 -2582.89,-97.54 -3860.27,-286.86 -579.78,-86.04 -1147.81,-236.74 -1712.61,-393.37 -568.92,-157.79 -1169.98,-342.76 -1536.01,-980.85z"/>
<path class="fil2" d="M2814.41 12769.47c362.7,613.39 977.99,784.02 1473.48,921.42 567.06,157.21 1124,305.5 1702.22,391.12 598.81,88.81 1217.7,107.54 1816.29,125.57 673.4,20.31 1369.8,41.37 2046.42,161.8 476.1,98.43 1142.92,138.96 1628.13,-225.69 128.87,-96.84 248.44,-223.24 376.23,-397.9 878.2,-1199.78 854.78,-2862.89 835.97,-4199.28 -34.31,-2436.94 -37.53,-4908.37 -9.81,-7347.51 -3568.8,-15.47 -6830.96,-5.08 -9966.19,32.14 84.87,3497.07 117.63,7041.78 97.23,10538.32zm7660.93 1838.88c-204.83,0 -423.76,-23.75 -654.65,-71.56 -662.12,-117.79 -1352.17,-138.6 -2019.48,-158.76 -603.39,-18.25 -1227.4,-37.06 -1836.1,-127.32 -587.34,-87.01 -1173.09,-243.05 -1722.78,-395.54 -530.8,-147.13 -1191.34,-330.26 -1587.27,-1020.49 -7.44,-13.06 -11.39,-27.83 -11.28,-42.98 20.78,-3531.01 -12.56,-7111.79 -99.29,-10642.67 -0.47,-22.72 8.14,-44.78 23.92,-61.26 15.89,-16.44 37.64,-25.78 60.37,-26.06 3187.68,-38.33 6504.9,-49.2 10141.23,-32.83 22.64,0.11 44.39,9.31 60.37,25.47 15.86,16.17 24.78,38.03 24.5,60.76 -28.81,2465.58 -25.89,4964.97 8.81,7428.96 19.22,1361.88 43.03,3056.66 -868.89,4302.37 -137.98,188.66 -268.72,326.37 -411.43,433.6 -289.89,217.83 -666.23,328.31 -1108.03,328.31z"/>
<path class="fil1" d="M11461.47 14265.9c-195.05,110.12 -449.54,69.78 -635.76,-54.78 -186.1,-124.46 -313.42,-319.89 -409.65,-521.97 -197.88,-415.24 -285.19,-882.54 -306.64,-1353.83 -2992.66,-107.51 -6073.49,-139.24 -9040.06,-139.24 0,1916.13 993.85,2296.31 1313.93,2296.67 1520.82,1.5 4857.65,44.22 7261.97,65.78 613.89,5.47 1251.13,6.14 1816.21,-292.64z"/>
<path class="fil2" d="M1155.31 12281.31c28.22,1731.84 914.37,2125.82 1228.09,2126.13 1004.43,1.06 2830.61,20.25 4596.76,38.95 924.37,9.72 1848.94,19.53 2665.88,26.89 416.13,3.64 872.92,7.72 1304.82,-103.4 -59.48,-21.75 -117.51,-51.06 -172.49,-87.81 -172.18,-115.15 -315.87,-297.17 -439.35,-556.25 -175.43,-368.51 -279.89,-808.17 -310.56,-1307.96 -2566.53,-91.18 -5470.88,-135.85 -8873.16,-136.54zm8725.36 2363.85c-79.87,0 -158.68,-0.7 -236.19,-1.36 -816.97,-7.36 -1741.62,-17.17 -2666.18,-26.87 -1765.65,-18.69 -3591.44,-37.92 -4595.1,-38.86 -389.09,-0.44 -1399.11,-429.21 -1399.11,-2381.99 0,-47.06 38.22,-85.26 85.26,-85.26 3475.98,0 6433.94,45.56 9043.09,139.35 44.28,1.64 80.07,36.94 82.12,81.34 23.22,509.52 123.68,953.96 298.42,1320.88 109.87,230.72 234.24,390.37 380.15,487.99 165.35,110.51 370.95,134.82 521.58,64.06 8.92,-4.5 17.94,-9.22 26.86,-13.92 41.26,-21.75 92.31,-6.47 114.65,34.48 22.44,40.89 7.75,92.23 -32.81,115.09 -11.28,6.47 -22.75,12.31 -34.42,17.92 -507.35,257.25 -1069.11,287.14 -1588.32,287.14z"/>
<path class="fil2" d="M1494.2 13064.67l-20.09 -8.36c-11.08,-11.06 -11.08,-29.09 0,-40.14l511.58 -511.58c11.09,-11.09 29.11,-11.09 40.17,0 11.08,11.06 11.08,29.11 0,40.17l-511.58 511.55 -20.09 8.36z"/>
<path class="fil2" d="M1693.05 13661.48l-19.81 -7.98c-11.25,-11 -11.44,-29.03 -0.47,-40.2l1080 -1108.44c11.08,-11.19 29,-11.44 40.17,-0.58 11.28,11 11.47,29.03 0.5,40.2l-1080 1108.39 -20.39 8.61z"/>
<path class="fil2" d="M2097.7 14026.68l-20.09 -8.36c-11.08,-11.06 -11.08,-29.09 0,-40.14l1492.29 -1492.42c11.2,-11.06 29.11,-11.06 40.2,0 11.08,11.19 11.08,29.08 0,40.28l-1492.31 1492.29 -20.09 8.36z"/>
<path class="fil2" d="M2982.29 14153.58l-18.42 -6.75c-11.97,-10.28 -13.33,-28.11 -3.25,-40.06 481.69,-565.53 992.68,-1118.44 1518.87,-1643.44 11.06,-11.19 29.11,-11.19 40.17,0 11.08,11.17 11.08,29.09 0,40.14 -525.11,523.94 -1035.02,1075.83 -1515.71,1640.11l-21.67 10z"/>
<path class="fil2" d="M3803.65 14166.13l-18.72 -6.86c-11.75,-10.42 -13.03,-28.31 -2.72,-40.2l1426.72 -1642.44c10.39,-11.75 28.23,-13.11 40.09,-2.83 11.86,10.31 13.14,28.23 2.83,40.09l-1426.72 1642.44 -21.47 9.8z"/>
<path class="fil2" d="M4606.51 14178.08l-17.95 -6.47c-12.14,-9.89 -13.92,-27.73 -4,-39.89 447.46,-547.33 912.59,-1091.86 1382.42,-1618.63 10.39,-11.64 28.33,-12.75 40.2,-2.25 11.67,10.42 12.64,28.45 2.25,40.12 -469.35,526.08 -933.98,1070.08 -1380.97,1616.74l-21.94 10.39z"/>
<path class="fil2" d="M5310.94 14186.06l-18.11 -6.61c-12.06,-9.97 -13.83,-27.94 -3.83,-39.94 453.46,-549.33 917.81,-1099.64 1380,-1635.72 10.2,-11.94 28.22,-13.11 39.98,-3 11.97,10.28 13.22,28.2 3.06,40.06 -461.91,535.78 -925.95,1085.78 -1379.11,1634.8l-21.98 10.42z"/>
<path class="fil2" d="M6046.26 14205.22l-17.83 -6.36c-12.14,-9.81 -14.11,-27.75 -4.31,-39.89l1310.1 -1627.74c9.81,-12.36 27.76,-14.2 40,-4.39 12.14,9.89 14.11,27.72 4.31,39.98l-1310.1 1627.72 -22.17 10.7z"/>
<path class="fil2" d="M6772.78 14233.06l-18.53 -6.86c-11.94,-10.31 -13.33,-28.22 -3.03,-40.09l1390.75 -1616.24c10.31,-11.97 28.22,-13.14 40.09,-3.06 11.86,10.28 13.33,28.2 3.06,40.06l-1390.78 1616.3 -21.56 9.89z"/>
<path class="fil2" d="M7546.22 14223.86l-18.03 -6.47c-12.17,-9.92 -13.92,-27.83 -3.92,-40 454.24,-555.17 937.59,-1097.83 1436.73,-1612.91 10.97,-11.31 29,-11.5 40.17,-0.69 11.28,10.97 11.58,28.89 0.69,40.25 -497.96,513.94 -980.32,1055.41 -1433.7,1609.33l-21.94 10.5z"/>
<path class="fil2" d="M8313.1 14213.95l-17.45 -5.97c-12.44,-9.67 -14.61,-27.64 -4.89,-39.89 438.85,-558.61 904.06,-1108.14 1382.92,-1633.33 10.58,-11.56 28.61,-12.44 40.17,-1.86 11.59,10.58 12.36,28.61 1.78,40.2 -477.88,524.19 -942.2,1072.64 -1380.08,1630.05l-22.44 10.81z"/>
<path class="fil2" d="M8959.03 14225.61l-19.09 -7.33c-11.67,-10.5 -12.56,-28.53 -1.97,-40.09l841.44 -925.76c10.58,-11.67 28.53,-12.44 40.09,-1.86 11.67,10.48 12.44,28.5 1.97,40.06l-841.47 925.7 -20.97 9.28z"/>
<path class="fil2" d="M9678.49 14286.26l-17.14 -5.86c-12.56,-9.42 -15,-27.25 -5.5,-39.7 104.06,-137.4 216.1,-271.64 332.92,-399.23 10.67,-11.5 28.61,-12.25 40.17,-1.81 11.56,10.61 12.36,28.64 1.67,40.2 -115.54,126.2 -226.39,259.14 -329.48,395.04l-22.64 11.36z"/>
<path class="fil3" d="M9877.14 14474.64c-78.12,0 -155.24,-0.67 -231.11,-1.36 -146.79,-1.39 -297.14,-2.75 -450.32,-4.22 0,-0.11 0.11,-0.19 0.11,-0.31 -2.56,0.11 -5.11,0.2 -7.67,0.2 -480.69,-4.5 -989.35,-9.81 -1506.71,-15.2 -196.49,-4.08 -392.98,-7.06 -589.58,-7.06 -23.81,0 -47.73,0 -71.54,0.14 -13.42,-0.19 -26.76,-0.31 -40.17,-0.44 -1766.15,-18.7 -3592.33,-37.89 -4596.76,-38.95 -137.71,-0.11 -385.85,-76.2 -623.2,-308.06 33.7,-54.37 93.17,-94.01 177.85,-95.76 43.81,-0.78 87.62,-1.33 131.43,-1.94 0.78,6.09 3.44,11.95 8.14,16.64l20.09 8.36 20.09 -8.36 17.44 -17.42c118.68,-1.17 237.47,-1.67 356.26,-1.67 170.91,0 341.73,1 512.67,1.86 15.58,0.08 31.14,0.2 46.72,0.28 -30.17,35.09 -60.26,70.17 -90.26,105.4 -10.08,11.94 -8.72,29.78 3.25,40.06l18.42 6.75 21.67 -10c40.37,-47.42 80.95,-94.68 121.63,-141.79 130.62,0.58 261.16,1.14 391.7,1.14 122.4,0 244.91,-0.44 367.31,-1.75l-102.4 117.9c-10.31,11.89 -9.03,29.78 2.72,40.2l18.72 6.86 21.47 -9.8 135.63 -156.04c91.26,-1.25 182.6,-3.03 273.91,-5.39 150.24,7.14 300.39,11.47 450.74,13.94 -33.72,40.87 -67.34,81.84 -100.84,122.87 -9.92,12.17 -8.14,30 4,39.89l17.95 6.47 21.94 -10.39c43.11,-52.7 86.34,-105.35 129.65,-157.88 81.54,0.97 163.07,1.36 244.64,1.36 131.51,0 263.14,-1.09 394.65,-2.72 -36.17,43.73 -72.34,87.31 -108.4,131.04 -10,12 -8.22,29.97 3.83,39.94l18.11 6.61 21.98 -10.42c46.25,-56.06 92.7,-112.09 139.15,-168.27 98.29,-1.36 196.69,-3.06 295,-4.7 127.2,0.56 254.41,1.14 381.62,1.56l-124.57 154.74c-9.81,12.14 -7.83,30.09 4.31,39.89l17.83 6.36 22.17 -10.7 153.07 -190.1c53.62,0.08 107.12,0.19 160.74,0.19 175.8,0 351.62,-0.8 527.44,-2.75l-158.46 184.24c-10.31,11.86 -8.92,29.78 3.03,40.09l18.53 6.86 21.56 -9.89 191.21 -222.27c42.42,-0.61 84.87,-1.17 127.29,-1.97 182.3,4.31 364.59,9.14 546.86,14.42 -45.36,54.48 -90.54,109.26 -135.43,164.04 -10,12.17 -8.25,30.09 3.92,40l18.03 6.47 21.94 -10.5c54.2,-66.15 108.79,-132.21 163.77,-197.94 221.19,6.33 442.41,13.2 663.59,20.03 -35.09,44.11 -69.98,88.34 -104.76,132.62 -9.72,12.25 -7.56,30.23 4.89,39.89l17.45 5.97 22.44 -10.81c43.42,-55.22 87.01,-110.43 130.93,-165.41 95.15,2.94 190.33,5.89 285.47,8.72 91.26,1.39 182.49,1.89 273.72,1.89 10.11,0 20.19,0 30.28,0l-117.98 129.85c-10.58,11.56 -9.7,29.59 1.97,40.09l19.09 7.33 20.97 -9.28 152.99 -168.18c124.96,-0.5 249.91,-1.78 374.87,-2.94 101.73,-1 203.55,-1.97 305.39,-2.59 -54.11,65.01 -106.73,131.18 -157.4,198.07 -9.5,12.45 -7.06,30.28 5.5,39.7l17.14 5.86 22.64 -11.36c59.78,-78.79 122.21,-156.57 186.6,-232.63 33.31,-0.14 66.73,-0.2 100.07,-0.2 69.48,0 138.96,0.31 208.44,0.94 15.39,-0.58 30.67,-0.89 45.98,-0.89 108.57,0 215.3,15.33 319.59,42.17 66.93,80.15 138.88,145.74 216.58,197.77 54.98,36.76 113.01,66.06 172.49,87.81 -353.2,90.95 -723.07,104.76 -1073.72,104.76z"/>
<path class="fil3" d="M1901.71 14427.91c-70.09,-11.56 -118.79,-50.39 -146.63,-100.01 49.12,38.45 98.2,71.56 146.63,100.01z"/>
<path class="fil2" d="M9613.9 14635.85c-49.2,0 -98.59,-0.81 -147.88,-2.33 -9.61,-0.5 -19.31,-0.61 -29.11,-0.61 -6.78,0 -13.61,0 -20.39,0.11 -6.86,0.08 -13.61,0.08 -20.47,0.08 -56.84,0 -113.4,-4.19 -155.74,-47.42 -34.2,-32.11 -47.22,-74.78 -44.59,-116.62 153.18,1.47 303.53,2.83 450.32,4.22 75.87,0.7 152.99,1.36 231.11,1.36 350.65,0 720.52,-13.81 1073.72,-104.76 -59.48,-21.75 -117.51,-51.06 -172.49,-87.81 -77.7,-52.03 -149.65,-117.62 -216.58,-197.77 67.12,17.25 133.29,39.31 198.05,65.17 57.73,18.42 123.87,24.7 167.99,70.06 57.81,57.81 67.62,159.26 13.33,222.07 -24.11,36.09 -66.84,61.37 -110.37,63.59 -17.53,2.2 -28.7,3.25 -38.2,3.25 -20.2,0 -32.64,-4.5 -82.04,-11.75l-15.59 -2.06c-7.44,12.56 -16.36,24.61 -27.92,35.36 -68.61,71.43 -175.24,47.92 -264.41,59.98 -262.36,24.5 -525.22,45.87 -788.74,45.87zm1098.91 -138.88l0 0zm-17.72 -2.44l0 0.11 15.09 2.06c-4.72,-0.67 -9.7,-1.47 -15.09,-2.17zm-5932.06 -17.42c-941.81,-13.06 -1883.24,-42.98 -2824.97,-45.67 -12.64,-0.39 -24.78,-1.58 -36.34,-3.53 -48.42,-28.45 -97.51,-61.56 -146.63,-100.01 -39.09,-69.54 -37.03,-160.57 5.11,-228.52 237.35,231.86 485.49,307.95 623.2,308.06 1004.43,1.06 2830.61,20.25 4596.76,38.95 13.42,0.14 26.75,0.25 40.17,0.44 -98.09,0.36 -196.22,1.56 -294.31,3.83 -654.46,2.89 -1308.63,18.97 -1963,26.44zm4027.85 -1.19c-6.97,0 -14.03,0 -20.97,-0.11 -362.81,-3.14 -725.63,-14.48 -1088.44,-22.06 517.36,5.39 1026.02,10.7 1506.71,15.2 -132.4,4.03 -264.81,6.97 -397.29,6.97z"/>
<path class="fil2" d="M2097.7 14026.68l-20.09 -8.36c-4.69,-4.69 -7.36,-10.56 -8.14,-16.64 21.94,-0.3 43.81,-0.58 65.76,-0.78l-17.44 17.42 -20.09 8.36z"/>
<path class="fil2" d="M2982.29 14153.58l-18.42 -6.75c-11.97,-10.28 -13.33,-28.11 -3.25,-40.06 30,-35.22 60.09,-70.31 90.26,-105.4 24.89,0.11 49.78,0.22 74.7,0.42 -40.67,47.11 -81.26,94.37 -121.63,141.79l-21.67 10z"/>
<path class="fil2" d="M3803.65 14166.13l-18.72 -6.86c-11.75,-10.42 -13.03,-28.31 -2.72,-40.2l102.4 -117.9c25.39,-0.28 50.78,-0.58 76.15,-0.89l-135.63 156.04 -21.47 9.8z"/>
<path class="fil2" d="M4606.51 14178.08l-17.95 -6.47c-12.14,-9.89 -13.92,-27.73 -4,-39.89 33.5,-41.03 67.12,-82.01 100.84,-122.87 24.2,0.36 48.5,0.67 72.7,0.97 -43.31,52.53 -86.54,105.18 -129.65,157.88l-21.94 10.39z"/>
<path class="fil2" d="M5310.94 14186.06l-18.11 -6.61c-12.06,-9.97 -13.83,-27.94 -3.83,-39.94 36.06,-43.73 72.23,-87.31 108.4,-131.04 24.89,-0.3 49.78,-0.69 74.67,-1.08 -46.45,56.17 -92.9,112.2 -139.15,168.27l-21.98 10.42z"/>
<path class="fil2" d="M6046.26 14205.22l-17.83 -6.36c-12.14,-9.81 -14.11,-27.75 -4.31,-39.89l124.57 -154.74c24.31,0.08 48.5,0.08 72.81,0.19l-153.07 190.1 -22.17 10.7z"/>
<path class="fil2" d="M6772.78 14233.06l-18.53 -6.86c-11.94,-10.31 -13.33,-28.22 -3.03,-40.09l158.46 -184.24c25.28,-0.28 50.56,-0.58 75.87,-0.97l-191.21 222.27 -21.56 9.89z"/>
<path class="fil2" d="M7546.22 14223.86l-18.03 -6.47c-12.17,-9.92 -13.92,-27.83 -3.92,-40 44.89,-54.78 90.07,-109.57 135.43,-164.04 24.11,0.69 48.12,1.39 72.23,2.08 -54.98,65.73 -109.57,131.79 -163.77,197.94l-21.94 10.5z"/>
<path class="fil2" d="M8313.1 14213.95l-17.45 -5.97c-12.44,-9.67 -14.61,-27.64 -4.89,-39.89 34.78,-44.28 69.67,-88.51 104.76,-132.62 23.61,0.8 47.33,1.5 70.95,2.28 -43.92,54.98 -87.51,110.18 -130.93,165.41l-22.44 10.81z"/>
<path class="fil2" d="M8959.03 14225.61l-19.09 -7.33c-11.67,-10.5 -12.56,-28.53 -1.97,-40.09l117.98 -129.85c25.7,-0.14 51.37,-0.14 77.04,-0.19l-152.99 168.18 -20.97 9.28z"/>
<path class="fil2" d="M9678.49 14286.26l-17.14 -5.86c-12.56,-9.42 -15,-27.25 -5.5,-39.7 50.67,-66.89 103.29,-133.07 157.4,-198.07 24.78,-0.19 49.59,-0.25 74.48,-0.36 -64.39,76.06 -126.82,153.85 -186.6,232.63l-22.64 11.36z"/>
<polygon class="fil4" points="15597.3,7638.52 13238.37,4130.09 10879.41,7638.52 12207.38,7638.52 12207.38,11786.71 14269.35,11786.71 14269.35,7638.52 "/>
<path class="fil2" d="M12292.72 11701.42l1891.38 0 0 -4062.9c0,-47.15 38.11,-85.29 85.26,-85.29l1167.81 0 -2198.8 -3270.38 -2198.8 3270.38 1167.89 0c47.06,0 85.26,38.14 85.26,85.29l0 4062.9zm1976.64 170.55l-2061.9 0c-47.15,0 -85.26,-38.26 -85.26,-85.26l0 -4062.93 -1242.79 0c-31.56,0 -60.45,-17.44 -75.26,-45.2 -14.81,-27.84 -13.03,-61.54 4.5,-87.7l2358.96 -3508.32c31.76,-47.15 109.76,-47.15 141.52,0l2358.96 3508.32c17.53,26.17 19.31,59.87 4.5,87.7 -14.81,27.75 -43.73,45.2 -75.28,45.2l-1242.68 0 0 4062.93c0,47 -38.22,85.26 -85.26,85.26z"/>
<path class="fil2" d="M4671.29 11080.66c-47.06,0 -85.29,-38.2 -85.29,-85.26l0 -3713.54c0,-47.03 38.22,-85.26 85.29,-85.26 47.14,0 85.26,38.22 85.26,85.26l0 3713.54c0,47.06 -38.11,85.26 -85.26,85.26z"/>
<path class="fil2" d="M6414.47 11080.66c-47.04,0 -85.26,-38.2 -85.26,-85.26l0 -5397.81c0,-47.06 38.22,-85.29 85.26,-85.29 47.06,0 85.26,38.22 85.26,85.29l0 5397.81c0,47.06 -38.2,85.26 -85.26,85.26z"/>
<path class="fil2" d="M8157.56 11080.66c-47.04,0 -85.26,-38.2 -85.26,-85.26l0 -4035.76c0,-47.15 38.22,-85.29 85.26,-85.29 47.14,0 85.26,38.14 85.26,85.29l0 4035.76c0,47.06 -38.11,85.26 -85.26,85.26z"/>
<path class="fil2" d="M9900.76 11080.66c-47.04,0 -85.26,-38.2 -85.26,-85.26l0 -6258.6c0,-47.03 38.22,-85.26 85.26,-85.26 47.14,0 85.26,38.22 85.26,85.26l0 6258.6c0,47.06 -38.11,85.26 -85.26,85.26z"/>
<path class="fil3" d="M12058 8034.25c-17.06,0 -34.48,-2.47 -51.84,-7.75 -18.33,0.5 -50.76,0.78 -93.67,0.78 -222,0 -721.71,-8.22 -975.63,-40.09 -0.81,0 -1.58,0 -2.36,0 -168.46,0 -235.02,-209.91 -132.9,-313.89 0.78,1.75 1.67,3.53 2.56,5.28 14.81,27.75 43.7,45.2 75.26,45.2l1242.79 0 0 298.81c-20.39,7.56 -42.03,11.67 -64.2,11.67z"/>
<path class="fil2" d="M12122.2 8022.58l0 -298.81 -1242.79 0c-31.56,0 -60.45,-17.44 -75.26,-45.2 -0.89,-1.75 -1.78,-3.53 -2.56,-5.28 16.67,-16.94 37.84,-31.06 63.81,-41.06 25.09,-11.17 51.95,-14.89 79.56,-14.89 28.22,0 57.26,3.92 86.34,7.72 29.22,3.92 58.31,7.83 86.54,7.83 6.78,0 13.53,-0.19 20.2,-0.78 196.99,8.14 394.26,11.47 591.56,11.47 78.59,0 157.19,-0.5 235.8,-1.47 7.44,-0.5 14.89,-0.58 22.33,-0.58 5.58,0 11.17,0.08 16.75,0.08 5.69,0.11 11.28,0.19 16.94,0.19 12.36,0 24.7,-0.39 37.06,-1.94 0.89,0 1.75,0 2.56,0 85.73,0 165.43,61.84 187.27,144.54 31.67,101.46 -34.28,204.24 -126.13,238.16z"/>
<path class="fil3" d="M12233.13 12155.19c-135.13,0 -208.35,-181.1 -108.57,-274.22 10,-10.56 20.98,-18.78 32.61,-25.39 14.11,10.31 31.48,16.39 50.28,16.39l330.87 0c0.31,0.39 0.58,0.69 0.89,0.97 16.83,15.81 28.81,35.09 36.25,56.06 -9.42,54.51 -19.61,108.87 -30.59,163.1 -14.89,16.72 -33.89,29.98 -56.64,37.7 -78.29,27.75 -167.88,13.75 -250.11,25.31 -1.67,0.08 -3.33,0.08 -5,0.08z"/>
<path class="fil2" d="M12544.88 12092.1c10.97,-54.22 21.17,-108.59 30.59,-163.1 19.39,54.59 7.64,120.26 -30.59,163.1z"/>
<path class="fil2" d="M12538.32 11871.97l-330.87 0c-18.81,0 -36.17,-6.09 -50.28,-16.39 58.42,-32.61 134.48,-20.56 200.33,-26.64 16.47,-1.44 33.14,-2.56 49.7,-2.56 48.12,0 95.07,9.22 131.13,45.59z"/>
</g>
</g>
</svg>