<?xml version="1.0" encoding="iso-8859-1"?>
<!-- Uploaded to: SVG Repo, www.svgrepo.com, Generator: SVG Repo Mixer Tools -->
<svg height="800px" width="800px" version="1.1" id="Layer_1" xmlns="http://www.w3.org/2000/svg" xmlns:xlink="http://www.w3.org/1999/xlink" 
	 viewBox="0 0 290.626 290.626" xml:space="preserve">
<g>
	<g>
		<circle style="fill:#F9BA48;" cx="145.314" cy="145.313" r="107.813"/>
		<path style="fill:#333333;" d="M290.625,145.313C290.625,65.189,225.437,0,145.314,0c-24.891,0-48.333,6.3-68.832,17.372
			C44.898,1.636,22.093-0.609,10.51,10.988c-12.619,12.619-7.772,37.406,6.572,66.056C6.198,97.411,0.001,120.652,0.001,145.313
			c0,80.123,65.189,145.313,145.313,145.313c24.637,0,47.85-6.183,68.203-17.048c16.941,8.456,32.948,13.837,45.783,13.837
			c8.297,0,15.277-2.231,20.339-7.298c11.592-11.592,9.352-34.392-6.384-65.972C284.326,193.645,290.625,170.203,290.625,145.313z
			 M17.139,17.616c7.669-7.669,25.57-5.597,49.673,5.508C49.14,34.515,34.098,49.622,22.782,67.346
			C11.537,42.773,9.798,24.956,17.139,17.616z M145.314,281.25c-74.958,0-135.938-60.98-135.938-135.938
			c0-20.789,4.706-40.491,13.083-58.125c12.595,22.538,30.22,46.767,49.341,68.986l-16.467,3.295l1.842,9.192l25.927-5.184
			l10.317-25.795l-8.705-3.483l-6.155,15.389C55.478,122.78,38.551,98.072,27.69,77.306C51.235,36.736,95.124,9.375,145.314,9.375
			c74.958,0,135.938,60.98,135.938,135.938c0,50.189-27.361,94.078-67.927,117.623c-15.127-7.95-31.969-18.802-49.547-32.278
			l-5.705,7.439c14.48,11.105,30.075,21.638,45.277,30.112C185.739,276.558,166.064,281.25,145.314,281.25z M273.01,273.488
			c-7.852,7.852-26.077,5.306-49.762-5.625c17.738-11.32,32.855-26.372,44.255-44.048
			C278.607,247.913,280.679,265.819,273.01,273.488z"/>
		<path style="fill:#333333;" d="M192.189,178.125c0-20.677-16.823-37.5-37.5-37.5h-18.75c-15.511,0-28.125-12.614-28.125-28.125
			s12.614-28.125,28.125-28.125h18.75c15.511,0,28.125,12.614,28.125,28.125v4.688h9.375V112.5c0-20.677-16.823-37.5-37.5-37.5
			h-4.688V56.25h-9.375V75h-4.688c-20.677,0-37.5,16.823-37.5,37.5s16.823,37.5,37.5,37.5h18.75
			c15.511,0,28.125,12.614,28.125,28.125s-12.614,28.125-28.125,28.125h-18.75c-15.511,0-28.125-12.614-28.125-28.125v-4.688h-9.375
			v4.688c0,20.677,16.823,37.5,37.5,37.5h4.688v18.75h9.375v-18.75h4.688C175.365,215.625,192.189,198.802,192.189,178.125z"/>
	</g>
</g>
</svg>

