<?xml version="1.0" ?>

<!-- Uploaded to: SVG Repo, www.svgrepo.com, Generator: SVG Repo Mixer Tools -->
<svg width="800px" height="800px" viewBox="0 0 100 100" id="Layer_1" version="1.1" xml:space="preserve" xmlns="http://www.w3.org/2000/svg" xmlns:xlink="http://www.w3.org/1999/xlink">

<style type="text/css">
	.st0{fill:#FDB913;}
	.st1{fill:none;}
</style>

<title/>

<g>

<g id="fill">

<path class="st0" d="M92.7,19.4c-2.7-2.1-1.8-5.7-4.2-8.4c-1.1-1.2-2.3-2.1-3.8-2.7C83,7.5,80.6,7.9,78.9,7    c-2.6-1.3-3-4.5-6.7-4.5c-3.2,0-4.8,2.3-5.2,5.2c-0.2,1.9-0.4,3.8-0.4,5.7c-0.2,0.6-0.4,1.3-0.4,2c-0.1,1.6-0.2,3.3-0.2,5    c-4.2-0.7-8.5-0.5-12.6,0.6c-10-0.6-20.3,4.9-27.9,10.9c-4.7,3.8-8.7,8.4-11.8,13.6c0,0.1-0.1,0.1-0.1,0.2c-2.6,1.3-5.1,3-7.3,4.9    c-1,0.9-1.3,2.3-1,3.6c0.2,2.1,2,3.7,4.2,3.6c0.2,0,0.4,0,0.6-0.1c0.3-0.1,0.6-0.1,0.9-0.2c0.1,0.3,0.2,0.6,0.3,0.9    c0,0.3,0,0.6,0,0.9C13,77.4,26.4,90.9,44.5,92.4c0.2,0.5,0.3,1,0.5,1.4c0.7,1.8,2.6,3.3,4.7,2.6c0.7-0.2,1.3-0.6,1.8-1.1    c0.8-0.3,1.5-0.9,2-1.6l2.9-4.9c6.2-2.3,11.3-7.6,15-13.2c0.8-1.3,1.6-2.6,2.2-3.9c4.1-5.8,6.6-12.5,7-19.6    c0.7-5.7,0.7-11.5,0.2-17.2c5.4-2.9,14.8-0.6,15.8-8.5C97,23.2,95.1,21.2,92.7,19.4z"/>

</g>

<g id="line_copy">

<path class="st1" d="M75.7,37.5c-1.6-1.4-3.2-2.9-4.9-4.6c-1.5-1.6-2.9-3.1-4.2-4.6c-0.8,1.1-1.7,2.2-2.7,3.2    c-1.4,1.5-3.1,2.8-5,3.7c-1.3,0.6-2.7,0.9-4.1,0.9c-1.4,0-2.7-0.3-3.9-1c-1.2-0.6-2.1-1.6-2.7-2.8c-0.6-1.2-0.9-2.4-0.9-3.7    c0-0.9,0.2-1.8,0.5-2.7l0,0c0.3-0.6,0.6-1.1,1-1.5c-0.3,0-0.6,0-0.9,0.1c-4.7,0.5-15.6,1.7-25.2,9.9c-4.1,3.6-7.5,7.9-9.9,12.8    l0,0c-0.4,0.8-1,1.6-1.8,2.1l-4.2,2.9c-0.4,0.3-0.7,0.7-0.7,1.2c0,0.3,0.1,0.5,0.2,0.8c0.1,0.2,0.4,0.4,0.6,0.6l2.7,1.4    c1.3,0.7,2.3,2,2.6,3.5c1.4,7,4.7,13.4,9.6,18.6c5.5,5.7,12.5,9.7,20.3,11.3c0.3-0.1,0.6-0.2,0.9-0.1c0.9,0.1,1.8,0.2,2.7,0.2    c0.2,0,0.3,0,0.5,0c0.8,0,1.4,0.6,1.5,1.4c0,0.8-0.6,1.4-1.4,1.5h-0.1c0.5,0.5,0.9,1,1.4,1.4c0.9,0.9,2.4,1,3.4,0.1    c0,0,0.1-0.1,0.1-0.1l4.6-4.8l0,0c0.4-0.4,0.8-0.7,1.2-0.9c6.7-3.9,12.2-9.5,15.9-16.3c3.3-6.2,4.1-12.9,4.1-19    c0-3.3-0.2-6.4-0.4-9.2C76.2,41.1,75.9,39,75.7,37.5z M56.4,43.3c-0.9,0.7-1.7,1.4-2.5,2.2c0.2,0.2,0.4,0.5,0.6,0.7    c1.1,1.6,1.7,3.4,1.6,5.4c0,1.4-0.3,2.7-0.8,4c-0.3,0.7-1.2,1-1.9,0.7c-0.7-0.3-1-1.2-0.7-1.9c0.4-0.9,0.5-1.9,0.5-2.8    c0-1.3-0.4-2.6-1.1-3.7c-1.3-1.8-3.3-2.9-5.5-2.9c-0.2,0-0.4,0-0.6,0c-1.2,0.1-2.3,0.6-3.2,1.2c-0.9,0.6-1.6,1.4-2.1,2.4    c-0.3,0.5-0.4,1.1-0.4,1.7v0.1c0,0.9,0.3,1.7,0.9,2.3c0.7,0.9,1.4,1.7,2.2,2.5c0.8,0.8,1.6,1.5,2.6,2.1c1,0.7,1.8,1.6,2.5,2.6l0,0    c1,1.4,1.5,3.1,1.6,4.8c0,0.5,0,0.9-0.1,1.4l0,0c-0.3,1.3-1,2.6-2,3.5c-0.6,0.6-1.3,1.1-2,1.6c-1.7,1-3.6,1.6-5.5,1.5    c-0.5,0-1,0-1.5-0.1c-1.9-0.3-3.8-1.2-5.3-2.4c-0.6,0.7-1.3,1.5-1.9,2.3l0,0c-0.5,0.6-1.4,0.7-2,0.3c-0.6-0.5-0.7-1.4-0.3-2    c0.7-0.9,1.4-1.8,2.2-2.7c-0.8-1.1-1.4-2.3-1.8-3.5l0,0c-0.3-1.1-0.5-2.2-0.5-3.4c0-1.6,0.3-3.2,0.9-4.7l0,0    c0.3-0.7,1.1-1.1,1.9-0.8c0.7,0.3,1.1,1.1,0.8,1.8c-0.5,1.2-0.7,2.4-0.7,3.6c0,0.9,0.1,1.7,0.4,2.5l0,0c0.5,1.5,1.3,2.9,2.5,4    c1.2,1.1,2.6,1.9,4.2,2.1c0.4,0.1,0.7,0.1,1.1,0.1c1.4,0,2.8-0.4,4-1.1c0.6-0.3,1.1-0.7,1.5-1.2c0.6-0.6,1-1.3,1.2-2.1l0,0    c0.1-0.3,0.1-0.5,0.1-0.8c-0.1-1.2-0.5-2.3-1.2-3.3l0,0c-0.4-0.7-1-1.3-1.7-1.8c-1.1-0.7-2.1-1.5-3-2.5c-0.9-0.9-1.7-1.9-2.5-2.9    c-0.8-1.1-1.3-2.5-1.3-3.9v-0.1l0,0v0l0,0c0-1,0.3-2,0.8-2.9c0.5-0.9,1.1-1.7,1.8-2.4c1.6-1.5,3.6-2.5,5.8-2.7c0.3,0,0.6,0,0.9,0    c1.8,0,3.6,0.5,5.1,1.5c0.9-0.9,1.9-1.8,2.9-2.6c0.6-0.5,1.5-0.4,2,0.2C57.1,41.9,57,42.8,56.4,43.3    C56.4,43.3,56.4,43.3,56.4,43.3L56.4,43.3z"/>

<path class="st1" d="M91.7,26.5c-0.9-0.8-1.7-1.7-2.5-2.7c-0.1-0.2-0.3-0.4-0.4-0.6c-2.2,1.5-4.5,3-6.7,4.4l0,0    c-0.7,0.4-1.5,0.3-2-0.4c-0.4-0.7-0.3-1.5,0.4-2c0,0,0,0,0,0c2.4-1.5,4.7-3.1,7.1-4.6c0.1-0.1,0.2-0.1,0.2-0.1    c0-0.4-0.1-0.7-0.1-1.1c0-0.5,0-1-0.1-1.6c-0.4-2-1.8-3.6-3.7-4.2c-1-0.2-1.9-0.3-2.9-0.3c-1,0-2-0.2-3-0.4c0,0.1-0.1,0.2-0.2,0.3    c-1.1,1.4-2.1,2.9-3.1,4.4l0,0c-0.4,0.7-1.3,0.9-1.9,0.5c-0.7-0.4-0.9-1.3-0.5-1.9l0,0c1-1.6,2-3.1,3.2-4.6    c-0.1-0.1-0.2-0.1-0.2-0.2l0,0c-0.5-0.5-0.9-1.1-1.2-1.7c-0.2-0.5-0.5-0.9-0.8-1.3c-0.4-0.5-0.9-0.9-1.5-1.2    c-0.6-0.3-1.3-0.4-1.9-0.5c-0.3,0-0.5,0-0.8,0.1c-0.7,5.8-1.5,11.6-2.3,17.4c1.8,2.3,3.8,4.6,5.9,6.7c1.6,1.6,3.1,3,4.6,4.3    c4-2.9,8.7-4.5,13.5-4.8c0.6,0,1.2-0.1,1.7-0.2c0.4-0.1,0.7-0.2,1-0.4c0.1-0.1,0.1-0.1,0.1-0.2l0-0.1c0-0.2-0.1-0.5-0.2-0.7    C93,28,92.4,27.2,91.7,26.5z"/>

<path class="st1" d="M61.3,20.9c0.3,0.1,0.5,0.2,0.8,0.2c0-0.1,0-0.2-0.1-0.4c-0.5-2.8-1.5-5.5-2.8-8c-0.2-0.4-0.4-0.8-0.7-1.1    c-0.2-0.3-0.4-0.5-0.7-0.7c-0.5-0.3-1.2-0.4-1.8-0.4c-0.1,0-0.2,0-0.3,0c-0.5,0-1,0.1-1.4,0.2c-0.5,0.2-0.8,0.6-1,1    c-0.4,0.8-0.5,1.8-0.3,2.7l0,0c0.3,0.8,0.7,1.6,1.3,2.2c0.6,0.7,1.4,1.3,2.2,1.9l0,0C58,19.5,59.6,20.3,61.3,20.9z"/>

<path class="st1" d="M52.3,32.6c0.8,0.4,1.7,0.6,2.6,0.7c1,0,2-0.3,2.9-0.7c1-0.5,2-1.1,2.8-1.9c1.6-1.4,3-3,4.1-4.8    c-0.1-0.1-0.2-0.2-0.2-0.3c-2.3-0.5-4.7-0.9-7-1.2c-0.1,0-0.3,0.1-0.4,0.1c-1.1,0-2.1,0.1-3.1,0.3c-0.9,0.1-1.7,0.5-2.5,1    c-0.4,0.3-0.8,0.8-1,1.3l0,0c-0.2,0.5-0.3,1-0.3,1.5c0,0.8,0.2,1.7,0.6,2.4C51.1,31.7,51.6,32.3,52.3,32.6z"/>

<path d="M96.1,27.6c-0.9-1.4-1.9-2.7-3.2-3.8c-0.5-0.5-0.9-1-1.4-1.5c-0.3-0.4-0.6-1-0.7-1.5l0,0c-0.1-0.5-0.2-0.9-0.2-1.4    c0-0.6-0.1-1.2-0.1-1.9c-0.5-3.1-2.8-5.6-5.8-6.5c-1.5-0.3-3-0.5-4.5-0.5c-0.6,0-1.2-0.1-1.7-0.3C78,10,77.6,9.8,77.3,9.5    c-0.3-0.3-0.5-0.7-0.7-1.1c-0.3-0.6-0.6-1.1-0.9-1.6l0,0c-0.6-0.9-1.5-1.7-2.5-2.1c-1-0.5-2.1-0.7-3.2-0.7c-0.9,0-1.8,0.2-2.6,0.5    c-0.5,0.2-0.8,0.6-0.8,1.1l-1.8,14c-0.6-2.8-1.6-5.6-2.9-8.2c-0.3-0.5-0.6-1-0.9-1.5c-0.4-0.5-0.9-1-1.4-1.4    c-1-0.6-2.1-0.9-3.2-0.9c-0.1,0-0.2,0-0.4,0c-0.9,0-1.8,0.1-2.6,0.5c-1,0.5-1.9,1.3-2.4,2.3c-0.8,1.5-1,3.3-0.5,4.9    c0.4,1.2,1,2.3,1.9,3.3c0.8,0.9,1.7,1.7,2.7,2.3l0.8-1.2l-0.8,1.2c0.4,0.2,0.7,0.5,1.1,0.7c-1.1-0.1-2.1-0.1-3.3-0.1    c-1.6,0-3.3,0.1-5,0.2c-4.8,0.5-16.4,1.7-26.8,10.6c-4.4,3.8-8,8.5-10.6,13.7l0,0c-0.2,0.4-0.5,0.7-0.9,1l-4.2,2.9    c-2,1.3-2.5,4-1.2,6C4.5,56.5,5,57,5.7,57.3l2.7,1.4c0.6,0.3,1,0.9,1.1,1.5c1.5,7.5,5,14.4,10.3,20c5.9,6.2,13.5,10.4,21.9,12.2    c0.4,0.1,0.7,0.3,0.9,0.5l0.6-0.6l0,0l-0.6,0.6l2.8,3c2,2.1,5.3,2.2,7.4,0.2c0.1-0.1,0.1-0.1,0.2-0.2l4.6-4.8l0,0    c0.2-0.2,0.4-0.3,0.6-0.4c7.2-4.1,13.1-10.2,17-17.5c3.6-6.8,4.4-14,4.4-20.3c0-3.4-0.2-6.6-0.4-9.3c-0.1-2.2-0.4-4.2-0.6-5.7    c3.6-2.7,7.9-4.3,12.4-4.5c1,0,2.1-0.2,3-0.5c0.6-0.2,1.1-0.5,1.5-0.9c0.5-0.5,0.8-1.1,0.9-1.8c0-0.2,0-0.3,0-0.5    C96.6,28.8,96.4,28.2,96.1,27.6L96.1,27.6z M50.5,27.2L50.5,27.2c0.2-0.5,0.6-0.9,1-1.3c0.7-0.5,1.6-0.9,2.5-1    c1-0.2,2.1-0.3,3.1-0.3c0.1,0,0.3,0,0.4-0.1c2.4,0.2,4.7,0.6,7,1.2c0.1,0.1,0.2,0.2,0.2,0.3c-1.1,1.8-2.5,3.4-4.1,4.8    c-0.9,0.7-1.8,1.4-2.8,1.8c-0.9,0.4-1.9,0.7-2.9,0.7c-0.9,0-1.8-0.2-2.6-0.7c-0.6-0.4-1.2-0.9-1.5-1.6c-0.4-0.7-0.6-1.6-0.6-2.4    C50.2,28.1,50.3,27.6,50.5,27.2z M54.3,16.7c-0.6-0.6-1-1.4-1.3-2.2l0,0c-0.3-0.9-0.2-1.9,0.3-2.7c0.2-0.4,0.6-0.8,1-1    c0.5-0.2,1-0.3,1.4-0.2c0.1,0,0.2,0,0.3,0c0.6,0,1.2,0.1,1.8,0.4c0.3,0.2,0.5,0.4,0.7,0.7c0.2,0.4,0.5,0.7,0.7,1.1    c1.3,2.5,2.3,5.2,2.8,8c0,0.1,0.1,0.3,0.1,0.4c-0.2-0.1-0.5-0.1-0.8-0.2c-1.7-0.6-3.3-1.4-4.8-2.4l0,0    C55.7,18,54.9,17.4,54.3,16.7L54.3,16.7z M72.7,71.8c-3.7,6.8-9.2,12.5-15.9,16.3c-0.4,0.3-0.8,0.6-1.2,0.9l0,0L51,93.9    c-0.9,0.9-2.4,1-3.4,0.1c0,0-0.1-0.1-0.1-0.1c-0.5-0.5-0.9-1-1.4-1.4h0.1c0.8,0,1.4-0.7,1.4-1.5c0-0.8-0.7-1.4-1.5-1.4    c-0.2,0-0.3,0-0.5,0c-0.9,0-1.8-0.1-2.7-0.2c-0.3,0-0.6,0-0.9,0.1c-7.7-1.7-14.8-5.6-20.3-11.3c-4.9-5.2-8.2-11.6-9.6-18.6    c-0.3-1.5-1.3-2.8-2.6-3.5L7,54.8c-0.3-0.1-0.5-0.3-0.6-0.6c-0.1-0.2-0.2-0.5-0.2-0.8c0-0.5,0.2-1,0.7-1.2l4.2-2.9    c0.8-0.5,1.4-1.2,1.8-2.1l0,0c2.4-4.9,5.8-9.3,9.9-12.8c9.6-8.3,20.5-9.5,25.2-9.9c0.3,0,0.6,0,0.9-0.1c-0.4,0.5-0.7,1-1,1.5l0,0    c-0.4,0.8-0.6,1.7-0.5,2.7c0,1.3,0.3,2.6,0.9,3.7c0.6,1.2,1.5,2.2,2.7,2.8c1.2,0.6,2.5,1,3.9,1c1.4,0,2.8-0.3,4.1-0.9    c1.9-0.9,3.6-2.2,5-3.7c1-1,1.9-2.1,2.7-3.2c1.3,1.5,2.7,3,4.2,4.6c1.7,1.7,3.3,3.2,4.9,4.6c0.2,1.5,0.5,3.7,0.7,6.2    c0.2,2.7,0.4,5.9,0.4,9.2C76.8,58.9,76,65.6,72.7,71.8z M93.8,29.6c0,0.1,0,0.2-0.1,0.2c-0.3,0.2-0.6,0.4-1,0.4    c-0.6,0.1-1.1,0.2-1.7,0.2c-4.9,0.2-9.6,1.9-13.5,4.8c-1.5-1.3-3-2.7-4.6-4.3c-2.1-2.1-4.1-4.3-5.9-6.7c0.8-5.8,1.5-11.6,2.3-17.4    c0.3-0.1,0.5-0.1,0.8-0.1c0.7,0,1.3,0.2,1.9,0.5c0.6,0.3,1.1,0.7,1.5,1.2c0.3,0.4,0.5,0.9,0.8,1.3c0.3,0.6,0.7,1.2,1.2,1.7l0,0    c0.1,0.1,0.2,0.1,0.2,0.2c-1.2,1.5-2.2,3-3.2,4.6c-0.4,0.7-0.2,1.5,0.5,1.9c0.7,0.4,1.5,0.2,1.9-0.5l0,0l0,0    c0.9-1.5,1.9-3,3.1-4.4c0.1-0.1,0.1-0.2,0.2-0.3c1,0.2,2,0.4,3,0.4c1,0,2,0.1,2.9,0.3c1.9,0.6,3.4,2.2,3.7,4.2    c0.1,0.5,0.1,1,0.1,1.6c0,0.3,0,0.7,0.1,1.1c-0.1,0-0.2,0.1-0.2,0.1c-2.3,1.6-4.7,3.1-7.1,4.6c-0.7,0.4-0.9,1.3-0.5,1.9    s1.3,0.9,1.9,0.5c0,0,0,0,0,0l0,0c2.3-1.4,4.5-2.9,6.7-4.4c0.1,0.2,0.3,0.4,0.4,0.6c0.7,1,1.6,1.9,2.5,2.7    c0.7,0.7,1.4,1.5,1.9,2.3C93.7,29.1,93.7,29.3,93.8,29.6L93.8,29.6z"/>

<polygon points="50.3,15.3 50.3,15.3 50.3,15.3   "/>

<polygon points="29.7,64.5 29.7,64.5 29.7,64.5   "/>

<path d="M54.7,41c-1,0.8-2,1.7-2.9,2.6c-1.5-1-3.3-1.5-5.1-1.5c-0.3,0-0.6,0-0.9,0c-2.2,0.2-4.2,1.2-5.8,2.7    c-0.7,0.7-1.4,1.5-1.8,2.4c-0.5,0.9-0.7,1.9-0.8,2.9l0,0v0l0,0v0.1c0,1.4,0.5,2.8,1.3,3.9c0.7,1,1.6,2,2.5,2.9    c0.9,0.9,1.9,1.7,3,2.5c0.7,0.5,1.3,1.1,1.7,1.8l0,0c0.7,1,1.1,2.1,1.2,3.3c0,0.3,0,0.5-0.1,0.8l0,0c-0.2,0.8-0.6,1.6-1.2,2.1    c-0.5,0.5-1,0.8-1.5,1.2c-1.2,0.7-2.6,1.1-4,1.1c-0.4,0-0.7,0-1.1-0.1c-1.6-0.3-3.1-1-4.2-2.1c-1.1-1.1-2-2.5-2.5-4l0,0    C32.2,62.8,32,62,32,61.1c0-1.2,0.2-2.5,0.7-3.6c0.3-0.7-0.1-1.6-0.8-1.8c-0.7-0.3-1.5,0.1-1.8,0.8l0,0c-0.6,1.5-0.9,3.1-0.9,4.7    c0,1.1,0.2,2.3,0.5,3.4c0.4,1.3,1,2.5,1.8,3.5c-0.8,0.9-1.5,1.7-2.2,2.7c-0.5,0.6-0.4,1.5,0.3,2c0.6,0.5,1.5,0.4,2-0.3l0,0l0,0    c0.6-0.8,1.2-1.5,1.9-2.3c1.5,1.3,3.3,2.1,5.3,2.4c0.5,0.1,1,0.1,1.5,0.1c1.9,0,3.9-0.5,5.5-1.5c0.7-0.4,1.4-1,2-1.6    c1-1,1.7-2.2,2-3.5l0,0c0.1-0.5,0.1-0.9,0.1-1.4c-0.1-1.7-0.6-3.4-1.6-4.8l0,0c-0.6-1-1.5-1.9-2.5-2.6c-0.9-0.6-1.8-1.3-2.6-2.1    c-0.8-0.8-1.5-1.6-2.2-2.5c-0.5-0.7-0.8-1.5-0.9-2.3v-0.1c0-0.6,0.2-1.1,0.4-1.7c0.5-1,1.2-1.8,2.1-2.4c1-0.7,2.1-1.1,3.2-1.2    c0.2,0,0.4,0,0.6,0c2.2,0,4.3,1.1,5.5,2.9c0.8,1.1,1.2,2.4,1.1,3.7c0,1-0.2,1.9-0.5,2.8c-0.3,0.7,0,1.6,0.7,1.9    c0.7,0.3,1.6,0,1.9-0.7c0.5-1.3,0.8-2.6,0.8-4c0-1.9-0.6-3.8-1.6-5.4c-0.2-0.3-0.4-0.5-0.6-0.7c0.8-0.8,1.6-1.5,2.5-2.2    c0.6-0.5,0.8-1.4,0.3-2C56.2,40.7,55.3,40.5,54.7,41C54.7,41,54.7,41,54.7,41z"/>

</g>

</g>

</svg>

