<?xml version="1.0" ?>

<!-- Uploaded to: SVG Repo, www.svgrepo.com, Generator: SVG Repo Mixer Tools -->
<svg width="800px" height="800px" viewBox="-4.4 0 101.809 101.809" xmlns="http://www.w3.org/2000/svg">

<title/>

<g data-name="Layer 2" id="Layer_2">

<g id="fill">

<path d="M86.886,34a50.071,50.071,0,0,0-8.237-9.378,27.421,27.421,0,0,0-7.062-5.837c-7.511-4.107-16.267-.978-23.274,2.73-8.685,4.6-14.747,12.136-22.009,18.509-5.745,5.041-12.334,8.5-17.451,14.079A4.975,4.975,0,0,0,3.4,56.672c-4.078,7.069-1.612,14.435,2.739,20.72a89.2,89.2,0,0,0,16.828,18.65c6.942,5.6,12.911,3.439,19.161-1.81Q52.451,85.56,62.375,76.42c.8-.737,1.588-1.5,2.388-2.236a5.127,5.127,0,0,0,2.965-1.639,130.094,130.094,0,0,1,10.411-9.861,5.307,5.307,0,0,0,4.1-1.478,57.5,57.5,0,0,0,6.79-6.98A4.67,4.67,0,0,0,91.5,51.949C94.822,45.246,90.743,39.471,86.886,34Z" style="fill:#efe7d2"/>

<path d="M58.323,29.066c-.23-5.489-.332-11.018-.774-16.495-.28-3.465-1.145-6.344-4.615-7.613a3.4,3.4,0,0,0-3.4.9c-2.148,2.57-2.634,5.988-3.052,9.232a158.4,158.4,0,0,0-1.172,15.828,184.781,184.781,0,0,0,1.8,30.355c.406,2.951,3.51,3.1,5.377,1.577,1.8.828,4.17.338,4.7-2.144C59.4,50.262,58.765,39.657,58.323,29.066Z" style="fill:#7b78cc"/>

<path d="M65.319,34.069c-.019-.006-.036-.018-.055-.026a1.691,1.691,0,0,0-.311-.164c-.016-.007-.028-.017-.044-.024-3.39-2.279-.887-16.077-1.231-19.245-.419-3.859-1.692-7.592-5.395-9.3-1.043-.481-2.73.346-2.2,1.694,2.773,7.1,2.424,13.377,2.579,20.772.083,3.914,1.408,7.09,4.953,8.754a5.271,5.271,0,0,0,.91.432C66.343,37.611,67.127,34.714,65.319,34.069Z" style="fill:#fdb913"/>

<path d="M53.657,64.25a1.515,1.515,0,0,0-1.446-1.1,1.408,1.408,0,0,0-.495.089A1.388,1.388,0,0,0,50.923,63a1.509,1.509,0,0,0-1.5,1.5c-.016.014-.034.024-.049.039a1.529,1.529,0,0,0,0,2.122,11.27,11.27,0,0,1,1.258,1.766,1.5,1.5,0,0,0,1.494.716,1.559,1.559,0,0,0,1.247-1.075A6.439,6.439,0,0,0,53.657,64.25Z" style="fill:#fdb913"/>

<path d="M49.911.813C46.042,2.686,44.955,8.071,44.5,11.869a106.409,106.409,0,0,0-.326,19.461c.285,4.474,7.287,4.506,7,0-.415-6.5-.91-13.857.49-20.3.073,1.015.174,2.035.187,2.951.053,3.839-.107,7.666-.385,11.494-.326,4.494,6.676,4.474,7,0C58.807,20.737,61.606-4.848,49.911.813Z" style="fill:#7b78cc"/>

</g>

<g data-name="line copy" id="line_copy">

<path d="M31.017,101.809a16.349,16.349,0,0,0,7.933-2.481,51.309,51.309,0,0,0,6.488-4.6c7.288-5.858,14.167-12.16,21.156-18.238,6.629-5.77,12.744-11.94,19.612-17.066a28.123,28.123,0,0,0,4.3-3.67,10.469,10.469,0,0,0,1.7-2.531,8.4,8.4,0,0,0,.784-3.2c.006-.138.009-.275.009-.41a14.088,14.088,0,0,0-2.194-6.923,55.04,55.04,0,0,0-3.868-5.53c-5.027-6.638-11.6-13.591-18.712-18.219A11.739,11.739,0,0,0,65.7,17.685,17.791,17.791,0,0,0,64.533,12.5a19.913,19.913,0,0,0-3.178-5.79,10.315,10.315,0,0,0-5.97-3.569,1.494,1.494,0,0,0-.618.006,3.473,3.473,0,0,0-1.838-.519,4.66,4.66,0,0,0-2.5.81A9.085,9.085,0,0,0,49.107,4.5,13.085,13.085,0,0,0,46.26,8.7a28.473,28.473,0,0,0-1.942,6.693,32.593,32.593,0,0,0-.411,3.3h0c-.243,4.174-.445,7.619-.6,10.5A416.022,416.022,0,0,1,6.8,54.843a16.593,16.593,0,0,0-5.1,4.571A9.414,9.414,0,0,0,0,64.829a13.369,13.369,0,0,0,1.04,4.9,29.99,29.99,0,0,0,2.732,5.126A123.093,123.093,0,0,0,24.226,99.109L25.235,98l-1.009,1.11A9.87,9.87,0,0,0,31.017,101.809Zm31.73-82.761a33.648,33.648,0,0,1-.351,4.245c-.19,1.5-.41,3.109-.5,4.916h0c-.007.16-.011.32-.011.48a7.239,7.239,0,0,0,.614,3.043,6.84,6.84,0,0,0,1.8,2.346,5.394,5.394,0,0,0,.974.644c.36.189.651.343.807.446a2.732,2.732,0,0,1-.23.42,2.014,2.014,0,0,1-.657.679,1.107,1.107,0,0,1-.576.151,2.7,2.7,0,0,1-1.271-.405,8.158,8.158,0,0,1-2.958-3.229,3.719,3.719,0,0,1-.339-.963,1.469,1.469,0,0,0-.284-.645q-.021-1.164-.046-2.354c-.083-3.8-.2-7.741-.376-11.178a79.43,79.43,0,0,0-.711-8.2,10.306,10.306,0,0,0-.493-1.724,8.847,8.847,0,0,1,.924.932,17.059,17.059,0,0,1,2.668,4.927A14.782,14.782,0,0,1,62.747,19.048ZM56.908,44.531c0,.252,0,.56,0,.919a67.66,67.66,0,0,1-.53,8.788A40.769,40.769,0,0,1,54.946,61a15.565,15.565,0,0,0-2.261-.186,15.74,15.74,0,0,0-3.831.475,73.837,73.837,0,0,1-2.932-20.754q-.007-.447-.008-.942c0-.433,0-.9.014-1.4a1.516,1.516,0,0,0,.177-.238,2.216,2.216,0,0,1,.474-.18,19.578,19.578,0,0,1,5.505-.787,19.185,19.185,0,0,1,4.774.61C56.9,41.215,56.905,43.887,56.908,44.531ZM52.2,66.742a2.061,2.061,0,0,1-.448.4l-.092.044-.083-.044a2.318,2.318,0,0,1-.54-.578,10.21,10.21,0,0,1-1.015-1.926c-.067-.159-.127-.33-.191-.494a12.775,12.775,0,0,1,2.854-.332c.4,0,.79.03,1.182.067-.164.365-.333.726-.514,1.073A9.2,9.2,0,0,1,52.2,66.742ZM46.9,18.868v-.017a32.369,32.369,0,0,1,.816-5.1,22.024,22.024,0,0,1,1.332-3.945,9.995,9.995,0,0,1,2.11-3.122,6.264,6.264,0,0,1,.887-.722,1.782,1.782,0,0,1,.881-.335l.1.008a.575.575,0,0,1,.241.1,2.847,2.847,0,0,1,.492.439,7.784,7.784,0,0,1,1.522,2.46,7.227,7.227,0,0,1,.39,1.307v0a77.589,77.589,0,0,1,.672,7.847c.259,5.137.4,11.472.472,16.7a22.257,22.257,0,0,0-4.735-.511,22.565,22.565,0,0,0-6.05.832c.152-3.677.445-8.721.868-15.951l-1.5-.088ZM6.293,73.23a27.029,27.029,0,0,1-2.463-4.6,10.37,10.37,0,0,1-.83-3.8,6.381,6.381,0,0,1,1.177-3.722,13.706,13.706,0,0,1,4.2-3.715A414.21,414.21,0,0,0,43.105,33.144c-.125,2.687-.191,4.757-.191,6.445q0,.52.008,1A75.837,75.837,0,0,0,46.284,63.13a24.694,24.694,0,0,0,1.754,4.291A7.3,7.3,0,0,0,49.4,69.23a4.208,4.208,0,0,0,.614.458c-.01.213-.021.427-.032.64a1.188,1.188,0,0,0-.666.7,1.489,1.489,0,0,0-1.1,1.542q.074,1.026.146,2.05c-.067-.023-.132-.046-.206-.066a2.539,2.539,0,0,0-.6-.073,2.724,2.724,0,0,0-1.385.388,2.842,2.842,0,0,0-.963.933,3.331,3.331,0,0,0-.441,1.179,6.684,6.684,0,0,0-.087.887q-.057,1.167-.113,2.336v0c0,.029,0,.045,0,.07a1.1,1.1,0,0,1-.392-.143,4.942,4.942,0,0,1-.724-.629,8.057,8.057,0,0,0-1.17-1,4.067,4.067,0,0,0-2.212-.672,3.166,3.166,0,0,0-1.094.186,2.633,2.633,0,0,0-1.067.716,2.72,2.72,0,0,0-.61,1.205,4.833,4.833,0,0,0-.106.871q-.129,2.551-.257,5.1l-2.589-3.272a3.812,3.812,0,0,0-.691-.692,2.387,2.387,0,0,0-1.436-.5,2.2,2.2,0,0,0-1.342.459,2.412,2.412,0,0,0-.762,1.069,3.319,3.319,0,0,0-.194.923c-.016.236-.024.471-.024.7a10.645,10.645,0,0,0,1.276,5.026A1.5,1.5,0,0,0,33.8,88.2h0a7.76,7.76,0,0,1-.814-2.431l2.516,3.181,0,0a3.571,3.571,0,0,0,.634.641,2.3,2.3,0,0,0,1.388.487h.032A2.153,2.153,0,0,0,38.77,89.7a2.43,2.43,0,0,0,.873-1.176,3.5,3.5,0,0,0,.2-1.024q.165-3.273.33-6.542c0-.049.005-.08.008-.12A1.159,1.159,0,0,1,40.6,81a5.353,5.353,0,0,1,.735.646,7.618,7.618,0,0,0,1.19,1,4.032,4.032,0,0,0,2.157.637,3.2,3.2,0,0,0,1.134-.2,2.613,2.613,0,0,0,1.1-.776l0,0a2.694,2.694,0,0,0,.542-1.143,4.861,4.861,0,0,0,.094-.812v0q.056-1.165.113-2.333c.007-.153.016-.269.027-.367.053.035.111.075.175.119a3.8,3.8,0,0,0,.551.31,2.3,2.3,0,0,0,.941.21,2.1,2.1,0,0,0,1.019-.267,2.061,2.061,0,0,0,.918-1.072,2.563,2.563,0,0,0,.156-.917c0-.118-.006-.215-.011-.291v0l-.12-1.677a1.5,1.5,0,0,0,.888-.782,2.369,2.369,0,0,0,.225-.983,1.5,1.5,0,0,0,.5-1.042q.036-.693.07-1.386c.1-.048.2-.1.284-.15A5.713,5.713,0,0,0,54.9,68.169a14.076,14.076,0,0,0,1.115-1.834,36.122,36.122,0,0,0,3.341-11.7,70.823,70.823,0,0,0,.555-9.18c0-.369,0-.684,0-.931,0-.676-.011-3.572-.055-7.456a11.065,11.065,0,0,0,.852.767,8.2,8.2,0,0,0,1.8,1.113,5.27,5.27,0,0,0,2.11.474,4.126,4.126,0,0,0,2.08-.555,4.986,4.986,0,0,0,1.67-1.643,5.409,5.409,0,0,0,.547-1.061,3.248,3.248,0,0,0,.214-1.125,2.62,2.62,0,0,0-.586-1.653,4.507,4.507,0,0,0-1.464-1.1,5.246,5.246,0,0,1-.818-.475,3.822,3.822,0,0,1-1.028-1.32,4.253,4.253,0,0,1-.345-1.8c0-.107,0-.218.009-.335h0c.078-1.647.283-3.166.476-4.68.115-.908.222-1.818.293-2.745a9.875,9.875,0,0,1,.926.53C73.264,25.788,79.68,32.533,84.545,38.97a52.688,52.688,0,0,1,3.666,5.224A11.222,11.222,0,0,1,90,49.613q0,.141-.006.276a5.388,5.388,0,0,1-.507,2.063,8.769,8.769,0,0,1-2.057,2.654,36.482,36.482,0,0,1-3.019,2.41c-7.1,5.309-13.266,11.539-19.786,17.207C57.6,80.335,50.747,86.609,43.559,92.385a48.478,48.478,0,0,1-6.1,4.34,13.485,13.485,0,0,1-6.443,2.084,6.829,6.829,0,0,1-4.774-1.92h0A120.137,120.137,0,0,1,6.293,73.23Z"/>

<polygon points="58.632 9.439 58.632 9.44 58.633 9.443 58.632 9.439"/>

<path d="M39.734,54.565a1.5,1.5,0,1,0-1.9-2.324Q27.592,60.6,16.929,68.428A1.5,1.5,0,1,0,18.7,70.846h0Q29.426,62.977,39.734,54.565Z"/>

<path d="M42.041,66.916a1.5,1.5,0,0,0-1.769-2.424L22.649,77.351a1.5,1.5,0,0,0,1.769,2.424h0Z"/>

<polygon points="29.908 83.893 29.908 83.892 29.908 83.891 29.908 83.893"/>

<path d="M64.528,50.82h0L73.9,43.267a1.5,1.5,0,1,0-1.882-2.336l-9.372,7.553a1.5,1.5,0,1,0,1.883,2.336Z"/>

<path d="M64.291,62.3h0L79.2,50.093a1.5,1.5,0,0,0-1.9-2.321l-14.9,12.2a1.5,1.5,0,1,0,1.9,2.321Z"/>

</g>

</g>

</svg>

