<svg version="1.1" id="_x32_"
 xmlns="http://www.w3.org/2000/svg" xmlns:xlink="http://www.w3.org/1999/xlink" viewBox="0 0 512 512"
 xml:space="preserve" fill="#000000">
 <g id="SVGRepo_bgCarrier" stroke-width="0"></g>
 <g id="SVGRepo_tracerCarrier" stroke-linecap="round" stroke-linejoin="round"></g>
 <g id="SVGRepo_iconCarrier">
   <style type="text/css">
     .st0 {
        fill: #737373;
      }
     .st1 {
       fill: #FFA700;
     }
   </style>
   <g>
     <path class="st0"
       d="M485.911,271.966c-3.403-8.208-8.058-15.84-13.674-22.89c-5.617-7.042-12.186-13.517-19.496-19.471 l-0.449-0.363l0.433,0.363c-21.961-17.849-50.861-31.492-84.338-41.07h-0.008c-33.508-9.524-71.736-14.841-112.38-14.841 c-30.972,0-60.526,3.088-87.67,8.767c-27.144,5.68-51.877,13.95-73.208,24.49l-0.016,0.007 c-21.307,10.571-39.424,23.442-52.87,39.141l0.244-0.3l-0.252,0.3c-6.711,7.861-12.256,16.486-16.139,25.867 c-3.892,9.39-6.058,19.512-6.05,29.932v81.873c-0.008,10.43,2.158,20.56,6.05,29.948c3.402,8.208,8.058,15.832,13.674,22.882 c5.624,7.051,12.185,13.517,19.496,19.472l0.015,0.008c21.961,17.833,50.854,31.507,84.33,41.07l0.182,0.04 c33.469,9.491,71.632,14.8,112.214,14.808h0.008c30.964-0.008,60.518-3.096,87.662-8.775c27.144-5.68,51.878-13.958,73.208-24.489 l0.016-0.016c21.307-10.571,39.417-23.45,52.87-39.132l0.008-0.016c6.711-7.845,12.249-16.462,16.132-25.852l-0.244,0.575 l0.252-0.575c3.883-9.389,6.05-19.519,6.05-29.948v-81.873C491.961,291.478,489.794,281.356,485.911,271.966z M72.838,426.41 c-2.481-2.34-4.798-4.718-6.861-7.121c-4.892-5.735-8.562-11.603-11.012-17.51c-2.45-5.924-3.678-11.887-3.678-18.007v-37.116 c4.782,5.9,10.429,11.469,16.818,16.683c1.536,1.237,3.111,2.458,4.734,3.671V426.41z M118.083,454.932 c-3.111-1.355-6.176-2.741-9.113-4.206c-6.846-3.387-13.146-7.002-18.897-10.775v-61.676c8.578,4.923,17.952,9.436,28.01,13.501 V454.932z M174.111,472.505c-14.194-3.002-27.514-6.759-39.794-11.146h1.016v-63.291c3.947,1.307,7.995,2.544,12.122,3.726 c8.539,2.426,17.456,4.553,26.656,6.404V472.505z M247.374,480.658c-19.519-0.394-38.282-2.174-56.02-5.041v-64.402 c17.841,2.757,36.604,4.372,56.02,4.75V480.658z M322.804,475.23c-18.368,3.064-37.857,4.986-58.179,5.38v-64.607 c20.196-0.394,39.708-2.15,58.179-5.081V475.23z M378.833,460.966c-6.081,2.205-12.414,4.253-19.008,6.128 c-6.364,1.812-12.997,3.426-19.787,4.907v-64.228c13.651-2.82,26.632-6.332,38.794-10.436V460.966z M424.085,438.484 c-8.16,5.593-17.549,10.792-28.018,15.518v-63.126c5.041-2.088,9.933-4.278,14.604-6.585c4.671-2.324,9.137-4.758,13.414-7.279 V438.484z M460.713,383.771c0,6.12-1.229,12.084-3.687,18.007c-3.15,7.656-8.436,15.273-15.706,22.575v-58.242h-1.024 c7.152-5.459,13.494-11.28,18.826-17.51c0.544-0.638,1.063-1.284,1.592-1.93V383.771z M457.026,319.89 c-4.253,10.335-12.366,20.591-24.024,30.082c-17.448,14.241-42.756,26.593-73.177,35.234 c-30.413,8.664-65.922,13.666-103.825,13.666c-57.746,0.024-109.978-11.658-147.03-30.034 c-18.526-9.161-33.209-19.968-42.992-31.445c-4.892-5.726-8.562-11.595-11.012-17.502c-2.45-5.924-3.678-11.878-3.678-17.991 c0-6.112,1.228-12.066,3.678-17.99c4.269-10.342,12.368-20.598,24.033-30.074c17.455-14.25,42.756-26.609,73.177-35.25 c30.412-8.656,65.93-13.65,103.826-13.65c57.746-0.032,109.97,11.658,147.022,30.026c18.535,9.153,33.226,19.976,42.992,31.437 c4.899,5.726,8.57,11.595,11.012,17.51c2.458,5.924,3.687,11.878,3.687,17.99C460.713,308.012,459.484,313.966,457.026,319.89z">
     </path>
     <path class="st1"
       d="M326.27,86.016l57.667,15.305c1.504,0.306,2.726,1.536,3.072,3.048l15.202,57.667 c0.41,1.694,1.898,2.883,3.631,2.883c1.749,0,3.222-1.189,3.616-2.883l15.226-57.667c0.323-1.512,1.551-2.742,3.056-3.048 l57.675-15.305c1.685-0.316,2.883-1.82,2.883-3.552c0-1.749-1.198-3.222-2.883-3.56l-57.675-15.297 c-1.505-0.323-2.734-1.536-3.056-3.049L409.458,2.891C409.064,1.213,407.591,0,405.842,0c-1.733,0-3.222,1.213-3.631,2.891 l-15.202,57.667c-0.347,1.512-1.568,2.726-3.072,3.049L326.27,78.904c-1.701,0.339-2.883,1.812-2.883,3.56 C323.387,84.196,324.569,85.701,326.27,86.016z">
     </path>
     <path class="st0"
       d="M396.673,313.762l-26.175-6.94c-0.686-0.157-1.244-0.693-1.394-1.386l-6.9-26.175 c-0.182-0.764-0.851-1.308-1.646-1.308c-0.78,0-1.458,0.544-1.646,1.308l-6.9,26.175c-0.157,0.694-0.709,1.229-1.394,1.386 l-26.167,6.94c-0.772,0.149-1.316,0.827-1.316,1.614c0,0.788,0.544,1.466,1.316,1.623l26.167,6.932 c0.686,0.142,1.237,0.709,1.394,1.402l6.9,26.159c0.189,0.764,0.866,1.308,1.646,1.308c0.795,0,1.465-0.544,1.646-1.308l6.9-26.159 c0.15-0.693,0.709-1.26,1.394-1.402l26.175-6.932c0.757-0.157,1.308-0.835,1.308-1.623 C397.981,314.589,397.43,313.911,396.673,313.762z">
     </path>
     <path class="st1"
       d="M37.841,140.075l41.204,10.918c1.088,0.228,1.946,1.103,2.206,2.189l10.854,41.204 c0.299,1.221,1.363,2.064,2.6,2.064c1.244,0,2.3-0.843,2.592-2.064l10.862-41.204c0.228-1.086,1.118-1.961,2.197-2.189 l41.212-10.918c1.205-0.252,2.064-1.339,2.064-2.568c0-1.229-0.859-2.284-2.064-2.536l-41.212-10.933 c-1.079-0.236-1.969-1.087-2.197-2.174L97.296,80.636c-0.291-1.197-1.347-2.048-2.592-2.048c-1.237,0-2.3,0.851-2.6,2.048 L81.25,121.864c-0.26,1.087-1.118,1.938-2.206,2.174l-41.204,10.933c-1.228,0.252-2.071,1.307-2.071,2.536 C35.769,138.736,36.612,139.824,37.841,140.075z">
     </path>
     <path class="st0"
       d="M263.979,233.528c-21.992,0.709-33.02,0.646-55.02-0.236c-1.212-0.048-2.087,0.63-2.15,1.732 c-2.827,48.506-4.214,72.752-7.042,121.297c-0.063,1.111,0.866,1.883,2.324,1.946c15.139,0.614,22.717,0.772,37.864,0.756 c1.466,0.008,2.395-0.756,2.395-1.859c0.024-15.533,0.04-23.292,0.063-38.809c0-0.74,0.472-1.127,1.386-1.134 c9.176-0.04,13.745-0.127,22.906-0.418c37.809-1.213,55.65-21.543,52.933-45.308C316.857,247.352,297.55,232.425,263.979,233.528z M263.625,289.485c-7.94,0.236-11.902,0.283-19.842,0.339c-0.874,0.008-1.323-0.355-1.323-1.096 c0.016-10.516,0.024-15.769,0.032-26.292c0.007-0.725,0.41-1.103,1.26-1.119c7.609-0.032,11.421-0.102,19.023-0.331 c11.618-0.347,18.472,4.774,18.968,13.414C282.238,283.042,275.747,289.115,263.625,289.485z">
     </path>
   </g>
 </g>
</svg>
