<?xml version="1.0" ?>

<!-- Uploaded to: SVG Repo, www.svgrepo.com, Generator: SVG Repo Mixer Tools -->
<svg width="800px" height="800px" viewBox="0 0 100 100" id="Layer_1" version="1.1" xml:space="preserve" xmlns="http://www.w3.org/2000/svg" xmlns:xlink="http://www.w3.org/1999/xlink">

<style type="text/css">
	.st0{fill:#EFE7D2;}
	.st1{fill:none;}
</style>

<title/>

<g>

<g id="fill">

<path class="st0" d="M82.7,20.7c-3.3-4.7-7.1-9.1-11.2-13c-5-4.7-9.9-6.7-16.5-3.7c-5.6,2.5-10.6,6.9-15.6,10.6l-17,12.3    c-4.7,3.4-9.5,6.5-11.4,12.4c-0.4,1.4-0.7,2.8-0.7,4.3c-0.3,0.1-0.5,0.2-0.8,0.3l-0.3,0.1h0L9,44c-2.1,0.7-4.3,2.4-4.7,4.7l0,0.2    c-0.1,0.6-0.1,1.2-0.1,1.8c-1,2.5-0.4,5.3,1.5,7.2c0.2,0.1,0.3,0.3,0.5,0.4c0.1,2,0.7,4,1.7,5.8c1.9,3.3,5,5.5,7.8,8    c3.1,2.7,6,5.5,8.9,8.4c5,5,10.7,14.5,18.7,14.5c4.2,0,7.6-2.7,10.9-5l10.6-7.4c6.8-4.7,13.7-9.3,20.3-14.3c3.3-2.3,5.9-5.4,7.7-9    c2-1.1,3.2-3.3,3.1-5.6C95.8,41.8,89.5,30.1,82.7,20.7z"/>

</g>

<g id="line_copy">

<path class="st1" d="M15.9,53.1C16,53.1,16,53.1,15.9,53.1c-0.6-0.8-1.2-1.5-1.8-2.2l1.6,2.3C15.8,53.2,15.9,53.2,15.9,53.1z"/>

<path class="st1" d="M19.7,57.3c-0.6-0.7-1.2-1.4-1.8-2.1c-0.1,0.2-0.3,0.3-0.5,0.4l1.5,2.1C19.1,57.6,19.4,57.4,19.7,57.3z"/>

<path class="st1" d="M26,65.3c-0.5-0.7-1.1-1.5-1.6-2.2c-0.1,0.2-0.2,0.4-0.4,0.5l-0.6,0.5l1.4,2C25.2,65.8,25.6,65.5,26,65.3z"/>

<path class="st1" d="M34.2,77.6C34.2,77.5,34.3,77.5,34.2,77.6c-0.3-0.7-0.8-1.4-1.2-2.1c-0.3,0.3-0.6,0.6-0.9,0.8l1.4,1.9    C33.7,78,33.9,77.7,34.2,77.6z"/>

<path class="st1" d="M31.1,73.3c0.1-0.1,0.3-0.2,0.4-0.3c-0.3-0.5-0.7-1-1-1.5c-0.1,0.1-0.1,0.1-0.2,0.1c-0.3,0.2-0.6,0.5-0.9,0.7    l1.1,1.5C30.6,73.7,30.8,73.5,31.1,73.3z"/>

<path class="st1" d="M22,61.4c0.2-0.2,0.4-0.3,0.7-0.3c-0.4-0.5-0.8-1.1-1.3-1.6c-0.1,0.1-0.2,0.2-0.3,0.3    c-0.2,0.1-0.4,0.2-0.6,0.3l1.1,1.6L22,61.4z"/>

<path class="st1" d="M28.6,69.3c0.1,0,0.1-0.1,0.2-0.1c-0.4-0.5-0.7-1-1.1-1.6c-0.4,0.3-0.8,0.5-1.2,0.8l1.1,1.6    C27.9,69.7,28.3,69.5,28.6,69.3z"/>

<path class="st1" d="M38.1,83.9c-0.8-1.3-1.5-2.7-2.3-3.9c-0.2,0.2-0.5,0.4-0.7,0.6l5,7C39.4,86.4,38.8,85.2,38.1,83.9z"/>

<path d="M96,49.9c-1.5-3.3-8-17-21.6-33.4c-2.1-2.6-5-5.9-8.5-9.6c-2.3-2.4-5.9-2.8-8.6-1.1L58,7.1l-0.8-1.2    c-9.6,5.9-19.5,12.5-29.6,19.9c-5.6,4-10.9,8-16,12c-2.9,2.3-3.4,6.5-1.2,9.4c0,0,0,0,0,0l-5.4,4.5c-2.5,2.1-2.8,5.8-0.8,8.3    c10.1,12.2,21.3,23.5,33.4,33.8c1,0.9,2.1,1.6,3.2,2.3c1.2,0.7,2.6,1.1,4,1.2c0,0,0.1,0,0.1,0c0.1,0.1,0.2,0.1,0.3,0.2    c0.4,0.1,0.8,0.1,1.2-0.1c14.4-8,27.9-17.6,40.1-28.6c2.5-2.2,4.8-4.4,7-6.6c2.1-2,3.2-4.8,3.2-7.7C97,52.9,96.7,51.4,96,49.9    L96,49.9z M58.8,8.3L58.8,8.3c1.6-1,3.7-0.7,5,0.6c3.5,3.7,6.3,6.9,8.4,9.4c13.3,16.1,19.7,29.6,21.2,32.7l0,0.1    c0.5,1,0.7,2.1,0.7,3.2c0,2.1-0.9,4.1-2.4,5.6c-2.2,2.2-4.5,4.4-6.9,6.5C73.1,77.1,60.3,86.3,46.5,94c-1.8-3.8-3.7-7.6-5.9-11.5    C33.1,69.1,23.8,56.7,13,45.6c-1.5-1.5-1.4-3.9,0.1-5.3c0.1-0.1,0.2-0.2,0.3-0.3c5.1-4,10.4-7.9,15.9-11.9    C39.4,20.8,49.2,14.2,58.8,8.3z M5.9,56.2c0-0.9,0.4-1.7,1.1-2.3l5.5-4.6c0.5,0.6,1.1,1.1,1.6,1.7c0.6,0.7,1.3,1.4,1.9,2.1    c0,0-0.1,0-0.1,0c-0.1,0-0.1,0.1-0.2,0.1c-1.6,0.9-3.1,2.2-4.3,3.6c-0.5,0.6-0.4,1.5,0.2,2c0.6,0.5,1.5,0.4,2-0.2c0,0,0,0,0,0l0,0    c1-1.2,2.3-2.3,3.7-3.1c0,0,0,0,0,0c0.2-0.1,0.3-0.3,0.5-0.4c0.6,0.7,1.2,1.4,1.8,2.1c-0.3,0.1-0.5,0.3-0.8,0.5    c-1.5,0.9-3,2.1-4.3,3.3c-0.6,0.5-0.6,1.5-0.1,2c0.5,0.6,1.5,0.6,2,0.1c0,0,0,0,0.1-0.1l0,0c1.2-1.2,2.5-2.2,3.9-3    c0.2-0.1,0.4-0.2,0.6-0.3c0.1-0.1,0.2-0.2,0.3-0.3c0.4,0.5,0.8,1.1,1.3,1.6c-0.3,0-0.5,0.2-0.7,0.3l-0.3,0.3    c-1,0.9-2.1,1.8-3.1,2.8c-0.6,0.5-0.7,1.4-0.1,2c0.5,0.6,1.4,0.7,2,0.1l0,0l2.9-2.6l0.6-0.5c0.2-0.1,0.3-0.3,0.4-0.5    c0.5,0.7,1.1,1.4,1.6,2.2c-0.4,0.3-0.8,0.5-1.1,0.8c-1,0.8-2,1.6-2.8,2.6c-0.5,0.6-0.5,1.5,0.1,2c0.6,0.5,1.5,0.5,2-0.1l0,0    c0.7-0.8,1.5-1.5,2.3-2.1c0.4-0.3,0.8-0.6,1.2-0.8c0.4,0.5,0.7,1,1.1,1.6c-0.1,0-0.1,0.1-0.2,0.1c-0.3,0.2-0.7,0.5-1,0.7    c-0.9,0.7-1.7,1.5-2.4,2.4c-0.5,0.6-0.4,1.5,0.2,2s1.5,0.4,2-0.2l0,0c0.6-0.7,1.2-1.3,1.9-1.8c0.3-0.2,0.6-0.5,0.9-0.7    c0.1,0,0.1-0.1,0.2-0.1c0.3,0.5,0.7,1,1,1.5c-0.1,0.1-0.3,0.1-0.4,0.3c-0.2,0.2-0.4,0.4-0.7,0.6c-0.6,0.5-1.3,1.1-1.9,1.5    c-0.7,0.5-0.8,1.4-0.4,2c0.5,0.7,1.4,0.8,2,0.4l0,0c0.7-0.5,1.3-1,2-1.5c0.3-0.3,0.6-0.5,0.9-0.8c0.4,0.7,0.9,1.4,1.3,2.1    c0,0-0.1,0-0.1,0c-1,0.7-1.8,1.5-2.3,2.6c-0.4,0.7-0.1,1.6,0.6,2c0.7,0.4,1.6,0.1,2-0.6c0,0,0,0,0,0l0,0c0.2-0.3,0.4-0.6,0.7-0.9    c0.2-0.2,0.4-0.4,0.7-0.6c0.8,1.3,1.5,2.6,2.3,3.9c0.7,1.2,1.3,2.4,2,3.6c1.1,2.2,2.2,4.3,3.2,6.4c-0.3-0.1-0.6-0.3-0.9-0.4    c-1-0.6-1.9-1.2-2.7-2c-12-10.1-23-21.3-33-33.4C6.2,57.6,5.9,56.9,5.9,56.2z"/>

<path d="M19.5,45.1c0.5,0.6,1.5,0.6,2,0.1l0,0c4.9-4.5,10.3-8.4,16.1-11.7c0.7-0.4,1-1.2,0.6-1.9c-0.4-0.7-1.2-1-1.9-0.6    c0,0-0.1,0-0.1,0.1c-6,3.4-11.5,7.5-16.6,12.1C19,43.6,19,44.5,19.5,45.1z"/>

<path d="M22.5,49.9c0.5,0.6,1.4,0.7,2,0.2c0,0,0,0,0,0l0,0c5.1-4.4,10.4-8.5,15.8-12.4c0.7-0.5,0.8-1.4,0.3-2    c-0.5-0.7-1.4-0.8-2-0.3l0,0c-5.5,4-10.9,8.2-16,12.6C22.1,48.4,22,49.3,22.5,49.9C22.5,49.9,22.5,49.9,22.5,49.9z"/>

<path d="M45.5,41.5c0.6-0.5,0.8-1.4,0.3-2c-0.5-0.6-1.4-0.8-2-0.3L26.4,51.9c-0.6,0.5-0.8,1.4-0.3,2c0.5,0.6,1.4,0.8,2,0.3l0,0    C33.9,50,39.7,45.7,45.5,41.5z"/>

<path d="M48.8,46.2c0.7-0.4,0.9-1.3,0.5-2c-0.4-0.7-1.3-0.9-2-0.5c-6.3,3.8-12.2,8.1-17.7,12.9c-0.6,0.5-0.7,1.4-0.2,2    c0.5,0.6,1.4,0.7,2,0.2l0,0l0,0C36.8,54.1,42.6,49.9,48.8,46.2z"/>

<path d="M52.3,50.3c0.7-0.4,0.9-1.3,0.5-2c-0.4-0.7-1.3-0.9-2-0.5c-6.1,3.7-11.8,7.9-17.1,12.7c-0.6,0.5-0.6,1.5-0.1,2    c0.5,0.6,1.4,0.6,2,0.1l0,0C40.8,58.1,46.3,53.9,52.3,50.3z"/>

<path d="M39.4,69.4c0.5,0.7,1.4,0.8,2,0.4l0,0c12.7-8.8,25.3-17.9,37.7-27.1c0.6-0.5,0.8-1.4,0.3-2c-0.5-0.6-1.4-0.8-2-0.3    C65,49.5,52.4,58.5,39.8,67.3C39.1,67.8,38.9,68.7,39.4,69.4z"/>

<path d="M46.2,76.5c3.6-2.6,7.2-5,10.9-7.4c0.7-0.4,0.9-1.3,0.5-2c-0.4-0.7-1.3-0.9-2-0.5c0,0,0,0,0,0c-3.7,2.4-7.4,4.9-11,7.5    c-0.6,0.5-0.7,1.4-0.2,2C44.7,76.7,45.6,76.9,46.2,76.5z"/>

<path d="M48.3,81.2c3.7-2.9,7.6-5.4,11.8-7.6c0.7-0.4,1-1.2,0.6-2s-1.2-1-2-0.6c-4.3,2.2-8.4,4.9-12.2,7.9c-0.6,0.5-0.7,1.4-0.2,2    C46.8,81.6,47.7,81.7,48.3,81.2L48.3,81.2L48.3,81.2z"/>

<path d="M60.5,76.1c-4.2,2.3-8.3,5.1-12,8.2c-0.6,0.5-0.7,1.4-0.2,2c0.5,0.6,1.4,0.7,2,0.2l0,0c3.6-3,7.5-5.6,11.6-7.8    c0.7-0.4,1-1.3,0.6-2C62.1,76,61.2,75.7,60.5,76.1z"/>

<path d="M71.1,56.7c-0.4-0.7-1.2-1-2-0.6c0,0,0,0,0,0c-3.2,1.6-6.1,3.6-8.9,5.9c-0.6,0.5-0.7,1.4-0.2,2c0.5,0.6,1.4,0.7,2,0.2    c0,0,0,0,0.1-0.1l0,0c2.6-2.2,5.4-4,8.4-5.6C71.2,58.3,71.5,57.4,71.1,56.7z"/>

<path d="M73.3,63.3c0.7-0.4,1-1.2,0.7-1.9c-0.3-0.7-1.2-1-1.9-0.7c-3.4,1.6-6.6,3.8-9.3,6.5c-0.6,0.6-0.6,1.5,0,2.1    c0.6,0.6,1.5,0.6,2.1,0l0,0C67.3,66.8,70.2,64.8,73.3,63.3z"/>

<path d="M74.3,65.2c-3.1,2-6,4.3-8.6,6.8c-0.6,0.5-0.6,1.5-0.1,2c0.5,0.6,1.5,0.6,2,0.1c0,0,0,0,0.1-0.1l0,0    c2.5-2.4,5.3-4.6,8.2-6.5c0.7-0.4,0.9-1.3,0.5-2S75,64.7,74.3,65.2C74.3,65.2,74.3,65.2,74.3,65.2L74.3,65.2z"/>

<path d="M74.2,54.2c0.5,0.6,1.4,0.8,2,0.3l0,0l6.9-5.2c0.6-0.5,0.8-1.4,0.3-2c-0.5-0.6-1.4-0.8-2-0.3l0,0    c-2.3,1.7-4.6,3.5-6.9,5.2C73.8,52.7,73.7,53.6,74.2,54.2z"/>

<path d="M76.4,59.2c0.5,0.6,1.5,0.6,2,0.1c0,0,0,0,0,0l0,0c2.3-2.1,4.8-4.1,7.5-5.7c0.7-0.4,0.9-1.3,0.5-2c-0.4-0.7-1.3-0.9-2-0.5    c-2.8,1.8-5.5,3.8-8,6C75.9,57.7,75.9,58.6,76.4,59.2C76.4,59.2,76.4,59.2,76.4,59.2z"/>

<path d="M78.9,63.5c0.5,0.6,1.4,0.7,2,0.2c0,0,0,0,0,0l0,0c2.4-2.1,4.9-4,7.6-5.7c0.7-0.4,0.9-1.3,0.4-2c-0.4-0.7-1.3-0.9-2-0.4    c-2.8,1.8-5.4,3.8-7.9,5.9C78.4,61.9,78.3,62.9,78.9,63.5z"/>

<polygon points="61.1,15.6 61.1,15.6 61.1,15.6   "/>

<polygon points="57.3,24.4 57.3,24.4 57.3,24.4   "/>

<path d="M42.3,29.5c4.9,5.3,9,11.3,12.1,17.9c0.3,0.7,1.2,1,1.9,0.7c0,0,0.1,0,0.1-0.1C62.8,44,69,39.9,75,35.4    c0.7-0.5,0.8-1.4,0.4-2c-0.5-0.7-1.4-0.8-2-0.4c0,0,0,0-0.1,0c-5.1,3.8-10.4,7.4-15.9,10.9c-0.2-4.3-0.4-8.5-0.6-12.8    c2.3,0.5,4.6,0.9,6.9,1.1c0.8,0.1,1.5-0.5,1.6-1.3c0-0.1,0-0.2,0-0.3c-0.5-3.5-1.2-7-2.1-10.4l1.7,1.2c0.7,0.5,1.6,0.3,2-0.3    c0.5-0.6,0.3-1.5-0.3-2l-3.9-2.8l0,0c-0.2-0.1-0.4-0.3-0.6-0.4c-0.3-0.2-0.7-0.3-1-0.3h-0.1c-0.4,0-0.8,0.1-1.2,0.3    c-0.4,0.3-0.7,0.6-1,1c-0.2,0.3-0.3,0.6-0.4,1l-1.6,4.6l0,0c-0.1,0.2-0.1,0.4-0.1,0.6c0,0.2,0,0.4,0.1,0.6    c0.1,0.3,0.3,0.5,0.5,0.7c0.5,0.4,1.1,0.4,1.6,0.1c0.2-0.1,0.4-0.3,0.6-0.5c0.2-0.3,0.3-0.8,0.2-1.2l0.6-1.8    c0.7,2.7,1.2,5.4,1.7,8.2c-2.2-0.3-4.3-0.7-6.4-1.3c-0.8-0.2-1.6,0.2-1.8,1c0,0.1-0.1,0.3-0.1,0.5c0.2,3.9,0.3,7.7,0.5,11.6    c-2.8-4.8-6.1-9.4-9.9-13.4c-0.5-0.6-1.5-0.6-2-0.1C41.8,27.9,41.7,28.9,42.3,29.5C42.3,29.4,42.3,29.5,42.3,29.5z"/>

</g>

</g>

</svg>

