<?xml version="1.0" encoding="iso-8859-1"?>
<!-- Uploaded to: SVG Repo, www.svgrepo.com, Generator: SVG Repo Mixer Tools -->
<svg height="800px" width="800px" version="1.1" id="Layer_1" xmlns="http://www.w3.org/2000/svg" xmlns:xlink="http://www.w3.org/1999/xlink" 
	 viewBox="0 0 511.999 511.999" xml:space="preserve">
<path style="fill:#B9B9B9;" d="M503.83,296.459v-80.918l-50.666-5.066c-5.098-22.179-13.846-42.954-25.567-61.68l32.256-39.424
	l-57.224-57.224l-39.424,32.256c-18.726-11.722-39.5-20.469-61.68-25.567L296.459,8.17h-80.918l-5.066,50.666
	c-22.179,5.098-42.954,13.846-61.68,25.567l-39.424-32.256l-57.224,57.224l32.256,39.424c-11.722,18.726-20.469,39.5-25.567,61.68
	L8.17,215.541v80.918l50.666,5.066c5.098,22.179,13.846,42.954,25.567,61.68l-32.256,39.424l57.224,57.224l39.424-32.256
	c18.726,11.722,39.5,20.469,61.68,25.567l5.066,50.666h80.918l5.066-50.666c22.179-5.098,42.954-13.846,61.68-25.567l39.424,32.256
	l57.224-57.224l-32.256-39.424c11.722-18.726,20.469-39.5,25.567-61.68L503.83,296.459z M257.776,425.93
	c-0.588,0.011-1.187,0.011-1.776,0.011c-93.848,0-169.94-76.081-169.94-169.94S162.151,86.06,256,86.06c0.588,0,1.187,0,1.776,0.011
	C332.767,87.247,393.26,162.87,393.26,256S332.767,424.753,257.776,425.93z"/>
<path style="fill:#737373;" d="M257.806,86.072v80.102c48.799,0.965,88.068,40.797,88.068,89.827s-39.269,88.861-88.068,89.827
	v80.102C350.834,424.964,425.94,349.26,425.94,256S350.834,87.036,257.806,86.072z"/>
<path style="fill:#969696;" d="M257.776,86.07c-0.588-0.011-1.187-0.011-1.776-0.011c-93.848,0-169.94,76.081-169.94,169.94
	S162.151,425.94,256,425.94c0.588,0,1.187,0,1.776-0.011c74.992-1.176,135.484-76.8,135.484-169.93S332.767,87.247,257.776,86.07z
	 M256.002,345.872c-49.635,0-89.872-40.238-89.872-89.872s40.238-89.872,89.872-89.872s89.872,40.238,89.872,89.872
	S305.637,345.872,256.002,345.872z"/>
<path style="fill:#B9B9B9;" d="M256,147.064l-9.84,16.994l9.842,15.687c42.115,0,76.255,34.141,76.255,76.255
	s-34.141,76.255-76.255,76.255l-10.181,15.643L256,364.936c60.165,0,108.936-48.771,108.936-108.936S316.165,147.064,256,147.064z"
	/>
<path style="fill:#DCDCDC;" d="M179.747,256c0-42.114,34.14-76.254,76.253-76.255v-32.681c-60.165,0-108.936,48.771-108.936,108.936
	S195.835,364.936,256,364.936v-32.681C213.886,332.254,179.747,298.114,179.747,256z"/>
<path d="M504.642,207.409l-44.915-4.491c-4.869-18.741-12.3-36.659-22.153-53.415l28.603-34.96
	c2.657-3.247,2.423-7.983-0.546-10.951L408.409,46.37c-2.969-2.969-7.703-3.203-10.951-0.546l-34.96,28.603
	c-16.755-9.853-34.673-17.284-53.415-22.153l-4.491-44.915C304.174,3.181,300.659,0,296.462,0h-80.923
	c-4.198,0-7.712,3.181-8.13,7.358l-4.491,44.915c-18.741,4.869-36.659,12.3-53.415,22.153l-34.96-28.603
	c-3.248-2.657-7.983-2.421-10.951,0.546l-57.223,57.223c-2.969,2.969-3.203,7.703-0.546,10.951l28.603,34.96
	c-9.853,16.755-17.284,34.673-22.153,53.415l-44.915,4.491C3.181,207.826,0,211.341,0,215.538v80.923
	c0,4.198,3.181,7.712,7.358,8.13l44.915,4.491c4.869,18.741,12.3,36.659,22.153,53.415l-28.603,34.96
	c-2.657,3.247-2.423,7.983,0.546,10.951l57.222,57.222c2.969,2.969,7.704,3.203,10.951,0.546l34.96-28.603
	c16.755,9.853,34.673,17.284,53.415,22.153l4.491,44.915c0.418,4.177,3.931,7.358,8.13,7.358h80.923c4.198,0,7.712-3.181,8.13-7.358
	l4.491-44.915c18.741-4.869,36.659-12.3,53.415-22.153l34.96,28.603c3.25,2.657,7.983,2.421,10.951-0.546l57.222-57.222
	c2.969-2.969,3.203-7.703,0.546-10.951l-28.603-34.96c9.853-16.755,17.284-34.673,22.153-53.415l44.915-4.491
	c4.177-0.418,7.358-3.932,7.358-8.13v-80.923C512,211.341,508.819,207.826,504.642,207.409z M495.66,289.068l-43.308,4.331
	c-3.487,0.349-6.364,2.882-7.149,6.299c-4.817,20.948-13.072,40.855-24.536,59.166c-1.86,2.971-1.617,6.795,0.602,9.509
	l27.579,33.708l-46.766,46.766l-33.708-27.579c-2.711-2.22-6.538-2.46-9.509-0.602c-18.312,11.463-38.218,19.72-59.166,24.536
	c-3.416,0.786-5.95,3.662-6.299,7.149l-4.332,43.309h-66.136l-4.331-43.308c-0.349-3.487-2.882-6.364-6.299-7.149
	c-20.948-4.817-40.855-13.072-59.167-24.536c-2.97-1.861-6.797-1.618-9.509,0.602l-33.708,27.579l-46.766-46.766l27.579-33.708
	c2.219-2.712,2.462-6.538,0.602-9.509c-11.463-18.312-19.72-38.218-24.536-59.166c-0.787-3.416-3.662-5.95-7.149-6.299
	l-43.308-4.332v-66.136l43.308-4.331c3.487-0.349,6.364-2.882,7.149-6.299c4.817-20.948,13.072-40.855,24.536-59.167
	c1.86-2.971,1.617-6.795-0.602-9.509l-27.579-33.708l46.766-46.766l33.708,27.579c2.711,2.22,6.539,2.46,9.509,0.602
	c18.312-11.463,38.218-19.72,59.167-24.536c3.416-0.787,5.95-3.662,6.299-7.149l4.332-43.308h66.136l4.331,43.308
	c0.349,3.487,2.882,6.364,6.299,7.149c20.948,4.817,40.855,13.072,59.166,24.536c2.971,1.86,6.797,1.618,9.509-0.602l33.708-27.579
	l46.766,46.766l-27.579,33.708c-2.219,2.713-2.462,6.538-0.602,9.509c11.463,18.312,19.72,38.218,24.536,59.167
	c0.786,3.416,3.662,5.95,7.149,6.299l43.308,4.332V289.068z"/>
<path d="M256.002,340.426c46.552,0,84.426-37.874,84.426-84.426s-37.874-84.426-84.426-84.426S171.577,209.448,171.577,256
	S209.45,340.426,256.002,340.426z M256.002,187.915c37.543,0,68.085,30.542,68.085,68.085s-30.542,68.085-68.085,68.085
	S187.917,293.543,187.917,256S218.46,187.915,256.002,187.915z"/>
<path d="M256.002,77.889c-44.586,0-87.251,16.556-120.134,46.619c-32.668,29.866-52.966,70.484-57.154,114.372
	c-0.429,4.493,2.865,8.481,7.356,8.91c4.509,0.436,8.481-2.865,8.91-7.356c7.955-83.35,77.179-146.204,161.022-146.204
	c89.2,0,161.77,72.57,161.77,161.77s-72.57,161.77-161.77,161.77c-83.845,0-153.069-62.855-161.022-146.208
	c-0.428-4.493-4.432-7.797-8.909-7.358c-4.493,0.429-7.786,4.417-7.358,8.909c4.188,43.89,24.484,84.509,57.152,114.376
	c32.885,30.064,75.549,46.62,120.136,46.62c98.21,0,178.111-79.9,178.111-178.111S354.212,77.889,256.002,77.889z"/>
<path d="M147.078,264.26c-4.462,0.673-7.533,4.836-6.86,9.298c3.752,24.866,15.156,47.429,32.976,65.249
	c22.831,22.829,52.819,34.244,82.808,34.244s59.977-11.415,82.808-34.244c45.658-45.66,45.658-119.954-0.001-165.615
	c-45.66-45.657-119.952-45.657-165.613,0c-17.82,17.821-29.223,40.383-32.976,65.246c-0.673,4.462,2.398,8.624,6.86,9.298
	c4.441,0.674,8.624-2.397,9.298-6.86c3.228-21.386,13.04-40.794,28.374-56.128c39.288-39.289,103.216-39.288,142.504,0
	s39.288,103.216,0,142.504c-39.289,39.288-103.217,39.287-142.504,0c-15.335-15.334-25.147-34.745-28.375-56.133
	C155.702,266.656,151.526,263.586,147.078,264.26z"/>
</svg>
