<?xml version="1.0" encoding="iso-8859-1"?>
<!-- Uploaded to: SVG Repo, www.svgrepo.com, Generator: SVG Repo Mixer Tools -->
<svg version="1.1" id="Layer_1" xmlns="http://www.w3.org/2000/svg" xmlns:xlink="http://www.w3.org/1999/xlink" 
	 viewBox="0 0 290.625 290.625" xml:space="preserve">
<g>
	<g>
		<polygon style="fill:#F9BA48;" points="39.511,192.188 147.323,192.188 137.948,239.063 53.573,239.063 		"/>
		<rect x="58.261" y="187.5" style="fill:#333333;" width="70.313" height="9.375"/>
		<rect x="62.948" y="210.938" style="fill:#333333;" width="60.938" height="9.375"/>
		<path style="fill:#333333;" d="M278.573,267.923l-84.722-55.069l-7.252-50.742l14.813-3.173l28.181-32.878l46.514-11.63
			l-6.675,20.02l8.892,2.967l10.289-30.872l-20.798-20.798l-6.628,6.628l12.895,12.895l-49.669,12.417l-28.069,32.747l-11.086,2.377
			l-5.592-39.155l-48.22-16.073l-47.475,66.478H64.669l29.658-93.211l92.841,13.927l44.072-70.519l5.639,11.273l8.386-4.195
			L234.595,0h-26.334v9.375h14.981L182.48,74.597L87.82,60.398L54.834,164.063h-5.948v9.375h97.406l-12.188,60.938H52.645
			L33.895,150H2.011v9.375h24.366l16.927,76.167c-4.983,2.17-8.48,7.125-8.48,12.895c0,5.62,3.338,10.444,8.114,12.694
			c-2.142,3.052-3.427,6.741-3.427,10.744c0,10.341,8.409,18.75,18.75,18.75s18.75-8.409,18.75-18.75
			c0-3.431-0.994-6.605-2.606-9.375h47.405c-1.617,2.77-2.611,5.944-2.611,9.375c0,10.341,8.409,18.75,18.75,18.75
			s18.75-8.409,18.75-18.75s-8.409-18.75-18.75-18.75H48.886c-2.583,0-4.688-2.105-4.688-4.688s2.105-4.688,4.688-4.688h92.906
			l15.052-75.258l20.569-4.406l7.758,54.309l87.956,57.173l-15.047,6.019l3.483,8.705l26.386-10.556v-31.298h-9.375L278.573,267.923
			L278.573,267.923z M67.636,271.875c0,5.17-4.205,9.375-9.375,9.375s-9.375-4.205-9.375-9.375s4.205-9.375,9.375-9.375
			S67.636,266.705,67.636,271.875z M147.323,271.875c0,5.17-4.205,9.375-9.375,9.375s-9.375-4.205-9.375-9.375
			s4.205-9.375,9.375-9.375S147.323,266.705,147.323,271.875z M132.759,164.063H95.494l39.567-55.397l36.155,12.052l4.866,34.059
			L132.759,164.063z"/>
	</g>
</g>
</svg>

