<?xml version="1.0" ?>

<!-- Uploaded to: SVG Repo, www.svgrepo.com, Generator: SVG Repo Mixer Tools -->
<svg width="800px" height="800px" viewBox="0 0 100 100" id="Layer_1" version="1.1" xml:space="preserve" xmlns="http://www.w3.org/2000/svg" xmlns:xlink="http://www.w3.org/1999/xlink">

<style type="text/css">
	.st0{fill:#6DC8BF;}
	.st1{fill:none;}
</style>

<title/>

<g>

<g id="fill">

<path class="st0" d="M36.7,38.4c-0.4-5.7-1.3-11.3-2.6-16.9C33,16.9,31.8,9.9,27,7.7c-4.4-2-11,1.1-15.2,2.6    c-4.6,1.6-7.8,4.4-7.5,9.6c0.3,5.3,3.3,10.8,4.8,15.8c2,6.4,3,13.2,2.9,19.9c-0.1,4.1,3.7,5.7,6.8,4.8c0.8,0.5,1.8,0.8,2.7,0.7    C33.2,59.9,37.5,49.1,36.7,38.4z"/>

<path class="st0" d="M93.5,12.1c-2.8-3.8-6.3-8.7-11.3-9.5C77,1.8,72.7,6.6,69,9.5c-4.3,3.4-9,6.6-12.8,10.6    c-3.2,3.5-6.8,8.3-5.9,13.3c1,5.3,6.4,10.8,9.5,15c1.9,2.5,5.5,3,8,1.1c0.1-0.1,0.2-0.2,0.3-0.3c0.4-0.1,0.9-0.3,1.3-0.5    c5.2-2.9,9.5-6.7,13.7-10.8c4-3.9,8.9-7.7,12.1-12.2C98.6,20.9,96.6,16.4,93.5,12.1z"/>

<path class="st0" d="M89.6,68.8c-3.1-3.2-7.9-4.8-11.9-6.4c-4.6-1.8-9.5-3.6-14.5-3.7c-4.9-0.1-9,1.3-11.6,5.6    c-2.6,4.7-4.7,9.6-6.3,14.8c-1.3,4,2.1,6.6,5.4,6.4c0.6,0.8,1.6,1.5,2.6,1.7l17.6,4.8c4.1,1.1,9.9,4,14.1,2.1    c3.9-1.8,5.6-8.4,6.9-12.1C93.4,77.5,93.1,72.5,89.6,68.8z"/>

</g>

<g id="line_copy">

<path class="st1" d="M50.7,71.3c-0.1,0.2-0.2,0.4-0.4,0.6c-0.9,1.7-1.7,3.3-2.3,4.7c-0.8,1.6-1.3,3.4-1.4,5.2    c0,0.6,0.1,1.2,0.4,1.7c0.1,0.1,0.2,0.2,0.4,0.3c0.3,0.2,0.6,0.3,0.9,0.4c0.9,0.3,1.8,0.5,2.7,0.6c0.6,0.1,1.2,0.2,1.7,0.4    c2.9,0.8,5.8,1.7,8.8,2.5c5.5,1.6,11,3.4,16.4,5.2c0.6,0.2,1.3,0.5,2,0.8c0.7,0.3,1.4,0.6,2.1,0.8c0.4,0.1,0.7,0.2,1.1,0.2    c0.2,0,0.3,0,0.4-0.1l0.1-0.1c0.1-0.1,0.2-0.2,0.2-0.3c0.2-0.3,0.4-0.7,0.6-1.1c0.4-0.8,0.8-1.9,1.1-2.8c0.2-0.6,0.4-1.2,0.6-1.6    c0.5-1.1,1.2-2.6,2-4.3c0.8-1.7,1.4-3.4,1.9-5.1c0.3-1,0.4-2,0.5-3c0-0.7-0.1-1.4-0.5-2c-0.1-0.2-0.2-0.3-0.3-0.4    c-0.4-0.4-0.9-0.7-1.4-0.9c-3.5-1.8-7-3.3-10.7-4.5l-0.1,0l-0.3-0.1c-0.2-0.1-0.6-0.2-1-0.3c-0.9-0.3-2.2-0.7-3.8-1.1    c-4.4-1.2-8.9-2.1-13.4-2.7c-0.4-0.1-0.9-0.1-1.4-0.1c-0.8,0-1.6,0.1-2.3,0.5c-0.9,0.4-1.7,1-2.3,1.8c-0.7,0.9-1.3,2-1.9,3l0,0    c-0.3,0.6-0.6,1.2-0.9,1.7C50.8,71,50.8,71.1,50.7,71.3z M83.6,76.6c0.3-0.8,1.2-1.3,2-1c0.2,0.1,0.3,0.1,0.4,0.2    c0.7,0.1,1.1,0.7,1.2,1.4c0.1,1-0.7,2-1.7,2.1c-0.2,0-0.4,0-0.6,0C83.9,78.9,83.3,77.8,83.6,76.6C83.6,76.7,83.6,76.6,83.6,76.6z     M78.6,88.3c0.5-0.9,1.7-1.2,2.6-0.7c0.9,0.5,1.2,1.7,0.7,2.6c-0.3,0.5-0.8,0.8-1.4,0.9c-0.4,0.2-0.9,0.2-1.3-0.1    C78.4,90.3,78.1,89.2,78.6,88.3z M60.5,79.5L60.5,79.5L60.5,79.5c0.3-1.9,1.1-3.8,2.2-5.4l0,0c0.8-1.4,2-2.5,3.3-3.4    c1-0.6,2.2-1,3.4-1c0.7,0,1.3,0.1,1.9,0.4c1.2,0.5,2.2,1.5,2.8,2.7c0.6,1.1,0.8,2.4,0.8,3.6c0,0.2,0,0.5,0,0.7v0    c-0.4,4.2-3.2,7.9-7.3,9.3c-0.7,0.2-1.4,0.4-2.1,0.4c-0.8,0-1.5-0.2-2.2-0.5c-0.7-0.3-1.2-0.8-1.7-1.4c-0.9-1.2-1.3-2.6-1.3-4.1    C60.4,80.3,60.4,79.9,60.5,79.5L60.5,79.5z M55.9,66.7c0.8-0.6,2-0.4,2.6,0.4c0,0,0,0,0,0.1c0.4,0.9,0.1,2-0.8,2.4    c0,0-0.1,0-0.1,0c-0.7,0.4-1.6,0.1-2-0.6c0-0.1-0.1-0.2-0.1-0.2c0-0.1-0.1-0.1-0.1-0.2C55,68,55.2,67.1,55.9,66.7z M53.5,78    c0.4,0.1,0.6,0.5,0.7,0.9c0.2,0.7,0,1.5-0.4,2c-0.4,0.4-1,0.7-1.6,0.6c-1.2-0.2-2-1.3-1.8-2.5c0-0.1,0-0.2,0.1-0.3    c0.1-0.5,0.5-0.9,1-1C52.2,77.4,52.9,77.5,53.5,78L53.5,78z"/>

<path class="st1" d="M57.3,33.6C57.2,33.5,57.1,33.5,57.3,33.6L57.3,33.6z"/>

<path class="st1" d="M56.7,33.4c0.2,0,0,0-0.2,0h0C56.6,33.4,56.7,33.4,56.7,33.4z"/>

<path class="st1" d="M63.3,80.6c0,0.7,0.1,1.3,0.4,1.9c0.3,0.7,1.1,1.2,1.9,1.2c0.4,0,0.8-0.1,1.2-0.2c2.9-1,5-3.7,5.3-6.8    c0-0.2,0-0.3,0-0.4c0-0.8-0.2-1.6-0.5-2.3c-0.3-0.6-0.7-1-1.3-1.3c-0.3-0.1-0.6-0.2-0.9-0.2c-0.7,0-1.3,0.2-1.9,0.6    c-1,0.7-1.8,1.6-2.4,2.6l0,0c-0.9,1.2-1.5,2.6-1.8,4.1l0,0C63.3,80.1,63.3,80.4,63.3,80.6z"/>

<path class="st1" d="M91.4,17.6c-2.4-2.7-4.3-4.9-5.9-6.6c-1.1-1.3-2.4-2.4-3.7-3.4c-0.3-0.3-0.7-0.5-1.2-0.5h-0.1    c-0.5,0-0.9,0.2-1.3,0.4c-0.8,0.4-1.5,0.8-2.2,1.4c-1.8,1.3-4.1,3.2-7.2,5.8c-1.5,1.3-2.5,2.1-3.3,2.7c-0.8,0.6-1.3,1.1-1.9,1.6    c-1.2,1.1-2.8,2.8-6.9,7.4c-1.1,1.2-2.1,2.2-3,3.2c-0.8,0.8-1.5,1.8-2,2.8c-0.3,0.5-0.4,1.1-0.5,1.7l0,0c0,0.1,0,0.2,0,0.3    c0,0.6,0.1,1.2,0.4,1.7c0.2,0.6,0.5,1.1,0.8,1.7l0,0c0.4,0.8,0.8,1.5,1.4,2.1c0.7,0.8,1.8,1.9,3.5,3.8c1.4,1.5,2.1,2.5,2.7,3.1    c0.4,0.5,0.9,0.9,1.4,1.3c0.7,0.5,1.4,0.9,2.1,1.3c0.6,0.3,1.2,0.5,1.9,0.5c0.1,0,0.3,0,0.4,0c0.2,0,0.4-0.1,0.6-0.2    c0.3-0.1,0.6-0.3,0.9-0.5c0.7-0.5,1.7-1.2,3.1-2.2c1.5-1.1,3-2.4,4.4-3.7c1.3-1.2,2.6-2.6,4.6-4.5c2.7-2.6,5.5-5,11.3-10.6    c0.9-0.8,1.7-1.7,2.5-2.7c0.5-0.6,0.8-1.3,0.8-2.1l0-0.2c0-0.8-0.3-1.5-0.7-2.1C93.2,19.7,92.4,18.6,91.4,17.6z M57.6,35.9    c-0.4,0.4-1.1,0.5-1.7,0.2c-0.4-0.1-0.8-0.4-0.9-0.8c-0.2-0.4-0.2-0.9-0.1-1.3c0.2-0.8,1-1.2,1.8-1c0.1,0,0.2,0.1,0.3,0.1    c0.1,0.1,0.2,0.2,0.4,0.2C58.2,34,58.3,35.1,57.6,35.9C57.6,35.9,57.6,35.9,57.6,35.9L57.6,35.9z M67.3,45.2c-0.6,0.6-1.5,0.6-2,0    c0,0,0-0.1-0.1-0.1c-0.2-0.2-0.3-0.4-0.4-0.6l0,0l0,0c0-0.1-0.1-0.2-0.1-0.3c0-0.1,0-0.2,0-0.1c0,0,0,0,0-0.1l0,0    c0-0.1,0-0.2,0-0.3c0-0.3,0.1-0.6,0.2-0.8c0.3-0.5,1-0.9,1.6-0.8c0.8,0,1.4,0.6,1.4,1.4C68,44.1,67.7,44.7,67.3,45.2L67.3,45.2z     M79.2,32.5c-0.4,0.9-1,1.7-1.8,2.3l0,0c-1.1,0.8-2.4,1.2-3.7,1.2c-1,0-2-0.2-2.9-0.6c-1.9-0.9-3.5-2.5-4.4-4.4l0,0    c-0.5-0.9-0.8-1.8-1.1-2.8c-0.3-1.1-0.5-2.2-0.5-3.4c0-1,0.2-2,0.6-2.9c0.4-1,1.2-1.8,2.2-2.3c0.7-0.3,1.5-0.5,2.4-0.5H70    c1.2,0,2.3,0.4,3.3,1c0.9,0.5,1.7,1.2,2.5,2c1.7,1.5,3,3.5,3.7,5.7l0,0c0.2,0.6,0.2,1.3,0.2,1.9C79.8,30.6,79.6,31.6,79.2,32.5    L79.2,32.5z M80.3,13.5c-0.4,0.3-0.9,0.4-1.4,0.5c-0.8,0-1.4-0.6-1.4-1.4c0-0.5,0.3-1,0.6-1.4c0.1-0.1,0.2-0.1,0.2-0.2    c0.1-0.1,0.3-0.2,0.5-0.3c0.5-0.1,1.1,0,1.5,0.4c0.7,0.4,0.9,1.3,0.5,2C80.6,13.3,80.5,13.4,80.3,13.5z M88.8,24.4    c-0.1,0-0.2-0.1-0.3-0.1c-0.7-0.2-1.1-0.7-1.2-1.4c0-0.6,0.3-1.2,0.8-1.5c0.6-0.4,1.4-0.2,1.9,0.4c0.3,0.2,0.5,0.6,0.5,0.9    c0,0,0,0.1,0,0.1c0,0,0,0.1,0,0.1c0.1,0.8-0.5,1.5-1.3,1.6C89.2,24.5,89,24.5,88.8,24.4L88.8,24.4z"/>

<polygon class="st1" points="60.5,79.5 60.5,79.5 60.5,79.5   "/>

<path class="st1" d="M73.9,24.1c-0.6-0.6-1.2-1.1-1.9-1.5C71.3,22.2,70.7,22,70,22h0c-0.4,0-0.8,0.1-1.1,0.2    c-0.2,0.1-0.4,0.3-0.6,0.5c-0.4,0.6-0.6,1.4-0.5,2.2c0,0.9,0.1,1.8,0.4,2.6c0.2,0.7,0.5,1.5,0.8,2.1l0,0c0.7,1.4,1.8,2.5,3.1,3.2    c0.5,0.2,1.1,0.4,1.7,0.4c0.7,0,1.4-0.2,1.9-0.6c0.4-0.3,0.7-0.7,0.9-1.2c0.2-0.5,0.3-1.1,0.3-1.7c0-0.4-0.1-0.8-0.2-1.2    C76.2,26.8,75.2,25.3,73.9,24.1z"/>

<path class="st1" d="M89.2,24.3C89.2,24.3,89.1,24.3,89.2,24.3h-0.1H89.2C89.2,24.3,89.2,24.3,89.2,24.3z"/>

<path class="st1" d="M30.9,55.2c1-0.4,1.9-0.9,2.7-1.5c0.4-0.4,0.8-0.8,1.1-1.4c0.4-0.9,0.6-1.8,0.6-2.8v0c0-0.2,0-0.4,0-0.6    c0-6-0.5-12-1.6-17.9c-1.1-6.2-3-12.1-5.7-16.2c-0.4-0.7-1-1.2-1.7-1.5c-0.8-0.3-1.6-0.5-2.5-0.4c-1.4,0-2.8,0.2-4.2,0.6    c-1.5,0.4-2.9,0.8-4.2,1.1c-1.7,0.4-3.3,0.9-4.9,1.5c-1.6,0.5-3,1.4-4.2,2.6c-0.6,0.6-0.9,1.4-0.9,2.2c0,0.3,0,0.7,0.1,1l0,0    C7.2,28.6,9,35.3,10.8,42c0.8,2.9,1.6,5.9,2.3,8.9c0.2,1,0.4,2.1,0.6,3.3c0.2,1.1,0.4,2.2,0.8,3.2c0.2,0.5,0.4,1,0.7,1.4l0,0    c0.2,0.3,0.5,0.5,0.9,0.6c0.4,0.2,0.9,0.2,1.4,0.2c1.8-0.1,3.5-0.5,5.1-1.2c1.8-0.7,3.5-1.5,4.9-2C28.6,56.1,29.8,55.6,30.9,55.2z     M10.5,21.9c-0.2,0.8-1,1.2-1.8,1c-0.2-0.1-0.4-0.2-0.6-0.4L8,22.5c-0.1-0.1-0.3-0.2-0.3-0.4l0,0c-0.4-0.7-0.1-1.6,0.6-2    c0.1-0.1,0.3-0.1,0.4-0.1c0.1-0.1,0.3-0.1,0.5-0.1c0.8,0,1.4,0.6,1.4,1.4C10.6,21.5,10.6,21.7,10.5,21.9z M30.9,49.4    c0.1,0.1,0.2,0.2,0.3,0.3c0.2,0.4,0.3,0.9,0.1,1.3c-0.2,0.6-0.6,1-1.2,1c-0.6,0.1-1.1-0.2-1.4-0.7c0,0,0-0.1-0.1-0.1    c-0.5-0.6-0.5-1.4,0.1-2c0.4-0.4,1-0.5,1.5-0.3c0.2,0.1,0.3,0.1,0.5,0.3c0,0,0,0,0,0C30.2,48.9,30.9,49.4,30.9,49.4z M21.7,16    c0.2-0.2,0.5-0.3,0.8-0.4c0.5-0.1,1,0,1.4,0.4c0.2,0.2,0.4,0.5,0.6,0.7c0.3,0.4,0.3,1,0,1.4c-0.3,0.4-0.7,0.7-1.2,0.7H23    c-0.4,0-0.8-0.3-1.1-0.6c0,0,0,0-0.1-0.1c-0.1-0.1-0.2-0.2-0.2-0.3c-0.1-0.2-0.2-0.3-0.3-0.5C21.2,16.9,21.3,16.4,21.7,16z     M19.5,54.7c0,0.5-0.3,1-0.7,1.2c-0.4,0.3-1,0.3-1.5,0.1c-0.7-0.2-1.2-0.8-1.1-1.6c0-0.6,0.4-1.2,1.1-1.4c0.2,0,0.3-0.1,0.4-0.1    c0.8-0.2,1.6,0.3,1.8,1c0,0.1,0,0.2,0,0.3C19.5,54.4,19.5,54.6,19.5,54.7z M27.1,41.1c-1.1,0.8-2.3,1.4-3.7,1.7    c-1.3,0.3-2.6,0.4-3.9,0.4c-0.2,0-0.4,0-0.6,0c-1.7,0-3.3-0.6-4.5-1.8c-1.1-1.1-1.7-2.6-1.7-4.1c0-1.7,0.7-3.4,1.9-4.7l0,0    c2-2.2,4.8-3.4,7.7-3.4c0.9,0,1.8,0.1,2.7,0.4c0.8,0.2,1.5,0.6,2.2,1c0.7,0.5,1.4,1.1,1.8,1.8c0.5,0.9,0.8,1.9,0.8,2.9    c0,1.1-0.3,2.2-0.8,3.1C28.7,39.5,28,40.4,27.1,41.1L27.1,41.1z"/>

<path class="st1" d="M25.7,33c-0.5-0.3-0.9-0.5-1.5-0.6c-0.6-0.2-1.3-0.3-1.9-0.3c-2.1,0-4.1,0.9-5.5,2.4l-1.1-1l1.1,1    c-0.7,0.7-1.1,1.7-1.2,2.8c0,0.8,0.3,1.5,0.8,2c0.7,0.6,1.7,1,2.6,1c0.2,0,0.3,0,0.5,0c1.1,0,2.1-0.1,3.2-0.3    c0.9-0.2,1.8-0.6,2.6-1.2c0.5-0.4,1-0.9,1.3-1.5c0.3-0.6,0.5-1.2,0.5-1.8c0-0.5-0.1-1-0.4-1.4C26.4,33.6,26.1,33.3,25.7,33z"/>

<polygon class="st1" points="18.9,53.8 18.9,53.8 18.9,53.8   "/>

<path d="M96.5,19.4c-0.8-1.3-1.8-2.5-2.9-3.7c-3.2-3.6-5.6-6.4-7.5-8.3c-0.8-0.8-1.7-1.6-2.6-2.3c-0.7-0.6-1.6-0.9-2.5-1    c-0.1,0-0.2,0-0.4,0c-0.9,0-1.7,0.2-2.5,0.6c-1.5,0.8-2.9,1.7-4.2,2.8c-1.6,1.3-3.5,2.9-5.9,4.8c-1.5,1.2-2.5,2-3.3,2.7    c-1.1,0.9-2.2,1.8-3.2,2.8c-1.2,1.2-2.9,3.1-6,6.5c-1.3,1.5-2.7,2.8-3.9,4.3c-0.6,0.7-1.1,1.5-1.5,2.4c-0.4,0.9-0.7,1.8-0.8,2.8    l0,0c0,0.2,0,0.3,0,0.5c0,0.9,0.2,1.9,0.5,2.7c0.3,0.8,0.6,1.4,0.9,1.9l0,0c0.5,1,1.1,2,1.9,2.8c0.5,0.6,1.2,1.2,2,2.1    c-0.2,0.1-0.4,0.2-0.5,0.3c-3.1,3.3-7.7,8.4-13,14.9c-4.9,5.9-7,8.8-10.3,12.8c-0.5,0.6-1,1.2-1.5,1.8c0-0.7,0-1.4,0-2.1    c0-4.1-0.3-8.2-0.8-12.3c2.2-0.6,4.3-1.6,6.2-2.8c1-0.7,1.9-1.6,2.4-2.7c0.6-1.3,1-2.7,0.9-4.1l0,0c0-0.2,0-0.4,0-0.6    c0-6.2-0.6-12.3-1.7-18.4c-1.2-6.4-3.1-12.6-6.1-17.3c-0.7-1.1-1.8-2-3-2.6c-1.1-0.5-2.4-0.7-3.6-0.7c-1.6,0-3.3,0.3-4.9,0.7    c-1.6,0.4-3,0.8-4.3,1.2c-2.5,0.6-4.9,1.4-7.2,2.5C6.1,14.9,5,15.8,4,16.8c-1,1.1-1.6,2.5-1.6,4c0,0.6,0.1,1.2,0.2,1.7l1.4-0.4    l-1.4,0.4C4.5,29.3,6.2,36,8,42.7c0.8,3,1.6,5.9,2.2,8.8c0.2,1.1,0.4,2.7,0.8,4.4c0.2,0.8,0.4,1.7,0.6,2.5    c0.3,0.8,0.7,1.5,1.2,2.2c0.5,0.7,1.3,1.2,2.1,1.5c0.8,0.3,1.6,0.4,2.4,0.4c2.1-0.1,4.2-0.6,6.1-1.4c0.8-0.3,1.6-0.6,2.3-0.9    c0.5,3.7,0.7,7.5,0.7,11.2c0,1.7,0,3.4-0.1,5.1c0,0.1,0,0.3,0,0.4c-3.8,4.3-8.6,9.4-14.5,15c-0.6,0.5-0.6,1.5-0.1,2s1.5,0.6,2,0.1    l0,0l0,0c6.8-6.4,13.2-13.2,19.2-20.5c1-1.2,1.8-2.3,2.7-3.3h0c0.9-0.1,1.7-0.1,2.6-0.1c3.1,0,6.1,0.5,9,1.4    c-0.7,1.4-1.3,2.7-1.8,3.9c-0.9,2-1.5,4.1-1.6,6.3c0,1.2,0.3,2.3,0.9,3.3c0.5,0.6,1.1,1.2,1.8,1.5c1,0.4,2,0.8,3.1,0.9    c1,0.2,1.9,0.3,2.4,0.5c2.9,0.8,5.8,1.7,8.7,2.5c5.5,1.6,10.9,3.3,16.4,5.1c0.5,0.2,1.5,0.6,2.6,1.1c0.6,0.2,1.1,0.4,1.7,0.6    c0.6,0.2,1.2,0.3,1.8,0.3c0.7,0,1.3-0.1,1.9-0.5c0.3-0.2,0.6-0.5,0.9-0.8c0.4-0.5,0.8-1.1,1.1-1.6c0.4-0.9,0.8-1.8,1.2-2.7    c0.3-0.9,0.6-1.7,0.8-2.1c0.6-1.4,1.7-3.6,2.7-6c1.1-2.4,1.7-4.9,1.9-7.6c0-1.2-0.3-2.5-0.9-3.5c-0.2-0.4-0.5-0.7-0.8-1    c-1.1-0.9-2.3-1.6-3.6-2.2c-2-0.9-4.9-2.2-9.5-3.9c-6.2-2.1-12.6-3.6-19.1-4.5c-0.6-0.1-1.2-0.1-1.7-0.1c-1.2,0-2.3,0.2-3.4,0.7    c-1.3,0.6-2.5,1.5-3.3,2.6c-0.8,1.1-1.6,2.3-2.2,3.5l1.3,0.7l-1.3-0.7c-0.2,0.4-0.4,0.7-0.6,1.1c-3.3-1.1-6.8-1.7-10.3-1.7    c-0.1,0-0.2,0-0.3,0c1.4-1.8,3-3.8,5.2-6.4c5.3-6.4,9.9-11.5,12.9-14.8c0.1-0.1,0.1-0.2,0.2-0.3c1.2,1.3,1.8,2.1,2.3,2.7    c0.6,0.7,1.2,1.3,1.9,1.8c0.8,0.6,1.6,1.1,2.5,1.6c1,0.5,2.1,0.8,3.2,0.8c0.2,0,0.5,0,0.7,0c0.5-0.1,0.9-0.2,1.4-0.4    c0.7-0.3,1.4-0.7,2-1.2c0.7-0.5,1.5-1.1,2.5-1.9c1.6-1.2,3.2-2.5,4.6-4c1.3-1.3,2.6-2.6,4.5-4.5c2.6-2.5,5.5-5,11.3-10.6    c1-0.9,2-1.9,2.8-3c0.8-1,1.3-2.3,1.4-3.6l0,0c0-0.1,0-0.3,0-0.4C97.5,21.7,97.2,20.5,96.5,19.4z M22.4,58.5    c-1.6,0.7-3.3,1.1-5.1,1.2c-0.5,0-0.9-0.1-1.4-0.2c-0.3-0.1-0.6-0.3-0.9-0.6l0,0c-0.3-0.4-0.5-0.9-0.7-1.4    c-0.3-1.1-0.6-2.1-0.8-3.2c-0.2-1.2-0.4-2.3-0.6-3.3c-0.7-3-1.5-6-2.3-8.9C9,35.3,7.2,28.6,5.4,21.9l0,0c-0.1-0.3-0.1-0.7-0.1-1    c0-0.8,0.3-1.6,0.9-2.2c1.2-1.2,2.6-2,4.2-2.6c1.6-0.6,3.3-1.1,4.9-1.5c1.3-0.3,2.8-0.8,4.2-1.1c1.4-0.4,2.8-0.6,4.2-0.6    c0.8,0,1.7,0.1,2.5,0.4c0.7,0.3,1.3,0.8,1.7,1.5c2.7,4.1,4.6,10,5.7,16.2c1.1,5.9,1.6,11.9,1.6,17.9c0,0.2,0,0.4,0,0.6v0    c0,1-0.2,1.9-0.6,2.8c-0.3,0.5-0.6,1-1.1,1.4c-0.8,0.6-1.7,1.2-2.7,1.5c-1.1,0.5-2.3,0.9-3.6,1.3C26,57,24.3,57.8,22.4,58.5z     M51.7,69.2c0.5-1.1,1.2-2.1,1.9-3c0.6-0.8,1.4-1.4,2.3-1.8c0.7-0.3,1.5-0.5,2.3-0.5c0.5,0,0.9,0,1.4,0.1c4.5,0.6,9,1.5,13.4,2.7    c1.6,0.4,2.9,0.8,3.8,1.1c0.4,0.1,0.8,0.3,1,0.3l0.3,0.1l0.1,0c3.7,1.3,7.2,2.8,10.7,4.5c0.5,0.3,0.9,0.6,1.4,0.9    c0.1,0.1,0.2,0.3,0.3,0.4c0.3,0.6,0.5,1.3,0.5,2c0,1-0.2,2.1-0.5,3c-0.5,1.8-1.1,3.5-1.9,5.1c-0.7,1.7-1.5,3.1-2,4.3    c-0.2,0.5-0.4,1-0.6,1.6c-0.3,0.9-0.7,2-1.1,2.8c-0.2,0.4-0.4,0.7-0.6,1.1c-0.1,0.1-0.2,0.2-0.2,0.3l-0.1,0.1    c-0.1,0.1-0.3,0.1-0.4,0.1c-0.4,0-0.7-0.1-1.1-0.2c-0.7-0.2-1.4-0.5-2.1-0.8c-0.7-0.3-1.4-0.6-2-0.8c-5.5-1.8-10.9-3.5-16.4-5.2    c-2.9-0.9-5.8-1.7-8.8-2.5c-0.5-0.1-1.1-0.2-1.7-0.4c-0.9-0.1-1.8-0.4-2.7-0.6c-0.3-0.1-0.6-0.2-0.9-0.4c-0.2-0.1-0.3-0.2-0.4-0.3    c-0.3-0.5-0.5-1.1-0.4-1.7c0.1-1.8,0.6-3.5,1.4-5.2c0.6-1.4,1.4-3,2.3-4.7c0.2-0.1,0.3-0.3,0.4-0.6c0-0.1,0.1-0.3,0.1-0.4    C51.1,70.3,51.4,69.7,51.7,69.2L51.7,69.2z M94.7,23.2c-0.1,0.8-0.4,1.5-0.8,2.1c-0.8,1-1.6,1.8-2.5,2.7c-5.8,5.6-8.6,8-11.3,10.6    c-2,1.9-3.3,3.3-4.6,4.5c-1.4,1.3-2.8,2.6-4.4,3.7c-1.3,1-2.3,1.7-3.1,2.2c-0.3,0.2-0.6,0.4-0.9,0.5c-0.2,0.1-0.4,0.1-0.6,0.2    c-0.1,0-0.3,0-0.4,0c-0.7,0-1.3-0.2-1.9-0.5c-0.7-0.4-1.4-0.8-2.1-1.3c-0.5-0.4-1-0.8-1.4-1.3c-0.5-0.6-1.3-1.5-2.7-3.1    c-1.7-1.9-2.8-3-3.5-3.8c-0.6-0.6-1.1-1.3-1.4-2.1l0,0c-0.3-0.5-0.5-1.1-0.8-1.7c-0.2-0.6-0.3-1.1-0.4-1.7c0-0.1,0-0.2,0-0.3l0,0    c0.1-0.6,0.2-1.2,0.5-1.7c0.5-1,1.2-2,2-2.8c0.9-1,1.9-2,3-3.2c4.1-4.6,5.7-6.3,6.9-7.4c0.6-0.6,1.1-1,1.9-1.6    c0.8-0.6,1.8-1.4,3.3-2.7c3.1-2.6,5.4-4.5,7.2-5.8c0.7-0.5,1.5-1,2.2-1.4C79.6,7.1,80,7,80.5,7h0.1c0.4,0.1,0.8,0.3,1.2,0.5    c1.3,1,2.6,2.2,3.7,3.5c1.6,1.7,3.5,3.9,5.9,6.6c0.9,1,1.8,2.1,2.6,3.3c0.4,0.6,0.7,1.4,0.7,2.1L94.7,23.2z"/>

<polygon points="12.8,60.6 12.8,60.6 12.8,60.6   "/>

<polygon points="35.6,70.2 35.6,70.2 35.6,70.2   "/>

<path d="M29.2,38.6c0.5-1,0.8-2,0.8-3.1c0-1-0.3-2.1-0.8-2.9c-0.5-0.7-1.1-1.4-1.8-1.8c-0.7-0.4-1.4-0.8-2.2-1    c-0.9-0.3-1.8-0.4-2.7-0.4c-2.9,0-5.7,1.2-7.7,3.4l0,0c-1.2,1.3-1.9,2.9-1.9,4.7c0,1.5,0.6,3,1.7,4.1c1.2,1.1,2.9,1.8,4.5,1.8    c0.2,0,0.4,0,0.6,0c1.3,0,2.6-0.1,3.9-0.4c1.3-0.3,2.6-0.9,3.7-1.7l0,0C28,40.4,28.7,39.5,29.2,38.6z M26.6,37.3    c-0.3,0.6-0.7,1.1-1.3,1.5c-0.8,0.6-1.7,1-2.6,1.2c-1,0.2-2.1,0.4-3.2,0.3c-0.2,0-0.3,0-0.5,0c-1,0-1.9-0.3-2.6-1    c-0.6-0.5-0.9-1.3-0.8-2c0-1,0.5-2,1.2-2.8l-1.1-1l1.1,1c1.4-1.6,3.4-2.4,5.5-2.4c0.7,0,1.3,0.1,1.9,0.3c0.5,0.1,1,0.4,1.5,0.6    c0.4,0.2,0.7,0.6,1,1c0.3,0.4,0.4,0.9,0.4,1.4C27.1,36.1,26.9,36.7,26.6,37.3z"/>

<path d="M79.5,27.8c-0.7-2.2-2-4.2-3.7-5.7c-0.8-0.7-1.6-1.4-2.5-2c-1-0.6-2.1-0.9-3.3-1H70c-0.8,0-1.6,0.2-2.4,0.5    c-1,0.5-1.8,1.3-2.2,2.3c-0.4,0.9-0.6,1.9-0.6,2.9c0,1.1,0.2,2.3,0.5,3.4c0.3,1,0.6,1.9,1.1,2.8l0,0c1,1.9,2.5,3.4,4.4,4.4    c0.9,0.4,1.9,0.6,2.9,0.6c1.3,0,2.6-0.4,3.7-1.2l0,0c0.8-0.6,1.4-1.4,1.8-2.3c0.4-0.9,0.6-1.8,0.5-2.8    C79.8,29.1,79.7,28.4,79.5,27.8L79.5,27.8z M76.6,31.4c-0.2,0.5-0.5,0.9-0.9,1.2c-0.6,0.4-1.2,0.6-1.9,0.6c-0.6,0-1.2-0.1-1.7-0.4    c-1.3-0.7-2.4-1.8-3.1-3.2l0,0c-0.4-0.7-0.6-1.4-0.8-2.1c-0.2-0.9-0.4-1.7-0.4-2.6c0-0.8,0.1-1.5,0.5-2.2c0.2-0.2,0.4-0.4,0.6-0.5    c0.4-0.2,0.7-0.2,1.1-0.2h0c0.7,0,1.3,0.2,1.9,0.6c0.7,0.4,1.4,0.9,1.9,1.5c1.3,1.2,2.4,2.7,2.9,4.4c0.1,0.4,0.2,0.8,0.2,1.2    C76.9,30.3,76.8,30.8,76.6,31.4z"/>

<path d="M61.7,84.8c0.4,0.6,1,1,1.7,1.4c0.7,0.3,1.4,0.5,2.2,0.5c0.7,0,1.4-0.1,2.1-0.4c4-1.4,6.9-5,7.3-9.3v0c0-0.2,0-0.4,0-0.7    c0-1.2-0.3-2.5-0.8-3.6c-0.6-1.2-1.6-2.1-2.8-2.7c-0.6-0.2-1.3-0.4-1.9-0.4c-1.2,0-2.4,0.4-3.4,1c-1.3,0.9-2.5,2.1-3.3,3.4l0,0    c-1.2,1.6-1.9,3.4-2.2,5.4l0,0c0,0.4-0.1,0.8-0.1,1.1C60.4,82.1,60.8,83.6,61.7,84.8z M65.1,75.7L65.1,75.7c0.6-1,1.5-1.9,2.4-2.6    c0.6-0.4,1.2-0.6,1.9-0.6c0.3,0,0.6,0,0.9,0.2c0.6,0.3,1.1,0.7,1.3,1.3c0.3,0.7,0.5,1.5,0.5,2.3c0,0.1,0,0.3,0,0.4    c-0.3,3.1-2.4,5.7-5.3,6.8c-0.4,0.1-0.8,0.2-1.2,0.2c-0.8,0-1.6-0.4-1.9-1.2c-0.3-0.6-0.4-1.3-0.4-1.9c0-0.3,0-0.5,0.1-0.8l0,0    C63.6,78.4,64.2,77,65.1,75.7z"/>

<polygon points="60.5,79.5 60.5,79.5 60.5,79.5   "/>

<path d="M50.4,78.6c-0.4,1.2,0.3,2.4,1.4,2.8c0.1,0,0.2,0.1,0.3,0.1c0.6,0.1,1.2-0.1,1.6-0.6c0.5-0.6,0.6-1.3,0.4-2    c-0.1-0.4-0.4-0.7-0.7-0.9c-0.6-0.4-1.3-0.6-2.1-0.4C51,77.7,50.6,78.1,50.4,78.6z"/>

<path d="M55.5,68.9c0.3,0.8,1.1,1.2,1.9,0.9c0.1,0,0.2-0.1,0.2-0.1c0.9-0.4,1.4-1.5,1-2.4c0,0,0-0.1,0-0.1    c-0.6-0.9-1.7-1.1-2.6-0.5c0,0,0,0-0.1,0c-0.7,0.4-0.9,1.3-0.5,2C55.4,68.7,55.5,68.8,55.5,68.9z"/>

<path d="M79.3,90.9c0.4,0.3,0.9,0.3,1.3,0.1c0.6,0,1.1-0.3,1.4-0.9c0.5-0.9,0.1-2.1-0.8-2.6c-0.9-0.5-2-0.2-2.6,0.7    C78.1,89.2,78.4,90.3,79.3,90.9z"/>

<path d="M85,79.3c1,0.2,2-0.4,2.2-1.5c0-0.2,0.1-0.4,0-0.6c0-0.7-0.5-1.2-1.2-1.4c-0.7-0.5-1.7-0.4-2.2,0.3    c-0.1,0.1-0.2,0.3-0.2,0.4C83.2,77.7,83.8,78.9,85,79.3C84.9,79.3,85,79.3,85,79.3z"/>

<path d="M66.5,42c-0.6-0.1-1.3,0.2-1.6,0.8c-0.1,0.3-0.2,0.5-0.2,0.8c0,0.1,0,0.2,0,0.3l0,0c0,0,0,0,0,0.1c0-0.1,0,0,0,0.1    c0,0.1,0,0.2,0.1,0.3l0,0l0,0c0.1,0.2,0.2,0.5,0.4,0.6c0,0,0,0.1,0.1,0.1c0.6,0.6,1.5,0.6,2,0c0.5-0.4,0.7-1.1,0.6-1.7    C67.9,42.7,67.3,42,66.5,42z"/>

<path d="M57.5,33.4c-0.1-0.1-0.2-0.2-0.4-0.2c-0.7-0.4-1.6-0.1-2,0.5C55.1,33.8,55,33.9,55,34c-0.1,0.4-0.1,0.9,0.1,1.3    c0.1,0.4,0.5,0.7,0.9,0.8c0.5,0.3,1.2,0.2,1.7-0.2C58.3,35.2,58.2,34,57.5,33.4C57.5,33.4,57.5,33.4,57.5,33.4L57.5,33.4z     M57.3,33.6L57.3,33.6C57.1,33.5,57.2,33.5,57.3,33.6L57.3,33.6z M56.7,33.4c-0.1,0-0.1,0-0.2,0h0C56.8,33.3,56.9,33.4,56.7,33.4    L56.7,33.4z"/>

<path d="M80.3,11.1c-0.4-0.3-1-0.5-1.5-0.4c-0.2,0-0.3,0.1-0.5,0.3c-0.1,0.1-0.2,0.1-0.2,0.2c-0.4,0.4-0.6,0.9-0.6,1.4    c0,0.8,0.6,1.4,1.4,1.4c0.5,0,1-0.2,1.4-0.5c0.7-0.4,0.9-1.3,0.5-2C80.6,11.3,80.5,11.2,80.3,11.1z"/>

<path d="M90.6,22.8C90.6,22.8,90.6,22.7,90.6,22.8c0-0.4-0.2-0.8-0.5-1c-0.4-0.6-1.2-0.7-1.9-0.4c-0.5,0.3-0.8,0.9-0.8,1.5    c0,0.7,0.5,1.3,1.2,1.4c0.1,0,0.2,0.1,0.3,0.1c0.8,0.2,1.5-0.3,1.7-1C90.6,23.2,90.6,23.1,90.6,22.8    C90.6,22.9,90.6,22.8,90.6,22.8z M89.1,24.3C89.1,24.3,89.2,24.3,89.1,24.3C89.2,24.3,89.2,24.3,89.1,24.3L89.1,24.3L89.1,24.3z"/>

<path d="M9.2,19.8c-0.2,0-0.3,0-0.5,0.1c-0.8,0.1-1.3,0.9-1.2,1.7c0,0.1,0.1,0.3,0.1,0.4l0,0c0.1,0.1,0.2,0.3,0.3,0.4l0.1,0.1    c0.6,0.6,1.5,0.5,2,0c0.2-0.2,0.3-0.4,0.4-0.6c0-0.2,0.1-0.5,0.1-0.7C10.6,20.4,10,19.8,9.2,19.8z"/>

<path d="M21.6,18c0.1,0.1,0.1,0.2,0.2,0.3c0,0,0,0,0.1,0.1c0.3,0.3,0.7,0.6,1.1,0.6h0.2c0.5,0,1-0.3,1.2-0.7c0.3-0.4,0.3-1,0-1.4    c-0.2-0.3-0.4-0.5-0.6-0.7c-0.4-0.4-0.9-0.5-1.4-0.4c-0.3,0.1-0.5,0.2-0.8,0.4c-0.4,0.4-0.5,0.9-0.4,1.4    C21.4,17.6,21.5,17.8,21.6,18z"/>

<path d="M17.7,52.9c-0.2,0-0.3,0.1-0.4,0.1c-0.6,0.2-1,0.7-1.1,1.4c-0.1,0.7,0.4,1.4,1.1,1.6c0.5,0.2,1,0.2,1.5-0.1    c0.4-0.3,0.7-0.7,0.7-1.2c0-0.1,0-0.2,0-0.4c0-0.8-0.7-1.4-1.5-1.4C17.9,52.9,17.8,52.9,17.7,52.9z M18.9,53.8L18.9,53.8    L18.9,53.8z"/>

<path d="M30.7,49.3c-0.1-0.1-0.3-0.2-0.5-0.3c-0.5-0.2-1.1-0.1-1.5,0.3c-0.5,0.5-0.5,1.4-0.1,2c0,0,0,0.1,0.1,0.1    c0.3,0.5,0.9,0.8,1.4,0.7c0.6-0.1,1-0.5,1.2-1c0.1-0.4,0.1-0.9-0.1-1.3c-0.1-0.1-0.2-0.2-0.3-0.3C30.9,49.4,30.2,48.9,30.7,49.3    C30.7,49.3,30.7,49.3,30.7,49.3z"/>

</g>

</g>

</svg>

