<?xml version="1.0" ?>
<!DOCTYPE svg  PUBLIC '-//W3C//DTD SVG 1.1//EN'  'http://www.w3.org/Graphics/SVG/1.1/DTD/svg11.dtd'>
<!-- Uploaded to: SVG Repo, www.svgrepo.com, Generator: SVG Repo Mixer Tools -->
<svg width="800px" height="800px" viewBox="0 0 16666.66 16666.66" style="shape-rendering:geometricPrecision; text-rendering:geometricPrecision; image-rendering:optimizeQuality; fill-rule:evenodd; clip-rule:evenodd" version="1.1" xml:space="preserve" xmlns="http://www.w3.org/2000/svg" xmlns:xlink="http://www.w3.org/1999/xlink" xmlns:xodm="http://www.corel.com/coreldraw/odm/2003">
<defs>
<style type="text/css">
   <![CDATA[
    .fil0 {fill:none}
    .fil2 {fill:black;fill-rule:nonzero}
    .fil4 {fill:#ACD4F7;fill-rule:nonzero}
    .fil3 {fill:#DEDEDE;fill-rule:nonzero}
    .fil1 {fill:white;fill-rule:nonzero}
   ]]>
  </style>
</defs>
<g id="Layer_x0020_1">
<rect class="fil0" height="16666.66" width="16666.66" x="-0" y="-0"/>
<g id="_1314996868928">
<path class="fil1" d="M9036.57 10440.77c706.81,695.3 1413.54,1390.61 2120.35,2085.92 373.25,367.21 747.42,735.21 1154.17,1053.78 219.46,171.86 463.55,334.3 730.46,334.39 266.92,0.13 550.45,-224.9 548.48,-526.48 -1.65,-235.39 -164.05,-424.43 -316.26,-585.02 -1125.31,-1186.89 -2301.52,-2312.2 -3522.93,-3370.76 -223.98,328 -447.85,656.09 -714.27,1008.17z"/>
<path class="fil2" d="M9170.84 10430.77l2057.06 2023.78c365.2,359.3 742.9,730.66 1145.69,1046.22 207.32,162.43 431.76,312.72 667.96,312.86l0.23 0c115.63,0 237.36,-52.94 325.56,-141.59 78.99,-79.58 122.16,-180.11 121.47,-283.07 -1.42,-196.76 -143.24,-362.66 -288.55,-515.92 -1092.3,-1152.19 -2245.91,-2258.34 -3429.99,-3289.43 -187.43,274.37 -380.47,554.28 -599.43,847.15zm3870.95 3585.3l-0.36 0c-297.39,-0.1 -556.72,-171.14 -792.67,-355.9 -411.9,-322.52 -793.63,-698.11 -1162.81,-1061.36l-2120.35 -2085.92c-36.18,-35.58 -40.5,-92.71 -9.66,-133.21 263.75,-348.57 489.83,-679.7 708.43,-999.92 16.29,-23.85 43.4,-41.76 72.03,-45.48 28.63,-3.6 58.87,2.9 80.74,21.87 1219.14,1056.48 2406.82,2192.84 3530.06,3377.65 165.46,174.5 342.18,383.37 344.06,653.75 1.06,157.42 -62.96,309.03 -180.34,427.14 -125.33,126.12 -300.76,201.38 -469.12,201.38z"/>
<path class="fil1" d="M6278.6 10507.09c-1848.91,0 -3347.74,-1498.82 -3347.74,-3347.74 0,-1848.78 1498.82,-3347.61 3347.74,-3347.61 1848.82,0 3347.61,1498.82 3347.61,3347.61 0,1848.92 -1498.79,3347.74 -3347.61,3347.74zm0 0c-1848.91,0 -3347.74,-1498.82 -3347.74,-3347.74 0,-1848.78 1498.82,-3347.61 3347.74,-3347.61 1848.82,0 3347.61,1498.82 3347.61,3347.61 0,1848.92 -1498.79,3347.74 -3347.61,3347.74zm0 -7755.39c-2434.26,0 -4407.68,1973.39 -4407.68,4407.65 0,2434.3 1973.42,4407.68 4407.68,4407.68 2434.26,0 4407.55,-1973.39 4407.55,-4407.68 0,-2434.26 -1973.29,-4407.65 -4407.55,-4407.65z"/>
<path class="fil2" d="M3032.11 7159.35c0,1790.18 1456.34,3246.52 3246.48,3246.52 1790.05,0 3246.39,-1456.35 3246.39,-3246.52 0,-1790.04 -1456.34,-3246.39 -3246.39,-3246.39 -1790.14,0 -3246.48,1456.34 -3246.48,3246.39zm3246.48 3448.96c-1901.72,0 -3448.96,-1547.21 -3448.96,-3448.96 0,-1901.72 1547.24,-3448.82 3448.96,-3448.82 1901.62,0 3448.86,1547.11 3448.86,3448.82 0,1901.75 -1547.24,3448.96 -3448.86,3448.96zm0 -7755.39c-2374.57,0 -4306.43,1931.86 -4306.43,4306.43 0,2374.6 1931.86,4306.46 4306.43,4306.46 2374.47,0 4306.46,-1931.86 4306.46,-4306.46 0,-2374.57 -1932,-4306.43 -4306.46,-4306.43zm0 8815.33c-2486.27,0 -4508.9,-2022.63 -4508.9,-4508.9 0,-2486.14 2022.63,-4508.77 4508.9,-4508.77 2486.18,0 4508.9,2022.63 4508.9,4508.77 0,2486.28 -2022.72,4508.9 -4508.9,4508.9z"/>
<path class="fil2" d="M9604.93 10567.02l-9.3 -1.28c-17.94,-5.11 -28.3,-23.85 -23.15,-41.76l77.7 -271.33c5.01,-17.81 23.38,-28.63 41.65,-23.05 17.91,5.14 28.26,23.74 23.15,41.65l-77.61 271.33c-4.29,14.91 -17.81,24.44 -32.45,24.44z"/>
<path class="fil2" d="M9975.84 11042.31l-4.42 -0.23c-18.5,-2.44 -31.53,-19.43 -29.19,-37.83 41.52,-317.38 91.56,-637.69 148.68,-952.33 3.4,-18.37 21.17,-30.11 39.35,-27.11 18.27,3.39 30.47,20.84 27.11,39.21 -56.89,313.45 -106.83,632.71 -148.12,948.83 -2.21,16.98 -16.76,29.45 -33.41,29.45z"/>
<path class="fil2" d="M10457.29 11503.65c-18.6,0 -33.74,-15.14 -33.74,-33.77 0,-158.8 24.34,-425.03 45.98,-659.82 13.13,-143.2 24.44,-267.02 28.4,-344.72 0.92,-18.64 14.51,-34.33 35.35,-32.03 18.6,0.96 32.91,16.76 31.99,35.39 -3.96,79.12 -15.37,203.49 -28.63,347.42 -21.4,233.51 -45.61,498.08 -45.61,653.75 0,18.63 -15.11,33.77 -33.74,33.77z"/>
<path class="fil2" d="M10950.29 11958.09c-18.4,0 -33.41,-14.64 -33.77,-32.91l-25.46 -1125.81c-0.37,-18.63 14.31,-34.1 32.91,-34.43l0.82 0c18.27,0 33.38,14.54 33.74,32.91l25.5 1125.68c0.33,18.63 -14.44,34.1 -33.05,34.56l-0.69 0z"/>
<path class="fil2" d="M11419.38 12455.94c-18.01,0 -33.02,-14.31 -33.74,-32.46l-44.2 -1178.84c-0.59,-18.63 13.85,-34.33 32.59,-35.03 19.43,0.1 34.2,13.95 34.89,32.46l44.23 1178.87c0.69,18.6 -13.85,34.3 -32.49,35l-1.28 0z"/>
<path class="fil2" d="M11896.78 12875.62c-17.91,0 -32.68,-13.85 -33.64,-31.89l-59.67 -1101.11c-1.06,-18.73 13.26,-34.56 31.86,-35.62 20.94,-2.08 34.56,13.26 35.48,31.89l59.6 1101.24c1.02,18.64 -13.29,34.43 -31.8,35.49l-1.85 0z"/>
<path class="fil2" d="M12369.4 13263.55c-17.35,0 -32.22,-13.39 -33.51,-31.2l-82.72 -1072.05c-1.42,-18.6 12.43,-34.8 31.04,-36.18 16.89,-2.8 34.8,12.46 36.21,31.07l82.72 1072.05c1.39,18.6 -12.46,34.8 -31.07,36.18l-2.67 0.13z"/>
<path class="fil2" d="M12816.89 13612.22c-17.12,0 -31.66,-12.89 -33.51,-30.34l-96.7 -940.22c-1.85,-18.64 11.51,-35.16 30.14,-37.01 17.22,-2.21 35.13,11.41 37.01,30.15l96.67 940.22c1.88,18.47 -11.51,35.12 -30.15,36.97l-3.46 0.23z"/>
<path class="fil2" d="M13255.04 13562.19c-16.16,0 -30.61,-11.84 -33.15,-28.36l-67.94 -420.15c-3.04,-18.37 9.53,-35.72 27.9,-38.62 18.4,-3.4 35.72,9.4 38.65,27.8l67.94 420.15c3,18.5 -9.57,35.72 -27.94,38.72l-5.47 0.46z"/>
<path class="fil3" d="M6278.6 10405.88c-1790.14,0 -3246.48,-1456.35 -3246.48,-3246.52 0,-154.15 10.81,-305.86 31.76,-454.44 32.69,112.73 69.23,224.54 108.67,335.09 -0.23,176.48 19.52,249.2 83.31,456.79 43.27,151.12 84.56,302.63 139.38,450.16 54.22,143.56 144.62,458.86 408.27,819.57l0.1 0.23c245.15,296.57 605.73,614.2 767.7,727.86 381.03,256.69 557.31,356.63 922.28,441.55 236.44,58.64 443.99,79.94 631.19,79.94 225.16,0 420.84,-30.84 601.44,-64.57 696.93,-128.33 1111,-273.88 1662.05,-672.62 18.37,-11.41 37.46,-18.5 56.53,-22.33 108.11,-82.29 214.21,-169.29 324.73,-268.07 127.87,-121.47 354.05,-375.95 371.4,-407.94 65.04,-76.68 109.59,-172.43 167.54,-255.14 -469.35,1215.71 -1650.54,2080.44 -3029.87,2080.44zm-2699.99 -1102.76c-5.61,-6.07 -11.18,-12.24 -16.75,-18.4 -244.13,-274.34 -381.16,-550.09 -474.5,-817.11 124.37,302.37 290.53,583.14 491.25,835.51zm5442.7 -55.04c141.02,-184.76 264.01,-384.3 365.82,-595.47 -8.28,22.92 -16.52,45.84 -24.8,68.76 -48.52,112.63 -100.4,224.2 -153.93,334.96 -51.32,58.64 -114.71,123.58 -187.1,191.75z"/>
<path class="fil2" d="M6167.62 10514.54c-125.89,0 -251.68,-10.12 -375.95,-32.81l-3.37 -0.69c-201.88,-23.74 -405.37,-47.46 -600.81,-104.25 -358.14,-116.36 -680.99,-316.59 -984.68,-535.55 -127.87,-105.31 -330.2,-218.76 -624.2,-538.12 -200.72,-252.37 -366.88,-533.14 -491.25,-835.51 -50.13,-143.83 -87.73,-285.06 -122.39,-422.26 -57.59,-453.52 -65.96,-910.31 -7.09,-1365.81 4.78,-0.36 9.53,-0.59 14.31,-0.59 30.94,0 61.68,7.22 89.94,20.02 0.56,1.98 1.15,3.96 1.75,5.94 -20.94,148.58 -31.76,300.3 -31.76,454.44 0,1790.18 1456.34,3246.52 3246.48,3246.52 1379.33,0 2560.52,-864.73 3029.87,-2080.44 25.82,-36.78 54.22,-70.98 88.32,-99.83 25.69,-15.37 54.22,-22.46 82.58,-22.46 22,0 44.09,4.32 64.58,12.34 -51.65,145.91 -104.26,291.58 -156.83,437.13 -101.81,211.18 -224.8,410.71 -365.82,595.47 -218.5,206.06 -518.43,441.91 -811.4,624.23 -60.39,45.35 -105.08,76.41 -233.87,155.9 -317.28,167.78 -664.24,274.11 -1011.8,359.4 -167.54,45.02 -334.26,95.87 -507.97,110.19 -95.87,10.81 -192.21,16.75 -288.65,16.75z"/>
<path class="fil3" d="M9236.56 10779.35c-24.54,-18.04 -46.54,-39.68 -65.04,-63.89l65.04 63.89z"/>
<path class="fil3" d="M9548.04 10801.91l-277.04 -272.59c259.83,-230.83 492.64,-491.12 693.46,-775.58 109.59,96.43 218.96,193.6 327.96,291.22 -3.69,7.78 -7.88,15.47 -12.43,23.02 -46.9,77.28 -102.5,149.04 -161.51,217.71 12.57,-74.11 25.5,-148.02 38.89,-221.67 3.36,-18.37 -8.84,-35.82 -27.11,-39.21 -1.98,-0.33 -3.86,-0.56 -5.7,-0.56 -16.06,0 -30.61,11.28 -33.64,27.67 -19.89,109.86 -39.08,220.51 -57.22,331.39 -129.98,167.41 -290.07,310.88 -476.24,413.25 -3.13,1.88 -6.27,3.63 -9.4,5.34zm134.13 -573.84c-14.78,0 -27.9,9.89 -31.99,24.57l-77.7 271.33c-5.15,17.91 5.21,36.64 23.15,41.76l9.3 1.28c14.65,0 28.17,-9.53 32.45,-24.44l77.61 -271.33c5.11,-17.91 -5.24,-36.51 -23.15,-41.65 -3.26,-1.02 -6.53,-1.52 -9.67,-1.52z"/>
<path class="fil2" d="M9409.92 10838.22c-63.62,0 -123.78,-22.23 -173.35,-58.87l-65.04 -63.89c-15.93,-20.81 -29.22,-43.5 -39.45,-67.48 47.13,-38.62 93.44,-78.17 138.92,-118.67l277.04 272.59c-46.07,25.13 -92.97,36.31 -138.12,36.31zm882.5 -793.26c-109,-97.62 -218.37,-194.79 -327.96,-291.22 23.48,-33.28 46.54,-66.79 69.09,-100.76 2.21,0 4.42,-0.13 6.63,-0.13 23.84,0 48.88,3.5 75.39,11.18 161.28,42.58 248.05,233.04 176.84,380.93z"/>
<path class="fil2" d="M9132.08 10647.99c-37.83,-88.75 -33.04,-194.98 42.35,-287.72 30.01,-52.24 86.91,-75.86 134.73,-109l3.03 -2.47c241.56,-218.5 282.94,-204.06 429.31,-375l11.31 -13.35c68.41,-105.9 157.06,-204.09 280.74,-207.45 -22.56,33.97 -45.61,67.48 -69.09,100.76 -200.82,284.46 -433.63,544.74 -693.46,775.58 -45.48,40.5 -91.79,80.05 -138.92,118.67z"/>
<path class="fil2" d="M9604.93 10567.02l-9.3 -1.28c-17.94,-5.11 -28.3,-23.85 -23.15,-41.76l77.7 -271.33c4.09,-14.68 17.21,-24.57 31.99,-24.57 3.13,0 6.4,0.5 9.67,1.52 17.91,5.14 28.26,23.74 23.15,41.65l-77.61 271.33c-4.29,14.91 -17.81,24.44 -32.45,24.44z"/>
<path class="fil2" d="M10033.68 10383.32c18.14,-110.89 37.33,-221.54 57.22,-331.39 3.04,-16.39 17.58,-27.67 33.64,-27.67 1.85,0 3.72,0.23 5.7,0.56 18.27,3.39 30.47,20.84 27.11,39.21 -13.39,73.65 -26.32,147.56 -38.89,221.67 -23.48,27.34 -47.46,54.09 -71.67,80.51 -4.29,5.8 -8.71,11.51 -13.13,17.12z"/>
<path class="fil4" d="M6371.21 6903.62c0,-523.57 424.47,-948.01 948.04,-948.01 523.57,0 948.01,424.43 948.01,948.01 0,523.57 -424.43,948.04 -948.01,948.04 -523.57,0 -948.04,-424.46 -948.04,-948.04z"/>
<path class="fil2" d="M7319.25 6056.83c-467.04,0 -846.92,379.87 -846.92,846.79 0,467.04 379.87,846.79 846.92,846.79 466.91,0 846.79,-379.74 846.79,-846.79 0,-466.91 -379.88,-846.79 -846.79,-846.79zm0 1896.04c-578.62,0 -1049.35,-470.64 -1049.35,-1049.26 0,-578.49 470.74,-1049.22 1049.35,-1049.22 578.49,0 1049.23,470.74 1049.23,1049.22 0,578.62 -470.74,1049.26 -1049.23,1049.26z"/>
<path class="fil2" d="M1980.78 12388.82c-23.88,0 -47.82,-8.38 -67.15,-25.49 -41.75,-37.11 -45.61,-101.09 -8.48,-142.87 491.55,-553.82 974.66,-1128.81 1435.86,-1708.81 34.89,-43.63 98.55,-50.96 142.28,-16.19 43.77,34.8 50.96,98.45 16.2,142.18 -463.42,582.91 -948.96,1160.6 -1442.99,1717.22 -20.02,22.56 -47.82,33.97 -75.72,33.97z"/>
<path class="fil2" d="M12856.1 9450.28c-17.81,0 -35.39,-4.65 -50.99,-13.72l-2195.84 -1279.13c-48.28,-28.17 -64.71,-90.07 -36.54,-138.36 28.17,-48.38 90.17,-64.67 138.45,-36.54l2104.19 1225.77 1722.2 -3299.59c25.96,-49.57 87.04,-68.63 136.61,-42.91 49.54,25.93 68.73,87 42.91,136.71l-1771.31 3393.45c-12.8,24.54 -35.13,42.71 -61.64,50.36l-28.04 3.96z"/>
<path class="fil1" d="M1162.58 12582.42c0,-335.32 271.8,-607.11 607.11,-607.11 335.32,0 607.11,271.8 607.11,607.11 0,335.32 -271.8,607.11 -607.11,607.11 -335.31,0 -607.11,-271.8 -607.11,-607.11z"/>
<path class="fil2" d="M1769.7 12076.53c-278.89,0 -505.89,226.87 -505.89,505.89 0,279.02 227.01,505.9 505.89,505.9 278.89,0 505.9,-226.88 505.9,-505.9 0,-279.02 -227.01,-505.89 -505.9,-505.89zm0 1214.23c-390.59,0 -708.33,-317.87 -708.33,-708.33 0,-390.59 317.74,-708.33 708.33,-708.33 390.59,0 708.33,317.74 708.33,708.33 0,390.46 -317.74,708.33 -708.33,708.33z"/>
<path class="fil1" d="M14289.85 5348.5c0,-335.32 271.8,-607.11 607.11,-607.11 335.32,0 607.11,271.8 607.11,607.11 0,335.32 -271.8,607.11 -607.11,607.11 -335.32,0 -607.11,-271.8 -607.11,-607.11z"/>
<path class="fil2" d="M14896.96 4842.61c-278.98,0 -505.89,226.87 -505.89,505.89 0,279.02 226.91,505.9 505.89,505.9 279.02,0 505.9,-226.88 505.9,-505.9 0,-279.02 -226.88,-505.89 -505.9,-505.89zm0 1214.23c-390.46,0 -708.33,-317.74 -708.33,-708.33 0,-390.46 317.87,-708.33 708.33,-708.33 390.59,0 708.33,317.87 708.33,708.33 0,390.59 -317.74,708.33 -708.33,708.33z"/>
<path class="fil1" d="M12248.99 9349.06c0,-335.19 271.76,-606.98 607.11,-606.98 335.19,0 606.98,271.8 606.98,606.98 0,335.31 -271.8,607.11 -606.98,607.11 -335.35,0 -607.11,-271.8 -607.11,-607.11z"/>
<path class="fil2" d="M12856.1 8843.3c-279.02,0 -505.89,226.87 -505.89,505.76 0,279.02 226.87,505.89 505.89,505.89 278.89,0 505.76,-226.87 505.76,-505.89 0,-278.89 -226.87,-505.76 -505.76,-505.76zm0 1214.09c-390.59,0 -708.37,-317.74 -708.37,-708.33 0,-390.46 317.77,-708.2 708.37,-708.2 390.46,0 708.2,317.74 708.2,708.2 0,390.59 -317.74,708.33 -708.2,708.33z"/>
<path class="fil2" d="M4770.84 10108.02c-21.9,0 -44,-7.09 -62.6,-21.77 -43.86,-34.56 -51.45,-98.19 -16.75,-142.05l1865.77 -2367.97c34.56,-43.87 98.31,-51.42 142.18,-16.85 43.87,34.67 51.42,98.19 16.76,142.18l-1865.77 2367.94c-20.02,25.26 -49.7,38.52 -79.58,38.52z"/>
<path class="fil2" d="M9403.29 8307.03c-18.04,0 -36.28,-4.75 -52.8,-14.88l-1278.81 -785.94c-47.72,-29.32 -62.59,-91.59 -33.28,-139.28 29.19,-47.59 91.69,-62.37 139.28,-33.28l1278.67 785.94c47.69,29.32 62.6,91.69 33.28,139.28 -19.09,31.07 -52.24,48.15 -86.34,48.15z"/>
</g>
</g>
</svg>