<?xml version="1.0" standalone="no"?>
<!DOCTYPE svg PUBLIC "-//W3C//DTD SVG 20010904//EN"
 "http://www.w3.org/TR/2001/REC-SVG-20010904/DTD/svg10.dtd">
<svg version="1.0" xmlns="http://www.w3.org/2000/svg"
 width="200.000000pt" height="200.000000pt" viewBox="0 0 200.000000 200.000000"
 preserveAspectRatio="xMidYMid meet">
<metadata>
Created by potrace 1.14, written by Peter Selinger 2001-2017
</metadata>
<g transform="translate(0.000000,200.000000) scale(0.100000,-0.100000)"
fill="#000000" stroke="none">
<path d="M103 1933 c-10 -4 -13 -196 -13 -914 l0 -909 22 -5 c13 -3 426 -4
918 -3 l895 3 0 89 c0 84 -1 89 -22 92 -25 4 -31 -12 -31 -79 0 -21 -2 -40 -5
-43 -5 -5 -179 -7 -217 -2 -9 1 -16 11 -16 24 0 12 4 20 8 18 4 -3 8 -1 8 5 0
5 -6 12 -12 14 -10 4 -9 6 1 6 11 1 11 4 0 18 -10 11 -10 14 -1 9 6 -4 12 -3
12 1 0 14 -38 33 -55 27 -11 -5 -15 -21 -15 -65 0 -67 12 -61 -115 -60 -126 0
-114 -7 -117 63 -3 57 -5 63 -25 66 -13 2 -24 0 -24 -5 -1 -4 -3 -32 -5 -62
-1 -29 -5 -56 -8 -58 -4 -5 -146 -7 -207 -4 -13 1 -17 13 -18 58 -1 51 -10 72
-33 73 -20 0 -34 -32 -33 -79 l1 -51 -38 -1 c-21 0 -73 -1 -115 -1 l-78 -1 -1
54 c-2 79 -2 79 -23 79 -27 0 -32 -11 -32 -75 -1 -34 -5 -55 -13 -56 -6 0 -57
-1 -114 -2 -84 -2 -102 1 -103 13 -1 8 -2 34 -3 57 -1 49 -16 68 -45 58 -18
-5 -21 -14 -21 -66 0 -54 -2 -59 -22 -60 -70 -2 -230 -1 -233 3 -4 3 -7 139
-6 224 l1 41 56 1 c59 1 75 11 67 43 -4 15 -15 19 -57 20 -28 1 -54 1 -58 0
-5 0 -8 52 -8 117 l0 117 53 -1 c59 -1 77 8 70 36 -5 17 -14 20 -64 20 l-59 0
-1 83 c-1 91 1 140 7 146 2 2 24 3 50 3 34 -1 51 4 60 16 18 25 -1 54 -34 52
-15 -1 -39 -2 -54 -1 l-28 1 0 115 0 115 59 0 c50 0 59 3 64 20 7 27 -10 36
-70 35 l-53 -1 0 123 c0 75 4 123 10 123 6 0 10 -6 10 -12 0 -9 4 -8 10 2 9
13 11 13 20 0 6 -9 10 -10 10 -3 0 6 15 13 33 15 26 2 31 7 29 23 -5 28 -6 28
-67 27 l-55 0 -1 61 c-1 80 2 151 6 156 3 2 25 3 51 3 54 -1 74 10 67 38 -5
18 -14 20 -82 19 -42 0 -82 -3 -88 -6z"/>
<path d="M480 1929 c0 -5 -6 -7 -12 -3 -7 4 -10 4 -6 -1 11 -12 -12 -47 -27
-41 -8 3 -20 -3 -27 -13 -7 -10 -19 -20 -27 -22 -15 -5 -21 -25 -22 -76 -1
-41 2 -45 55 -73 25 -13 46 -30 46 -39 0 -14 2 -14 10 -1 6 9 10 10 10 3 0 -6
-4 -15 -10 -18 -5 -3 -10 -11 -10 -16 0 -6 4 -8 8 -5 4 2 8 -4 8 -14 0 -10 -5
-16 -10 -13 -5 4 -7 -1 -3 -11 5 -13 3 -16 -11 -12 -59 17 -92 18 -98 1 -9
-23 7 -36 55 -42 35 -5 44 -11 57 -39 17 -36 30 -43 32 -19 1 8 3 22 4 30 1 8
15 17 32 21 38 8 66 25 66 41 0 6 4 13 9 15 10 3 14 28 12 66 0 13 -5 21 -10
17 -5 -3 -12 3 -16 14 -3 12 -23 25 -48 34 l-42 14 0 56 c-1 53 1 56 22 55 13
-2 23 -5 23 -8 0 -3 11 -7 25 -8 16 -1 25 3 25 12 0 33 -14 45 -56 52 -38 5
-44 10 -44 30 0 13 -4 24 -10 24 -5 0 -10 -5 -10 -11z m-17 -186 c-3 -7 -9
-13 -15 -13 -5 0 -7 4 -4 9 3 5 -3 11 -14 14 -28 7 -28 57 0 64 11 3 21 10 21
17 1 6 5 -9 9 -34 4 -25 5 -51 3 -57z m80 -82 c5 -1 5 -5 2 -11 -3 -5 1 -10 9
-10 10 0 16 -9 16 -24 0 -18 -8 -27 -30 -34 -35 -13 -37 -10 -37 44 0 33 4 41
16 39 9 -2 20 -4 24 -4z"/>
<path d="M1658 1674 c-4 -3 -90 -15 -112 -15 -10 0 -16 -3 -12 -6 3 -3 -2 -11
-11 -18 -15 -11 -15 -15 0 -44 16 -31 16 -32 -24 -72 -21 -22 -39 -36 -39 -32
0 4 -6 -3 -13 -17 -7 -13 -24 -30 -37 -37 -14 -7 -21 -13 -16 -13 5 0 -8 -18
-29 -39 -21 -21 -45 -37 -54 -36 -9 2 -21 4 -27 4 -5 1 -19 9 -30 19 -18 17
-50 34 -67 36 -4 1 -11 6 -15 12 -4 6 -25 19 -47 30 -22 10 -46 24 -53 30 -6
7 -21 16 -32 19 -11 3 -20 11 -20 16 0 6 -4 8 -9 5 -5 -3 -14 1 -21 9 -7 8
-16 13 -20 10 -5 -3 -11 -1 -15 5 -12 20 -43 9 -76 -26 -19 -20 -56 -58 -83
-85 -27 -27 -45 -49 -40 -49 4 0 -3 -8 -16 -17 -14 -10 -34 -28 -45 -41 -11
-13 -49 -54 -85 -91 -76 -77 -110 -117 -92 -107 7 4 12 1 12 -8 0 -21 17 -29
37 -17 10 6 14 11 8 11 -5 0 1 7 13 16 12 8 20 20 16 25 -3 5 -1 8 4 7 9 -3
42 28 83 78 9 10 27 29 40 40 13 12 39 38 58 58 19 20 38 36 43 36 5 0 6 5 3
10 -3 6 -1 10 5 10 6 0 16 11 22 25 6 13 19 27 30 30 10 4 18 13 18 21 0 8 5
12 10 9 6 -3 10 -1 10 6 0 8 5 7 18 -3 9 -8 38 -23 64 -34 25 -10 45 -22 42
-25 -2 -4 11 -13 29 -20 17 -7 35 -18 39 -23 4 -6 11 -11 15 -11 4 -1 17 -6
28 -12 11 -6 25 -12 30 -13 6 -1 9 -6 7 -11 -1 -5 2 -10 8 -10 5 -1 14 -2 20
-3 5 0 19 -9 31 -19 24 -21 89 -35 89 -19 0 17 235 249 248 244 7 -2 10 -8 7
-13 -3 -4 6 -11 21 -15 30 -8 44 7 44 49 0 15 4 27 9 27 10 0 22 76 15 95 -4
10 -29 16 -36 9z"/>
<path d="M1573 1336 c-11 -16 -11 -896 0 -929 10 -30 12 -31 146 -28 62 2 88
6 100 18 14 15 16 66 17 465 1 400 -1 450 -15 458 -14 8 -14 9 -1 10 13 0 13
1 0 10 -21 14 -238 11 -247 -4z"/>
<path d="M809 1109 c-14 -28 -15 -684 -1 -702 7 -8 9 -17 5 -20 -7 -7 39 -10
151 -8 113 2 106 -23 106 375 0 197 -4 347 -10 356 -7 12 -34 15 -125 16 -102
0 -117 -2 -126 -17z"/>
<path d="M1213 922 c-24 -11 -33 -23 -34 -41 -4 -75 -4 -458 -1 -468 2 -7 11
-13 19 -13 8 0 11 -4 8 -10 -7 -11 -6 -11 65 -11 158 0 156 -1 168 26 8 17 12
103 12 259 0 267 2 262 -83 258 -28 -1 -57 4 -66 11 -8 7 -12 7 -8 1 4 -7 -5
-11 -24 -12 -16 0 -27 4 -24 9 4 5 5 8 3 8 -2 -1 -18 -9 -35 -17z"/>
<path d="M433 729 c-20 -7 -21 -14 -22 -161 -2 -201 -11 -193 192 -189 38 0
66 5 63 10 -4 5 -1 11 6 13 16 6 15 305 -1 321 -14 14 -204 19 -238 6z"/>
</g>
</svg>
